<?xml version="1.0" encoding="UTF-8"?><svg id="Layer_2" xmlns="http://www.w3.org/2000/svg" width="530.9" height="381.7" viewBox="0 0 530.9 381.7"><defs><style>.cls-1{fill:#f15a24;}</style></defs><g id="Layer_23"><g id="and"><g id="_1101_and_and_and_and_1010_1000"><path d="m34.8,59.9H9.4v-4.9h10.2V17.5l-9.6,4.8v-5.6l10.4-5.4h4.8v43.6h9.5v4.9Z"/><path d="m118.7,59.9h-25.4v-4.9h10.2V17.5l-9.6,4.8v-5.6l10.4-5.4h4.8v43.6h9.5v4.9Z"/><path d="m188.7,10.7c5.1,0,9,2.2,11.8,6.6,2.7,4.4,4.1,10.5,4.1,18.5s-1.3,13.8-4,18.3c-2.7,4.5-6.6,6.8-11.9,6.8s-9-2.2-11.8-6.6c-2.8-4.4-4.1-10.5-4.1-18.5s1.3-13.8,4-18.3c2.7-4.5,6.6-6.8,11.9-6.8Zm0,45.2c3.4,0,5.9-1.6,7.5-4.8,1.6-3.2,2.4-8.3,2.4-15.3s-.8-12.1-2.4-15.3c-1.6-3.2-4.1-4.8-7.5-4.8s-5.8,1.6-7.5,4.9c-1.6,3.3-2.5,8.3-2.5,15.2s.8,12,2.4,15.3c1.6,3.2,4.1,4.8,7.5,4.8Zm-.1-25.2c1.4,0,2.6.5,3.6,1.5s1.5,2.2,1.5,3.6-.5,2.8-1.5,3.8c-1,1.1-2.2,1.6-3.6,1.6s-2.6-.5-3.6-1.6-1.5-2.3-1.5-3.8.5-2.7,1.5-3.7c1-1,2.2-1.5,3.6-1.5Z"/><path d="m272.5,10.7c5.1,0,9,2.2,11.8,6.6,2.7,4.4,4.1,10.5,4.1,18.5s-1.3,13.8-4,18.3c-2.7,4.5-6.6,6.8-11.9,6.8s-9-2.2-11.8-6.6c-2.8-4.4-4.1-10.5-4.1-18.5s1.3-13.8,4-18.3c2.7-4.5,6.6-6.8,11.9-6.8Zm0,45.2c3.4,0,5.9-1.6,7.5-4.8,1.6-3.2,2.4-8.3,2.4-15.3s-.8-12.1-2.4-15.3c-1.6-3.2-4.1-4.8-7.5-4.8s-5.8,1.6-7.5,4.9c-1.6,3.3-2.5,8.3-2.5,15.2s.8,12,2.4,15.3c1.6,3.2,4.1,4.8,7.5,4.8Zm-.1-25.2c1.4,0,2.6.5,3.6,1.5s1.5,2.2,1.5,3.6-.5,2.8-1.5,3.8c-1,1.1-2.2,1.6-3.6,1.6s-2.6-.5-3.6-1.6-1.5-2.3-1.5-3.8.5-2.7,1.5-3.7c1-1,2.2-1.5,3.6-1.5Z"/><path class="cls-1" d="m16.8,115.9h-2.5c-.2-.7-.3-1.6-.3-2.7-1.4,2.1-3.4,3.1-5.8,3.1s-2.3-.4-3.3-1.3c-1-.9-1.4-2-1.4-3.4s.2-1.6.5-2.2.8-1.2,1.5-1.6c.6-.4,1.4-.8,2.4-1,.9-.3,2-.4,3.3-.5l2.8-.2v-.8c0-2.9-1.3-4.3-4-4.3s-1.4.1-2.4.4c-1,.3-1.8.6-2.5,1l-.7-1.8c2.3-1.2,4.4-1.8,6.4-1.8,3.8,0,5.7,2,5.7,6.1v7.2c0,1.5.1,2.8.4,3.9Zm-2.9-5v-3c-2.3.2-3.8.4-4.7.6-.8.2-1.6.5-2.2,1s-.9,1.1-.9,2,.3,1.4.8,1.8,1.2.7,2,.7,1.8-.3,2.7-.8c.9-.5,1.7-1.3,2.3-2.2Z"/><path class="cls-1" d="m36.2,115.9h-2.5v-10.8c0-1.5-.2-2.6-.7-3.2-.5-.7-1.2-1-2.2-1-1.5,0-3.2,1-4.9,2.9v12.1h-2.5v-16.8h2.5v2.5c1.8-1.9,3.7-2.9,5.7-2.9,3.1,0,4.7,1.9,4.7,5.7v11.5Z"/><path class="cls-1" d="m55.9,115.9h-2.5v-2.4c-.5.8-1.3,1.5-2.2,2s-2,.8-3,.8c-1.9,0-3.4-.9-4.6-2.6s-1.7-3.9-1.7-6.5.6-4.5,1.7-6.1c1.2-1.6,2.7-2.4,4.6-2.4s3.8.9,5.1,2.6v-8.1h2.5v22.7Zm-2.5-5.1v-7c-1.2-1.9-2.7-2.9-4.4-2.9s-2.5.6-3.3,1.8c-.8,1.2-1.2,2.8-1.2,4.7s.4,3.5,1.1,4.8c.8,1.3,1.8,1.9,3.1,1.9s1.3-.2,1.9-.5,1.3-.9,1.8-1.5.9-1.1.9-1.3Z"/><path class="cls-1" d="m96,115.9h-2.5c-.2-.7-.3-1.6-.3-2.7-1.4,2.1-3.4,3.1-5.8,3.1s-2.3-.4-3.3-1.3c-1-.9-1.4-2-1.4-3.4s.2-1.6.5-2.2.8-1.2,1.5-1.6c.6-.4,1.4-.8,2.4-1,.9-.3,2-.4,3.3-.5l2.8-.2v-.8c0-2.9-1.3-4.3-4-4.3s-1.4.1-2.4.4c-1,.3-1.8.6-2.5,1l-.7-1.8c2.3-1.2,4.4-1.8,6.4-1.8,3.8,0,5.7,2,5.7,6.1v7.2c0,1.5.1,2.8.4,3.9Zm-2.9-5v-3c-2.3.2-3.8.4-4.7.6-.8.2-1.6.5-2.2,1s-.9,1.1-.9,2,.3,1.4.8,1.8,1.2.7,2,.7,1.8-.3,2.7-.8c.9-.5,1.7-1.3,2.3-2.2Z"/><path class="cls-1" d="m115.4,115.9h-2.5v-10.8c0-1.5-.2-2.6-.7-3.2-.5-.7-1.2-1-2.2-1-1.5,0-3.2,1-4.9,2.9v12.1h-2.5v-16.8h2.5v2.5c1.8-1.9,3.7-2.9,5.7-2.9,3.1,0,4.7,1.9,4.7,5.7v11.5Z"/><path class="cls-1" d="m135.2,115.9h-2.5v-2.4c-.5.8-1.3,1.5-2.2,2s-2,.8-3,.8c-1.9,0-3.4-.9-4.6-2.6s-1.7-3.9-1.7-6.5.6-4.5,1.7-6.1c1.2-1.6,2.7-2.4,4.6-2.4s3.8.9,5.1,2.6v-8.1h2.5v22.7Zm-2.5-5.1v-7c-1.2-1.9-2.7-2.9-4.4-2.9s-2.5.6-3.3,1.8c-.8,1.2-1.2,2.8-1.2,4.7s.4,3.5,1.1,4.8c.8,1.3,1.8,1.9,3.1,1.9s1.3-.2,1.9-.5,1.3-.9,1.8-1.5.9-1.1.9-1.3Z"/><path class="cls-1" d="m175.2,115.9h-2.5c-.2-.7-.3-1.6-.3-2.7-1.4,2.1-3.4,3.1-5.8,3.1s-2.3-.4-3.3-1.3c-1-.9-1.4-2-1.4-3.4s.2-1.6.5-2.2.8-1.2,1.5-1.6c.6-.4,1.4-.8,2.4-1,.9-.3,2-.4,3.3-.5l2.8-.2v-.8c0-2.9-1.3-4.3-4-4.3s-1.4.1-2.4.4c-1,.3-1.8.6-2.5,1l-.7-1.8c2.3-1.2,4.4-1.8,6.4-1.8,3.8,0,5.7,2,5.7,6.1v7.2c0,1.5.1,2.8.4,3.9Zm-2.9-5v-3c-2.3.2-3.8.4-4.7.6-.8.2-1.6.5-2.2,1s-.9,1.1-.9,2,.3,1.4.8,1.8,1.2.7,2,.7,1.8-.3,2.7-.8c.9-.5,1.7-1.3,2.3-2.2Z"/><path class="cls-1" d="m194.6,115.9h-2.5v-10.8c0-1.5-.2-2.6-.7-3.2-.5-.7-1.2-1-2.2-1-1.5,0-3.2,1-4.9,2.9v12.1h-2.5v-16.8h2.5v2.5c1.8-1.9,3.7-2.9,5.7-2.9,3.1,0,4.7,1.9,4.7,5.7v11.5Z"/><path class="cls-1" d="m214.4,115.9h-2.5v-2.4c-.5.8-1.3,1.5-2.2,2s-2,.8-3,.8c-1.9,0-3.4-.9-4.6-2.6s-1.7-3.9-1.7-6.5.6-4.5,1.7-6.1c1.2-1.6,2.7-2.4,4.6-2.4s3.8.9,5.1,2.6v-8.1h2.5v22.7Zm-2.5-5.1v-7c-1.2-1.9-2.7-2.9-4.4-2.9s-2.5.6-3.3,1.8c-.8,1.2-1.2,2.8-1.2,4.7s.4,3.5,1.1,4.8c.8,1.3,1.8,1.9,3.1,1.9s1.3-.2,1.9-.5,1.3-.9,1.8-1.5.9-1.1.9-1.3Z"/><path class="cls-1" d="m254.5,115.9h-2.5c-.2-.7-.3-1.6-.3-2.7-1.4,2.1-3.4,3.1-5.8,3.1s-2.3-.4-3.3-1.3c-1-.9-1.4-2-1.4-3.4s.2-1.6.5-2.2.8-1.2,1.5-1.6c.6-.4,1.4-.8,2.4-1,.9-.3,2-.4,3.3-.5l2.8-.2v-.8c0-2.9-1.3-4.3-4-4.3s-1.4.1-2.4.4c-1,.3-1.8.6-2.5,1l-.7-1.8c2.3-1.2,4.4-1.8,6.4-1.8,3.8,0,5.7,2,5.7,6.1v7.2c0,1.5.1,2.8.4,3.9Zm-2.9-5v-3c-2.3.2-3.8.4-4.7.6-.8.2-1.6.5-2.2,1s-.9,1.1-.9,2,.3,1.4.8,1.8,1.2.7,2,.7,1.8-.3,2.7-.8c.9-.5,1.7-1.3,2.3-2.2Z"/><path class="cls-1" d="m273.8,115.9h-2.5v-10.8c0-1.5-.2-2.6-.7-3.2-.5-.7-1.2-1-2.2-1-1.5,0-3.2,1-4.9,2.9v12.1h-2.5v-16.8h2.5v2.5c1.8-1.9,3.7-2.9,5.7-2.9,3.1,0,4.7,1.9,4.7,5.7v11.5Z"/><path class="cls-1" d="m293.6,115.9h-2.5v-2.4c-.5.8-1.3,1.5-2.2,2s-2,.8-3,.8c-1.9,0-3.4-.9-4.6-2.6s-1.7-3.9-1.7-6.5.6-4.5,1.7-6.1c1.2-1.6,2.7-2.4,4.6-2.4s3.8.9,5.1,2.6v-8.1h2.5v22.7Zm-2.5-5.1v-7c-1.2-1.9-2.7-2.9-4.4-2.9s-2.5.6-3.3,1.8c-.8,1.2-1.2,2.8-1.2,4.7s.4,3.5,1.1,4.8c.8,1.3,1.8,1.9,3.1,1.9s1.3-.2,1.9-.5,1.3-.9,1.8-1.5.9-1.1.9-1.3Z"/><path d="m34.8,190.9H9.4v-4.9h10.2v-37.5l-9.6,4.8v-5.6l10.4-5.4h4.8v43.6h9.5v4.9Z"/><path d="m104.8,141.7c5.1,0,9,2.2,11.8,6.6,2.7,4.4,4.1,10.5,4.1,18.5s-1.3,13.8-4,18.3c-2.7,4.5-6.6,6.8-11.9,6.8s-9-2.2-11.8-6.6c-2.8-4.4-4.1-10.5-4.1-18.5s1.3-13.8,4-18.3c2.7-4.5,6.6-6.8,11.9-6.8Zm0,45.2c3.4,0,5.9-1.6,7.5-4.8,1.6-3.2,2.4-8.3,2.4-15.3s-.8-12.1-2.4-15.3c-1.6-3.2-4.1-4.8-7.5-4.8s-5.8,1.6-7.5,4.9c-1.6,3.3-2.5,8.3-2.5,15.2s.8,12,2.4,15.3c1.6,3.2,4.1,4.8,7.5,4.8Zm-.1-25.2c1.4,0,2.6.5,3.6,1.5s1.5,2.2,1.5,3.6-.5,2.8-1.5,3.8c-1,1.1-2.2,1.6-3.6,1.6s-2.6-.5-3.6-1.6-1.5-2.3-1.5-3.8.5-2.7,1.5-3.7c1-1,2.2-1.5,3.6-1.5Z"/><path d="m202.5,190.9h-25.4v-4.9h10.2v-37.5l-9.6,4.8v-5.6l10.4-5.4h4.8v43.6h9.5v4.9Z"/><path d="m272.5,141.7c5.1,0,9,2.2,11.8,6.6,2.7,4.4,4.1,10.5,4.1,18.5s-1.3,13.8-4,18.3c-2.7,4.5-6.6,6.8-11.9,6.8s-9-2.2-11.8-6.6c-2.8-4.4-4.1-10.5-4.1-18.5s1.3-13.8,4-18.3c2.7-4.5,6.6-6.8,11.9-6.8Zm0,45.2c3.4,0,5.9-1.6,7.5-4.8,1.6-3.2,2.4-8.3,2.4-15.3s-.8-12.1-2.4-15.3c-1.6-3.2-4.1-4.8-7.5-4.8s-5.8,1.6-7.5,4.9c-1.6,3.3-2.5,8.3-2.5,15.2s.8,12,2.4,15.3c1.6,3.2,4.1,4.8,7.5,4.8Zm-.1-25.2c1.4,0,2.6.5,3.6,1.5s1.5,2.2,1.5,3.6-.5,2.8-1.5,3.8c-1,1.1-2.2,1.6-3.6,1.6s-2.6-.5-3.6-1.6-1.5-2.3-1.5-3.8.5-2.7,1.5-3.7c1-1,2.2-1.5,3.6-1.5Z"/><path class="cls-1" d="m13,256.2v-1.7c1.8.9,3,1.5,3.7,2,.7.5,1.8,1.2,3.1,2.4v-32.7h2.3v32.6c1.6-1.5,3.9-3,6.8-4.4v1.7c-2.1,1.9-3.7,3.5-4.8,4.9s-2,2.8-2.7,4.3h-1c-1.2-2.7-3.6-5.7-7.4-9.1Z"/><path class="cls-1" d="m96.9,256.2v-1.7c1.8.9,3,1.5,3.7,2,.7.5,1.8,1.2,3.1,2.4v-32.7h2.3v32.6c1.6-1.5,3.9-3,6.8-4.4v1.7c-2.1,1.9-3.7,3.5-4.8,4.9s-2,2.8-2.7,4.3h-1c-1.2-2.7-3.6-5.7-7.4-9.1Z"/><path class="cls-1" d="m180.8,256.2v-1.7c1.8.9,3,1.5,3.7,2,.7.5,1.8,1.2,3.1,2.4v-32.7h2.3v32.6c1.6-1.5,3.9-3,6.8-4.4v1.7c-2.1,1.9-3.7,3.5-4.8,4.9s-2,2.8-2.7,4.3h-1c-1.2-2.7-3.6-5.7-7.4-9.1Z"/><path class="cls-1" d="m264.6,256.2v-1.7c1.8.9,3,1.5,3.7,2,.7.5,1.8,1.2,3.1,2.4v-32.7h2.3v32.6c1.6-1.5,3.9-3,6.8-4.4v1.7c-2.1,1.9-3.7,3.5-4.8,4.9s-2,2.8-2.7,4.3h-1c-1.2-2.7-3.6-5.7-7.4-9.1Z"/><path d="m34.8,339.9H9.4v-4.9h10.2v-37.5l-9.6,4.8v-5.6l10.4-5.4h4.8v43.6h9.5v4.9Z"/><path d="m104.8,290.7c5.1,0,9,2.2,11.8,6.6,2.7,4.4,4.1,10.5,4.1,18.5s-1.3,13.8-4,18.3c-2.7,4.5-6.6,6.8-11.9,6.8s-9-2.2-11.8-6.6c-2.8-4.4-4.1-10.5-4.1-18.5s1.3-13.8,4-18.3c2.7-4.5,6.6-6.8,11.9-6.8Zm0,45.2c3.4,0,5.9-1.6,7.5-4.8,1.6-3.2,2.4-8.3,2.4-15.3s-.8-12.1-2.4-15.3c-1.6-3.2-4.1-4.8-7.5-4.8s-5.8,1.6-7.5,4.9c-1.6,3.3-2.5,8.3-2.5,15.2s.8,12,2.4,15.3c1.6,3.2,4.1,4.8,7.5,4.8Zm-.1-25.2c1.4,0,2.6.5,3.6,1.5,1,1,1.5,2.2,1.5,3.6s-.5,2.8-1.5,3.8c-1,1.1-2.2,1.6-3.6,1.6s-2.6-.5-3.6-1.6c-1-1.1-1.5-2.3-1.5-3.8s.5-2.7,1.5-3.7c1-1,2.2-1.5,3.6-1.5Z"/><path d="m188.7,290.7c5.1,0,9,2.2,11.8,6.6,2.7,4.4,4.1,10.5,4.1,18.5s-1.3,13.8-4,18.3c-2.7,4.5-6.6,6.8-11.9,6.8s-9-2.2-11.8-6.6c-2.8-4.4-4.1-10.5-4.1-18.5s1.3-13.8,4-18.3c2.7-4.5,6.6-6.8,11.9-6.8Zm0,45.2c3.4,0,5.9-1.6,7.5-4.8,1.6-3.2,2.4-8.3,2.4-15.3s-.8-12.1-2.4-15.3c-1.6-3.2-4.1-4.8-7.5-4.8s-5.8,1.6-7.5,4.9c-1.6,3.3-2.5,8.3-2.5,15.2s.8,12,2.4,15.3c1.6,3.2,4.1,4.8,7.5,4.8Zm-.1-25.2c1.4,0,2.6.5,3.6,1.5,1,1,1.5,2.2,1.5,3.6s-.5,2.8-1.5,3.8c-1,1.1-2.2,1.6-3.6,1.6s-2.6-.5-3.6-1.6c-1-1.1-1.5-2.3-1.5-3.8s.5-2.7,1.5-3.7c1-1,2.2-1.5,3.6-1.5Z"/><path d="m272.5,290.7c5.1,0,9,2.2,11.8,6.6,2.7,4.4,4.1,10.5,4.1,18.5s-1.3,13.8-4,18.3c-2.7,4.5-6.6,6.8-11.9,6.8s-9-2.2-11.8-6.6c-2.8-4.4-4.1-10.5-4.1-18.5s1.3-13.8,4-18.3c2.7-4.5,6.6-6.8,11.9-6.8Zm0,45.2c3.4,0,5.9-1.6,7.5-4.8,1.6-3.2,2.4-8.3,2.4-15.3s-.8-12.1-2.4-15.3c-1.6-3.2-4.1-4.8-7.5-4.8s-5.8,1.6-7.5,4.9c-1.6,3.3-2.5,8.3-2.5,15.2s.8,12,2.4,15.3c1.6,3.2,4.1,4.8,7.5,4.8Zm-.1-25.2c1.4,0,2.6.5,3.6,1.5,1,1,1.5,2.2,1.5,3.6s-.5,2.8-1.5,3.8c-1,1.1-2.2,1.6-3.6,1.6s-2.6-.5-3.6-1.6c-1-1.1-1.5-2.3-1.5-3.8s.5-2.7,1.5-3.7c1-1,2.2-1.5,3.6-1.5Z"/></g><g id="Layer_24"><g id="_1101_and_and_and_and_1010_1000-2"><path d="m452.9,59.1h-25.4v-4.9h10.2V16.8l-9.6,4.8v-5.6l10.4-5.4h4.8v43.6h9.5v4.9Z"/><path d="m507.6,59.1h-26.5v-4.1c6.7-7.5,11.1-12.5,13.1-15.1,2-2.6,3.6-5.2,4.9-8,1.3-2.8,1.9-5.6,1.9-8.4s-.8-4.8-2.4-6.4c-1.6-1.5-3.9-2.3-6.9-2.3s-5.3.7-9.1,2.1l-.8-4.8c3.4-1.5,7-2.2,10.8-2.2s7.8,1.2,10.4,3.6,3.9,5.7,3.9,9.7-.7,5.8-2,8.6c-1.4,2.8-3.1,5.6-5.2,8.2-2.1,2.6-6.2,7.3-12.4,14.1h20.3v4.9Z"/><path class="cls-1" d="m481.5,114.9c-.7.3-1.5.4-2.6.4s-1.6-.3-2.5-.9-1.9-1.7-3.1-3.4c-2.4,3.1-5.4,4.7-8.8,4.7s-5.1-.9-7-2.6-2.9-3.9-2.9-6.6.5-3.3,1.5-4.7,2.9-3.2,5.6-5.1c-2.6-3-3.9-5.7-3.9-8s.7-4,2.2-5.3,3.3-2,5.5-2,3.7.6,5.1,1.7,2,2.8,2,4.8-.5,2.9-1.4,4.3-2.6,2.9-5.1,4.8l6.9,8.5c1.1-2.7,1.9-4.6,2.4-5.7s1.3-2,2.2-2.8,2.2-1.2,3.7-1.2h.2v3.2h-.2c-1,0-1.9.5-2.7,1.5s-2,3.5-3.5,7.5c1.2,1.4,2.1,2.4,2.7,3s1.4.9,2.2.9.9,0,1.5-.1v3Zm-10.1-6.3l-7.9-9.7c-1.8,1.3-3.1,2.6-3.9,3.7s-1.1,2.4-1.1,3.8.6,3.2,1.8,4.3,2.7,1.8,4.3,1.8c2.6,0,4.9-1.3,6.8-3.9Zm-7-13.8c1.8-1.3,3.1-2.4,3.9-3.4s1.1-2,1.1-3.1-.4-2.1-1.1-2.8-1.6-.9-2.7-.9-2.2.4-3.1,1.1-1.2,1.8-1.2,3.1,1,3.7,3.1,6Z"/><path d="m453,190.1h-25.4v-4.9h10.2v-37.5l-9.6,4.8v-5.6l10.4-5.4h4.8v43.6h9.5v4.9Z"/><path d="m495.1,141c5.1,0,9,2.2,11.8,6.6,2.7,4.4,4.1,10.5,4.1,18.5s-1.3,13.8-4,18.3c-2.7,4.5-6.6,6.8-11.9,6.8s-9-2.2-11.8-6.6c-2.8-4.4-4.1-10.5-4.1-18.5s1.3-13.8,4-18.3c2.7-4.5,6.6-6.8,11.9-6.8Zm0,45.2c3.4,0,5.9-1.6,7.5-4.8,1.6-3.2,2.4-8.3,2.4-15.3s-.8-12.1-2.4-15.3c-1.6-3.2-4.1-4.8-7.5-4.8s-5.8,1.6-7.5,4.9c-1.6,3.3-2.5,8.3-2.5,15.2s.8,12,2.4,15.3c1.6,3.2,4.1,4.8,7.5,4.8Zm-.1-25.2c1.4,0,2.6.5,3.6,1.5s1.5,2.2,1.5,3.6-.5,2.8-1.5,3.8c-1,1.1-2.2,1.6-3.6,1.6s-2.6-.5-3.6-1.6-1.5-2.3-1.5-3.8.5-2.7,1.5-3.7c1-1,2.2-1.5,3.6-1.5Z"/><path class="cls-1" d="m459.3,255.5v-1.7c1.8.9,3,1.5,3.7,2,.7.5,1.8,1.2,3.1,2.4v-32.7h2.3v32.6c1.6-1.5,3.9-3,6.8-4.4v1.7c-2.1,1.9-3.7,3.5-4.8,4.9s-2,2.8-2.7,4.3h-1c-1.2-2.7-3.6-5.7-7.4-9.1Z"/><path d="m472.1,312.7c3.3,1,5.8,2.6,7.6,4.9,1.8,2.3,2.7,5,2.7,8.1,0,4.4-1.5,7.9-4.4,10.5-2.9,2.6-6.5,3.9-10.8,3.9s-8.2-1.3-11.1-3.9c-2.9-2.6-4.3-6.1-4.3-10.4s.9-5.7,2.8-8.1c1.9-2.3,4.5-4,7.8-5-2.7-.7-4.8-2-6.4-3.9-1.6-1.9-2.4-4.1-2.4-6.5s1.2-5.9,3.7-8.4,5.7-3.8,9.7-3.8,7.3,1.3,9.9,3.8c2.6,2.5,3.9,5.3,3.9,8.4s-.8,4.5-2.5,6.5-3.8,3.3-6.4,4Zm-5,2.5c-6.2,1.8-9.4,5.3-9.4,10.3s.9,5.3,2.8,7.1c1.9,1.8,4.1,2.6,6.7,2.6s4.9-.9,6.7-2.6c1.8-1.7,2.7-4.1,2.7-7.1s-.6-4.3-1.9-6.1c-1.3-1.8-3.8-3.2-7.7-4.2Zm0-4.8c.1,0,.7-.1,1.6-.4,1-.3,1.8-.6,2.5-1,.7-.4,1.3-.9,1.9-1.5.6-.6,1.1-1.3,1.4-2.2.4-.8.5-1.8.5-2.8,0-2.2-.8-4-2.4-5.5-1.6-1.4-3.5-2.2-5.7-2.2s-4,.7-5.6,2.2c-1.5,1.5-2.3,3.3-2.3,5.4s.3,2.5.8,3.5c.6,1,1.3,1.8,2.1,2.4.8.6,1.8,1.1,2.9,1.4,1.1.3,1.8.5,2.1.5Z"/></g><path class="cls-1" d="m385.9,308.3h-32.8v-4.5h32.8v4.5Zm0,13.9h-32.8v-4.5h32.8v4.5Z"/></g></g></g></svg>