<?xml version="1.0" encoding="UTF-8"?><svg id="Layer_2" xmlns="http://www.w3.org/2000/svg" width="403.9" height="380.8" viewBox="0 0 403.9 380.8"><defs><style>.cls-1{fill:#f15a24;}</style></defs><g id="Layer_23"><g id="or"><g id="_1101_and_and_and_and_1010_1000"><path d="m34.8,59.1H9.4v-4.9h10.2V16.8l-9.6,4.8v-5.6l10.4-5.4h4.8v43.6h9.5v4.9Z"/><path d="m118.7,59.1h-25.4v-4.9h10.2V16.8l-9.6,4.8v-5.6l10.4-5.4h4.8v43.6h9.5v4.9Z"/><path d="m188.7,10c5.1,0,9,2.2,11.8,6.6,2.7,4.4,4.1,10.5,4.1,18.5s-1.3,13.8-4,18.3c-2.7,4.5-6.6,6.8-11.9,6.8s-9-2.2-11.8-6.6c-2.8-4.4-4.1-10.5-4.1-18.5s1.3-13.8,4-18.3c2.7-4.5,6.6-6.8,11.9-6.8Zm0,45.2c3.4,0,5.9-1.6,7.5-4.8,1.6-3.2,2.4-8.3,2.4-15.3s-.8-12.1-2.4-15.3-4.1-4.8-7.5-4.8-5.8,1.6-7.5,4.9c-1.6,3.3-2.5,8.3-2.5,15.2s.8,12,2.4,15.3c1.6,3.2,4.1,4.8,7.5,4.8Zm-.1-25.2c1.4,0,2.6.5,3.6,1.5s1.5,2.2,1.5,3.6-.5,2.8-1.5,3.8c-1,1.1-2.2,1.6-3.6,1.6s-2.6-.5-3.6-1.6-1.5-2.3-1.5-3.8.5-2.7,1.5-3.7c1-1,2.2-1.5,3.6-1.5Z"/><path d="m272.5,10c5.1,0,9,2.2,11.8,6.6,2.7,4.4,4.1,10.5,4.1,18.5s-1.3,13.8-4,18.3c-2.7,4.5-6.6,6.8-11.9,6.8s-9-2.2-11.8-6.6-4.1-10.5-4.1-18.5,1.3-13.8,4-18.3c2.7-4.5,6.6-6.8,11.9-6.8Zm0,45.2c3.4,0,5.9-1.6,7.5-4.8,1.6-3.2,2.4-8.3,2.4-15.3s-.8-12.1-2.4-15.3c-1.6-3.2-4.1-4.8-7.5-4.8s-5.8,1.6-7.5,4.9c-1.6,3.3-2.5,8.3-2.5,15.2s.8,12,2.4,15.3c1.6,3.2,4.1,4.8,7.5,4.8Zm-.1-25.2c1.4,0,2.6.5,3.6,1.5s1.5,2.2,1.5,3.6-.5,2.8-1.5,3.8-2.2,1.6-3.6,1.6-2.6-.5-3.6-1.6-1.5-2.3-1.5-3.8.5-2.7,1.5-3.7c1-1,2.2-1.5,3.6-1.5Z"/><path class="cls-1" d="m9.9,97.9c2.3,0,4.1.8,5.5,2.4s2,3.7,2,6.4-.7,4.8-2,6.4-3.2,2.4-5.5,2.4-4.2-.8-5.5-2.4c-1.4-1.6-2-3.8-2-6.4s.7-4.8,2-6.4c1.4-1.6,3.2-2.4,5.5-2.4Zm0,15.4c1.5,0,2.7-.6,3.6-1.9s1.3-2.9,1.3-4.7-.4-3.5-1.3-4.8-2.1-1.9-3.6-1.9-2.8.6-3.6,1.8c-.9,1.2-1.3,2.8-1.3,4.8s.4,3.4,1.3,4.7c.9,1.3,2.1,1.9,3.6,1.9Z"/><path class="cls-1" d="m37.9,98.8l-1,2.4c-1.1-.5-2.1-.7-2.9-.7s-1.5.2-2.2.6c-.7.4-1.4,1-2,1.8-.6.8-.9,1.2-.9,1.3v10.9h-2.5v-16.8h2.5v3.4c1.3-2.5,3.1-3.8,5.2-3.8s2.5.3,3.7.9Z"/><path class="cls-1" d="m94.7,97.9c2.3,0,4.1.8,5.5,2.4s2,3.7,2,6.4-.7,4.8-2,6.4-3.2,2.4-5.5,2.4-4.2-.8-5.5-2.4c-1.4-1.6-2-3.8-2-6.4s.7-4.8,2-6.4c1.4-1.6,3.2-2.4,5.5-2.4Zm0,15.4c1.5,0,2.7-.6,3.6-1.9s1.3-2.9,1.3-4.7-.4-3.5-1.3-4.8-2.1-1.9-3.6-1.9-2.8.6-3.6,1.8c-.9,1.2-1.3,2.8-1.3,4.8s.4,3.4,1.3,4.7c.9,1.3,2.1,1.9,3.6,1.9Z"/><path class="cls-1" d="m122.6,98.8l-1,2.4c-1.1-.5-2.1-.7-2.9-.7s-1.5.2-2.2.6c-.7.4-1.4,1-2,1.8-.6.8-.9,1.2-.9,1.3v10.9h-2.5v-16.8h2.5v3.4c1.3-2.5,3.1-3.8,5.2-3.8s2.5.3,3.7.9Z"/><path class="cls-1" d="m179.4,97.9c2.3,0,4.1.8,5.5,2.4s2,3.7,2,6.4-.7,4.8-2,6.4-3.2,2.4-5.5,2.4-4.2-.8-5.5-2.4c-1.4-1.6-2-3.8-2-6.4s.7-4.8,2-6.4c1.4-1.6,3.2-2.4,5.5-2.4Zm0,15.4c1.5,0,2.7-.6,3.6-1.9s1.3-2.9,1.3-4.7-.4-3.5-1.3-4.8-2.1-1.9-3.6-1.9-2.8.6-3.6,1.8c-.9,1.2-1.3,2.8-1.3,4.8s.4,3.4,1.3,4.7c.9,1.3,2.1,1.9,3.6,1.9Z"/><path class="cls-1" d="m207.4,98.8l-1,2.4c-1.1-.5-2.1-.7-2.9-.7s-1.5.2-2.2.6c-.7.4-1.4,1-2,1.8-.6.8-.9,1.2-.9,1.3v10.9h-2.5v-16.8h2.5v3.4c1.3-2.5,3.1-3.8,5.2-3.8s2.5.3,3.7.9Z"/><path class="cls-1" d="m264.2,97.9c2.3,0,4.1.8,5.5,2.4s2,3.7,2,6.4-.7,4.8-2,6.4-3.2,2.4-5.5,2.4-4.2-.8-5.5-2.4c-1.4-1.6-2-3.8-2-6.4s.7-4.8,2-6.4c1.4-1.6,3.2-2.4,5.5-2.4Zm0,15.4c1.5,0,2.7-.6,3.6-1.9s1.3-2.9,1.3-4.7-.4-3.5-1.3-4.8-2.1-1.9-3.6-1.9-2.8.6-3.6,1.8c-.9,1.2-1.3,2.8-1.3,4.8s.4,3.4,1.3,4.7c.9,1.3,2.1,1.9,3.6,1.9Z"/><path class="cls-1" d="m292.1,98.8l-1,2.4c-1.1-.5-2.1-.7-2.9-.7s-1.5.2-2.2.6c-.7.4-1.4,1-2,1.8-.6.8-.9,1.2-.9,1.3v10.9h-2.5v-16.8h2.5v3.4c1.3-2.5,3.1-3.8,5.2-3.8s2.5.3,3.7.9Z"/><path d="m34.8,190.1H9.4v-4.9h10.2v-37.5l-9.6,4.8v-5.6l10.4-5.4h4.8v43.6h9.5v4.9Z"/><path d="m104.8,141c5.1,0,9,2.2,11.8,6.6,2.7,4.4,4.1,10.5,4.1,18.5s-1.3,13.8-4,18.3c-2.7,4.5-6.6,6.8-11.9,6.8s-9-2.2-11.8-6.6c-2.8-4.4-4.1-10.5-4.1-18.5s1.3-13.8,4-18.3c2.7-4.5,6.6-6.8,11.9-6.8Zm0,45.2c3.4,0,5.9-1.6,7.5-4.8,1.6-3.2,2.4-8.3,2.4-15.3s-.8-12.1-2.4-15.3-4.1-4.8-7.5-4.8-5.8,1.6-7.5,4.9c-1.6,3.3-2.5,8.3-2.5,15.2s.8,12,2.4,15.3c1.6,3.2,4.1,4.8,7.5,4.8Zm-.1-25.2c1.4,0,2.6.5,3.6,1.5s1.5,2.2,1.5,3.6-.5,2.8-1.5,3.8c-1,1.1-2.2,1.6-3.6,1.6s-2.6-.5-3.6-1.6-1.5-2.3-1.5-3.8.5-2.7,1.5-3.7c1-1,2.2-1.5,3.6-1.5Z"/><path d="m202.5,190.1h-25.4v-4.9h10.2v-37.5l-9.6,4.8v-5.6l10.4-5.4h4.8v43.6h9.5v4.9Z"/><path d="m272.5,141c5.1,0,9,2.2,11.8,6.6,2.7,4.4,4.1,10.5,4.1,18.5s-1.3,13.8-4,18.3c-2.7,4.5-6.6,6.8-11.9,6.8s-9-2.2-11.8-6.6-4.1-10.5-4.1-18.5,1.3-13.8,4-18.3c2.7-4.5,6.6-6.8,11.9-6.8Zm0,45.2c3.4,0,5.9-1.6,7.5-4.8,1.6-3.2,2.4-8.3,2.4-15.3s-.8-12.1-2.4-15.3c-1.6-3.2-4.1-4.8-7.5-4.8s-5.8,1.6-7.5,4.9c-1.6,3.3-2.5,8.3-2.5,15.2s.8,12,2.4,15.3c1.6,3.2,4.1,4.8,7.5,4.8Zm-.1-25.2c1.4,0,2.6.5,3.6,1.5s1.5,2.2,1.5,3.6-.5,2.8-1.5,3.8-2.2,1.6-3.6,1.6-2.6-.5-3.6-1.6-1.5-2.3-1.5-3.8.5-2.7,1.5-3.7c1-1,2.2-1.5,3.6-1.5Z"/><path class="cls-1" d="m13,255.5v-1.7c1.8.9,3,1.5,3.7,2,.7.5,1.8,1.2,3.1,2.4v-32.7h2.3v32.6c1.6-1.5,3.9-3,6.8-4.4v1.7c-2.1,1.9-3.7,3.5-4.8,4.9s-2,2.8-2.7,4.3h-1c-1.2-2.7-3.6-5.7-7.4-9.1Z"/><path class="cls-1" d="m96.9,255.5v-1.7c1.8.9,3,1.5,3.7,2,.7.5,1.8,1.2,3.1,2.4v-32.7h2.3v32.6c1.6-1.5,3.9-3,6.8-4.4v1.7c-2.1,1.9-3.7,3.5-4.8,4.9s-2,2.8-2.7,4.3h-1c-1.2-2.7-3.6-5.7-7.4-9.1Z"/><path class="cls-1" d="m180.8,255.5v-1.7c1.8.9,3,1.5,3.7,2,.7.5,1.8,1.2,3.1,2.4v-32.7h2.3v32.6c1.6-1.5,3.9-3,6.8-4.4v1.7c-2.1,1.9-3.7,3.5-4.8,4.9s-2,2.8-2.7,4.3h-1c-1.2-2.7-3.6-5.7-7.4-9.1Z"/><path class="cls-1" d="m264.6,255.5v-1.7c1.8.9,3,1.5,3.7,2,.7.5,1.8,1.2,3.1,2.4v-32.7h2.3v32.6c1.6-1.5,3.9-3,6.8-4.4v1.7c-2.1,1.9-3.7,3.5-4.8,4.9s-2,2.8-2.7,4.3h-1c-1.2-2.7-3.6-5.7-7.4-9.1Z"/><path d="m34.8,339.1H9.4v-4.9h10.2v-37.5l-9.6,4.8v-5.6l10.4-5.4h4.8v43.6h9.5v4.9Z"/><path d="m118.7,339.1h-25.4v-4.9h10.2v-37.5l-9.6,4.8v-5.6l10.4-5.4h4.8v43.6h9.5v4.9Z"/><path d="m202.5,339.1h-25.4v-4.9h10.2v-37.5l-9.6,4.8v-5.6l10.4-5.4h4.8v43.6h9.5v4.9Z"/><path d="m272.5,290c5.1,0,9,2.2,11.8,6.6,2.7,4.4,4.1,10.5,4.1,18.5s-1.3,13.8-4,18.3c-2.7,4.5-6.6,6.8-11.9,6.8s-9-2.2-11.8-6.6-4.1-10.5-4.1-18.5,1.3-13.8,4-18.3c2.7-4.5,6.6-6.8,11.9-6.8Zm0,45.2c3.4,0,5.9-1.6,7.5-4.8,1.6-3.2,2.4-8.3,2.4-15.3s-.8-12.1-2.4-15.3c-1.6-3.2-4.1-4.8-7.5-4.8s-5.8,1.6-7.5,4.9c-1.6,3.3-2.5,8.3-2.5,15.2s.8,12,2.4,15.3c1.6,3.2,4.1,4.8,7.5,4.8Zm-.1-25.2c1.4,0,2.6.5,3.6,1.5,1,1,1.5,2.2,1.5,3.6s-.5,2.8-1.5,3.8c-1,1.1-2.2,1.6-3.6,1.6s-2.6-.5-3.6-1.6c-1-1.1-1.5-2.3-1.5-3.8s.5-2.7,1.5-3.7c1-1,2.2-1.5,3.6-1.5Z"/></g></g></g></svg>