<?xml version="1.0" encoding="UTF-8"?><svg id="Layer_2" xmlns="http://www.w3.org/2000/svg" width="530.9" height="381.7" viewBox="0 0 530.9 381.7"><defs><style>.cls-1{fill:#f15a24;}</style></defs><g id="Layer_23"><g id="or"><g id="_1101_and_and_and_and_1010_1000"><path d="m34.8,59.9H9.4v-4.9h10.2V17.5l-9.6,4.8v-5.6l10.4-5.4h4.8v43.6h9.5v4.9Z"/><path d="m118.7,59.9h-25.4v-4.9h10.2V17.5l-9.6,4.8v-5.6l10.4-5.4h4.8v43.6h9.5v4.9Z"/><path d="m188.7,10.7c5.1,0,9,2.2,11.8,6.6,2.7,4.4,4.1,10.5,4.1,18.5s-1.3,13.8-4,18.3c-2.7,4.5-6.6,6.8-11.9,6.8s-9-2.2-11.8-6.6c-2.8-4.4-4.1-10.5-4.1-18.5s1.3-13.8,4-18.3c2.7-4.5,6.6-6.8,11.9-6.8Zm0,45.2c3.4,0,5.9-1.6,7.5-4.8,1.6-3.2,2.4-8.3,2.4-15.3s-.8-12.1-2.4-15.3-4.1-4.8-7.5-4.8-5.8,1.6-7.5,4.9c-1.6,3.3-2.5,8.3-2.5,15.2s.8,12,2.4,15.3c1.6,3.2,4.1,4.8,7.5,4.8Zm-.1-25.2c1.4,0,2.6.5,3.6,1.5s1.5,2.2,1.5,3.6-.5,2.8-1.5,3.8c-1,1.1-2.2,1.6-3.6,1.6s-2.6-.5-3.6-1.6-1.5-2.3-1.5-3.8.5-2.7,1.5-3.7c1-1,2.2-1.5,3.6-1.5Z"/><path d="m272.5,10.7c5.1,0,9,2.2,11.8,6.6,2.7,4.4,4.1,10.5,4.1,18.5s-1.3,13.8-4,18.3c-2.7,4.5-6.6,6.8-11.9,6.8s-9-2.2-11.8-6.6-4.1-10.5-4.1-18.5,1.3-13.8,4-18.3c2.7-4.5,6.6-6.8,11.9-6.8Zm0,45.2c3.4,0,5.9-1.6,7.5-4.8,1.6-3.2,2.4-8.3,2.4-15.3s-.8-12.1-2.4-15.3c-1.6-3.2-4.1-4.8-7.5-4.8s-5.8,1.6-7.5,4.9c-1.6,3.3-2.5,8.3-2.5,15.2s.8,12,2.4,15.3c1.6,3.2,4.1,4.8,7.5,4.8Zm-.1-25.2c1.4,0,2.6.5,3.6,1.5s1.5,2.2,1.5,3.6-.5,2.8-1.5,3.8-2.2,1.6-3.6,1.6-2.6-.5-3.6-1.6-1.5-2.3-1.5-3.8.5-2.7,1.5-3.7c1-1,2.2-1.5,3.6-1.5Z"/><path class="cls-1" d="m9.9,98.7c2.3,0,4.1.8,5.5,2.4s2,3.7,2,6.4-.7,4.8-2,6.4-3.2,2.4-5.5,2.4-4.2-.8-5.5-2.4c-1.4-1.6-2-3.8-2-6.4s.7-4.8,2-6.4c1.4-1.6,3.2-2.4,5.5-2.4Zm0,15.4c1.5,0,2.7-.6,3.6-1.9s1.3-2.9,1.3-4.7-.4-3.5-1.3-4.8-2.1-1.9-3.6-1.9-2.8.6-3.6,1.8c-.9,1.2-1.3,2.8-1.3,4.8s.4,3.4,1.3,4.7c.9,1.3,2.1,1.9,3.6,1.9Z"/><path class="cls-1" d="m37.9,99.5l-1,2.4c-1.1-.5-2.1-.7-2.9-.7s-1.5.2-2.2.6c-.7.4-1.4,1-2,1.8-.6.8-.9,1.2-.9,1.3v10.9h-2.5v-16.8h2.5v3.4c1.3-2.5,3.1-3.8,5.2-3.8s2.5.3,3.7.9Z"/><path class="cls-1" d="m94.7,98.7c2.3,0,4.1.8,5.5,2.4s2,3.7,2,6.4-.7,4.8-2,6.4-3.2,2.4-5.5,2.4-4.2-.8-5.5-2.4c-1.4-1.6-2-3.8-2-6.4s.7-4.8,2-6.4c1.4-1.6,3.2-2.4,5.5-2.4Zm0,15.4c1.5,0,2.7-.6,3.6-1.9s1.3-2.9,1.3-4.7-.4-3.5-1.3-4.8-2.1-1.9-3.6-1.9-2.8.6-3.6,1.8c-.9,1.2-1.3,2.8-1.3,4.8s.4,3.4,1.3,4.7c.9,1.3,2.1,1.9,3.6,1.9Z"/><path class="cls-1" d="m122.6,99.5l-1,2.4c-1.1-.5-2.1-.7-2.9-.7s-1.5.2-2.2.6c-.7.4-1.4,1-2,1.8-.6.8-.9,1.2-.9,1.3v10.9h-2.5v-16.8h2.5v3.4c1.3-2.5,3.1-3.8,5.2-3.8s2.5.3,3.7.9Z"/><path class="cls-1" d="m179.4,98.7c2.3,0,4.1.8,5.5,2.4s2,3.7,2,6.4-.7,4.8-2,6.4-3.2,2.4-5.5,2.4-4.2-.8-5.5-2.4c-1.4-1.6-2-3.8-2-6.4s.7-4.8,2-6.4c1.4-1.6,3.2-2.4,5.5-2.4Zm0,15.4c1.5,0,2.7-.6,3.6-1.9s1.3-2.9,1.3-4.7-.4-3.5-1.3-4.8-2.1-1.9-3.6-1.9-2.8.6-3.6,1.8c-.9,1.2-1.3,2.8-1.3,4.8s.4,3.4,1.3,4.7c.9,1.3,2.1,1.9,3.6,1.9Z"/><path class="cls-1" d="m207.4,99.5l-1,2.4c-1.1-.5-2.1-.7-2.9-.7s-1.5.2-2.2.6c-.7.4-1.4,1-2,1.8-.6.8-.9,1.2-.9,1.3v10.9h-2.5v-16.8h2.5v3.4c1.3-2.5,3.1-3.8,5.2-3.8s2.5.3,3.7.9Z"/><path class="cls-1" d="m264.2,98.7c2.3,0,4.1.8,5.5,2.4s2,3.7,2,6.4-.7,4.8-2,6.4-3.2,2.4-5.5,2.4-4.2-.8-5.5-2.4c-1.4-1.6-2-3.8-2-6.4s.7-4.8,2-6.4c1.4-1.6,3.2-2.4,5.5-2.4Zm0,15.4c1.5,0,2.7-.6,3.6-1.9s1.3-2.9,1.3-4.7-.4-3.5-1.3-4.8-2.1-1.9-3.6-1.9-2.8.6-3.6,1.8c-.9,1.2-1.3,2.8-1.3,4.8s.4,3.4,1.3,4.7c.9,1.3,2.1,1.9,3.6,1.9Z"/><path class="cls-1" d="m292.1,99.5l-1,2.4c-1.1-.5-2.1-.7-2.9-.7s-1.5.2-2.2.6c-.7.4-1.4,1-2,1.8-.6.8-.9,1.2-.9,1.3v10.9h-2.5v-16.8h2.5v3.4c1.3-2.5,3.1-3.8,5.2-3.8s2.5.3,3.7.9Z"/><path d="m34.8,190.9H9.4v-4.9h10.2v-37.5l-9.6,4.8v-5.6l10.4-5.4h4.8v43.6h9.5v4.9Z"/><path d="m104.8,141.7c5.1,0,9,2.2,11.8,6.6,2.7,4.4,4.1,10.5,4.1,18.5s-1.3,13.8-4,18.3c-2.7,4.5-6.6,6.8-11.9,6.8s-9-2.2-11.8-6.6c-2.8-4.4-4.1-10.5-4.1-18.5s1.3-13.8,4-18.3c2.7-4.5,6.6-6.8,11.9-6.8Zm0,45.2c3.4,0,5.9-1.6,7.5-4.8,1.6-3.2,2.4-8.3,2.4-15.3s-.8-12.1-2.4-15.3-4.1-4.8-7.5-4.8-5.8,1.6-7.5,4.9c-1.6,3.3-2.5,8.3-2.5,15.2s.8,12,2.4,15.3c1.6,3.2,4.1,4.8,7.5,4.8Zm-.1-25.2c1.4,0,2.6.5,3.6,1.5s1.5,2.2,1.5,3.6-.5,2.8-1.5,3.8c-1,1.1-2.2,1.6-3.6,1.6s-2.6-.5-3.6-1.6-1.5-2.3-1.5-3.8.5-2.7,1.5-3.7c1-1,2.2-1.5,3.6-1.5Z"/><path d="m202.5,190.9h-25.4v-4.9h10.2v-37.5l-9.6,4.8v-5.6l10.4-5.4h4.8v43.6h9.5v4.9Z"/><path d="m272.5,141.7c5.1,0,9,2.2,11.8,6.6,2.7,4.4,4.1,10.5,4.1,18.5s-1.3,13.8-4,18.3c-2.7,4.5-6.6,6.8-11.9,6.8s-9-2.2-11.8-6.6-4.1-10.5-4.1-18.5,1.3-13.8,4-18.3c2.7-4.5,6.6-6.8,11.9-6.8Zm0,45.2c3.4,0,5.9-1.6,7.5-4.8,1.6-3.2,2.4-8.3,2.4-15.3s-.8-12.1-2.4-15.3c-1.6-3.2-4.1-4.8-7.5-4.8s-5.8,1.6-7.5,4.9c-1.6,3.3-2.5,8.3-2.5,15.2s.8,12,2.4,15.3c1.6,3.2,4.1,4.8,7.5,4.8Zm-.1-25.2c1.4,0,2.6.5,3.6,1.5s1.5,2.2,1.5,3.6-.5,2.8-1.5,3.8-2.2,1.6-3.6,1.6-2.6-.5-3.6-1.6-1.5-2.3-1.5-3.8.5-2.7,1.5-3.7c1-1,2.2-1.5,3.6-1.5Z"/><path class="cls-1" d="m13,256.2v-1.7c1.8.9,3,1.5,3.7,2,.7.5,1.8,1.2,3.1,2.4v-32.7h2.3v32.6c1.6-1.5,3.9-3,6.8-4.4v1.7c-2.1,1.9-3.7,3.5-4.8,4.9s-2,2.8-2.7,4.3h-1c-1.2-2.7-3.6-5.7-7.4-9.1Z"/><path class="cls-1" d="m96.9,256.2v-1.7c1.8.9,3,1.5,3.7,2,.7.5,1.8,1.2,3.1,2.4v-32.7h2.3v32.6c1.6-1.5,3.9-3,6.8-4.4v1.7c-2.1,1.9-3.7,3.5-4.8,4.9s-2,2.8-2.7,4.3h-1c-1.2-2.7-3.6-5.7-7.4-9.1Z"/><path class="cls-1" d="m180.8,256.2v-1.7c1.8.9,3,1.5,3.7,2,.7.5,1.8,1.2,3.1,2.4v-32.7h2.3v32.6c1.6-1.5,3.9-3,6.8-4.4v1.7c-2.1,1.9-3.7,3.5-4.8,4.9s-2,2.8-2.7,4.3h-1c-1.2-2.7-3.6-5.7-7.4-9.1Z"/><path class="cls-1" d="m264.6,256.2v-1.7c1.8.9,3,1.5,3.7,2,.7.5,1.8,1.2,3.1,2.4v-32.7h2.3v32.6c1.6-1.5,3.9-3,6.8-4.4v1.7c-2.1,1.9-3.7,3.5-4.8,4.9s-2,2.8-2.7,4.3h-1c-1.2-2.7-3.6-5.7-7.4-9.1Z"/><path d="m34.8,339.9H9.4v-4.9h10.2v-37.5l-9.6,4.8v-5.6l10.4-5.4h4.8v43.6h9.5v4.9Z"/><path d="m118.7,339.9h-25.4v-4.9h10.2v-37.5l-9.6,4.8v-5.6l10.4-5.4h4.8v43.6h9.5v4.9Z"/><path d="m202.5,339.9h-25.4v-4.9h10.2v-37.5l-9.6,4.8v-5.6l10.4-5.4h4.8v43.6h9.5v4.9Z"/><path d="m272.5,290.7c5.1,0,9,2.2,11.8,6.6,2.7,4.4,4.1,10.5,4.1,18.5s-1.3,13.8-4,18.3c-2.7,4.5-6.6,6.8-11.9,6.8s-9-2.2-11.8-6.6-4.1-10.5-4.1-18.5,1.3-13.8,4-18.3c2.7-4.5,6.6-6.8,11.9-6.8Zm0,45.2c3.4,0,5.9-1.6,7.5-4.8,1.6-3.2,2.4-8.3,2.4-15.3s-.8-12.1-2.4-15.3c-1.6-3.2-4.1-4.8-7.5-4.8s-5.8,1.6-7.5,4.9c-1.6,3.3-2.5,8.3-2.5,15.2s.8,12,2.4,15.3c1.6,3.2,4.1,4.8,7.5,4.8Zm-.1-25.2c1.4,0,2.6.5,3.6,1.5,1,1,1.5,2.2,1.5,3.6s-.5,2.8-1.5,3.8c-1,1.1-2.2,1.6-3.6,1.6s-2.6-.5-3.6-1.6c-1-1.1-1.5-2.3-1.5-3.8s.5-2.7,1.5-3.7c1-1,2.2-1.5,3.6-1.5Z"/></g><g id="Layer_27"><g id="_1101_and_and_and_and_1010_1000-2"><path d="m452.9,59.1h-25.4v-4.9h10.2V16.8l-9.6,4.8v-5.6l10.4-5.4h4.8v43.6h9.5v4.9Z"/><path d="m507.6,59.1h-26.5v-4.1c6.7-7.5,11.1-12.5,13.1-15.1,2-2.6,3.6-5.2,4.9-8,1.3-2.8,1.9-5.6,1.9-8.4s-.8-4.8-2.4-6.4c-1.6-1.5-3.9-2.3-6.9-2.3s-5.3.7-9.1,2.1l-.8-4.8c3.4-1.5,7-2.2,10.8-2.2s7.8,1.2,10.4,3.6,3.9,5.7,3.9,9.7-.7,5.8-2,8.6c-1.4,2.8-3.1,5.6-5.2,8.2-2.1,2.6-6.2,7.3-12.4,14.1h20.3v4.9Z"/><path class="cls-1" d="m468.8,124.1h-3.6v-42h3.6v42Z"/><path d="m453,190.1h-25.4v-4.9h10.2v-37.5l-9.6,4.8v-5.6l10.4-5.4h4.8v43.6h9.5v4.9Z"/><path d="m495.1,141c5.1,0,9,2.2,11.8,6.6,2.7,4.4,4.1,10.5,4.1,18.5s-1.3,13.8-4,18.3c-2.7,4.5-6.6,6.8-11.9,6.8s-9-2.2-11.8-6.6c-2.8-4.4-4.1-10.5-4.1-18.5s1.3-13.8,4-18.3c2.7-4.5,6.6-6.8,11.9-6.8Zm0,45.2c3.4,0,5.9-1.6,7.5-4.8,1.6-3.2,2.4-8.3,2.4-15.3s-.8-12.1-2.4-15.3-4.1-4.8-7.5-4.8-5.8,1.6-7.5,4.9c-1.6,3.3-2.5,8.3-2.5,15.2s.8,12,2.4,15.3c1.6,3.2,4.1,4.8,7.5,4.8Zm-.1-25.2c1.4,0,2.6.5,3.6,1.5s1.5,2.2,1.5,3.6-.5,2.8-1.5,3.8c-1,1.1-2.2,1.6-3.6,1.6s-2.6-.5-3.6-1.6-1.5-2.3-1.5-3.8.5-2.7,1.5-3.7c1-1,2.2-1.5,3.6-1.5Z"/><path class="cls-1" d="m459.3,255.5v-1.7c1.8.9,3,1.5,3.7,2,.7.5,1.8,1.2,3.1,2.4v-32.7h2.3v32.6c1.6-1.5,3.9-3,6.8-4.4v1.7c-2.1,1.9-3.7,3.5-4.8,4.9s-2,2.8-2.7,4.3h-1c-1.2-2.7-3.6-5.7-7.4-9.1Z"/><path d="m453.1,339.1h-25.4v-4.9h10.2v-37.5l-9.6,4.8v-5.6l10.4-5.4h4.8v43.6h9.5v4.9Z"/><path d="m511,328h-5.9v11.1h-5.6v-11.1h-21v-4.3l19-32.8h7.6v32.2h5.9v4.9Zm-11.6-4.9v-26.7l-15.3,26.7h15.3Z"/></g><path class="cls-1" d="m385.9,308.3h-32.8v-4.5h32.8v4.5Zm0,13.9h-32.8v-4.5h32.8v4.5Z"/></g></g></g></svg>