<?xml version="1.0" encoding="UTF-8"?><svg xmlns="http://www.w3.org/2000/svg" width="679.7" height="388.3" xmlns:xlink="http://www.w3.org/1999/xlink" viewBox="0 0 679.7 388.3"><defs><style>.cls-1{fill:url(#linear-gradient-3);}.cls-1,.cls-2,.cls-3,.cls-4,.cls-5,.cls-6,.cls-7,.cls-8,.cls-9{mix-blend-mode:multiply;}.cls-1,.cls-2,.cls-3,.cls-4,.cls-5,.cls-10,.cls-8{fill-rule:evenodd;}.cls-2{fill:url(#linear-gradient-6);}.cls-3{fill:url(#linear-gradient-5);}.cls-4{fill:url(#linear-gradient-2);}.cls-4,.cls-5{opacity:.3;}.cls-5{fill:url(#linear-gradient-4);}.cls-11{filter:url(#luminosity-noclip-3);}.cls-12{filter:url(#luminosity-noclip-5);}.cls-13{mask:url(#mask);}.cls-14,.cls-15,.cls-16,.cls-17{stroke-miterlimit:10;}.cls-14,.cls-16{stroke:#272525;}.cls-18{filter:url(#luminosity-noclip);}.cls-19{fill:#f3f3f3;}.cls-20{fill:#f6f6f6;}.cls-21,.cls-10{fill:#f7f7f7;}.cls-22{fill:#f7f5f5;}.cls-23{fill:#f2f2f2;}.cls-24{fill:#f15a24;}.cls-25{fill:#eee;}.cls-26{fill:#ebebeb;}.cls-27{fill:#f0f0f0;}.cls-28{fill:#eaeaea;}.cls-29{fill:#e9e9e9;}.cls-30{fill:#eaa746;}.cls-31{fill:#e6e6e6;}.cls-32{fill:#f4f4f4;}.cls-33{fill:#f5f5f5;}.cls-34{fill:#e7e7e7;}.cls-35{fill:#ededed;}.cls-36{fill:#e55e5e;}.cls-37{fill:#e8e8e8;}.cls-38{fill:#f1f1f1;}.cls-39{fill:#ececec;}.cls-40{fill:#e5e5e5;}.cls-41{fill:#efefef;}.cls-42,.cls-16{fill:#662d91;}.cls-43{fill:#a1a1a1;}.cls-44{fill:#9da1a6;}.cls-45{fill:#c1c9d9;}.cls-46{fill:#996a28;}.cls-47{fill:#a8c05f;}.cls-48{fill:#d4145a;}.cls-49{fill:#d5dbe6;}.cls-50,.cls-7{fill:#23cbde;}.cls-51{fill:#1e5d87;}.cls-52,.cls-6{fill:#23252f;}.cls-53{fill:#22b573;}.cls-54{fill:#6c8528;}.cls-55{fill:#292b37;}.cls-56{fill:#5592ba;}.cls-57{fill:#383c48;}.cls-58{fill:#4c84a6;}.cls-59{fill:#851919;}.cls-60{fill:#505661;}.cls-15{stroke-width:5px;}.cls-15,.cls-17{fill:none;stroke:#f15a24;}.cls-6,.cls-7,.cls-9{opacity:.3;}.cls-8{fill:url(#linear-gradient);}.cls-61{isolation:isolate;}.cls-62{mask:url(#mask-3);}.cls-63{mask:url(#mask-2);}.cls-64{mask:url(#mask-5);}.cls-65{mask:url(#mask-4);}.cls-66{mask:url(#mask-1);}</style><filter id="luminosity-noclip" x="122.5" y="210.1" width="60" height="76.6" color-interpolation-filters="sRGB" filterUnits="userSpaceOnUse"><feFlood flood-color="#fff" result="bg"/><feBlend in="SourceGraphic" in2="bg"/></filter><filter id="luminosity-noclip-2" x="122.5" y="-8351.7" width="60" height="32766" color-interpolation-filters="sRGB" filterUnits="userSpaceOnUse"><feFlood flood-color="#fff" result="bg"/><feBlend in="SourceGraphic" in2="bg"/></filter><mask id="mask-1" x="122.5" y="-8351.7" width="60" height="32766" maskUnits="userSpaceOnUse"/><linearGradient id="linear-gradient" x1="152.5" y1="209.1" x2="152.5" y2="274.6" gradientUnits="userSpaceOnUse"><stop offset="0" stop-color="#999"/><stop offset="0" stop-color="#888"/><stop offset=".1" stop-color="#646464"/><stop offset=".2" stop-color="#444"/><stop offset=".3" stop-color="#2b2b2b"/><stop offset=".4" stop-color="#181818"/><stop offset=".6" stop-color="#0a0a0a"/><stop offset=".7" stop-color="#020202"/><stop offset="1" stop-color="#000"/></linearGradient><mask id="mask" x="122.5" y="210.1" width="60" height="76.6" maskUnits="userSpaceOnUse"><g class="cls-18"><g class="cls-66"><path class="cls-8" d="m122.5,247.2c3.4-1,60,39.5,60,39.5v-76.6l-60,37.1Z"/></g></g></mask><linearGradient id="linear-gradient-2" x1="152.5" y1="209.1" x2="152.5" y2="274.6" gradientUnits="userSpaceOnUse"><stop offset="0" stop-color="#000"/><stop offset="0" stop-color="#1b1b1b"/><stop offset="0" stop-color="#4a4a4a"/><stop offset=".2" stop-color="#757575"/><stop offset=".2" stop-color="#9a9a9a"/><stop offset=".3" stop-color="#b9b9b9"/><stop offset=".4" stop-color="#d3d3d3"/><stop offset=".5" stop-color="#e6e6e6"/><stop offset=".6" stop-color="#f4f4f4"/><stop offset=".8" stop-color="#fcfcfc"/><stop offset="1" stop-color="#fff"/></linearGradient><filter id="luminosity-noclip-3" x="62.5" y="210.1" width="61.8" height="76.6" color-interpolation-filters="sRGB" filterUnits="userSpaceOnUse"><feFlood flood-color="#fff" result="bg"/><feBlend in="SourceGraphic" in2="bg"/></filter><filter id="luminosity-noclip-4" x="62.5" y="-8351.7" width="61.8" height="32766" color-interpolation-filters="sRGB" filterUnits="userSpaceOnUse"><feFlood flood-color="#fff" result="bg"/><feBlend in="SourceGraphic" in2="bg"/></filter><mask id="mask-3" x="62.5" y="-8351.7" width="61.8" height="32766" maskUnits="userSpaceOnUse"/><linearGradient id="linear-gradient-3" x1="-1509.8" y1="209.1" x2="-1509.8" y2="274.6" gradientTransform="translate(-1416.4) rotate(-180) scale(1 -1)" gradientUnits="userSpaceOnUse"><stop offset="0" stop-color="#999"/><stop offset="0" stop-color="#7d7d7d"/><stop offset=".1" stop-color="#5c5c5c"/><stop offset=".2" stop-color="#3f3f3f"/><stop offset=".3" stop-color="#282828"/><stop offset=".4" stop-color="#161616"/><stop offset=".5" stop-color="#090909"/><stop offset=".6" stop-color="#020202"/><stop offset="1" stop-color="#000"/></linearGradient><mask id="mask-2" x="62.5" y="210.1" width="61.8" height="76.6" maskUnits="userSpaceOnUse"><g class="cls-11"><g class="cls-62"><path class="cls-1" d="m124.3,246.9c-3.4-1-61.8,39.7-61.8,39.7v-76.6l61.8,36.9Z"/></g></g></mask><linearGradient id="linear-gradient-4" x1="-1509.8" y1="209.1" x2="-1509.8" y2="274.6" gradientTransform="translate(-1416.4) rotate(-180) scale(1 -1)" gradientUnits="userSpaceOnUse"><stop offset="0" stop-color="#000"/><stop offset="0" stop-color="#2c2c2c"/><stop offset="0" stop-color="#585858"/><stop offset=".2" stop-color="gray"/><stop offset=".2" stop-color="#a2a2a2"/><stop offset=".3" stop-color="#bfbfbf"/><stop offset=".4" stop-color="#d6d6d6"/><stop offset=".5" stop-color="#e8e8e8"/><stop offset=".6" stop-color="#f5f5f5"/><stop offset=".7" stop-color="#fcfcfc"/><stop offset="1" stop-color="#fff"/></linearGradient><filter id="luminosity-noclip-5" x="62.5" y="210.1" width="120" height="40.5" color-interpolation-filters="sRGB" filterUnits="userSpaceOnUse"><feFlood flood-color="#fff" result="bg"/><feBlend in="SourceGraphic" in2="bg"/></filter><filter id="luminosity-noclip-6" x="62.5" y="-8351.7" width="120" height="32766" color-interpolation-filters="sRGB" filterUnits="userSpaceOnUse"><feFlood flood-color="#fff" result="bg"/><feBlend in="SourceGraphic" in2="bg"/></filter><mask id="mask-5" x="62.5" y="-8351.7" width="120" height="32766" maskUnits="userSpaceOnUse"/><linearGradient id="linear-gradient-5" x1="122.5" y1="278.5" x2="122.5" y2="182.7" gradientUnits="userSpaceOnUse"><stop offset="0" stop-color="#000"/><stop offset=".1" stop-color="#040404"/><stop offset=".2" stop-color="#131313"/><stop offset=".4" stop-color="#2a2a2a"/><stop offset=".5" stop-color="#4b4b4b"/><stop offset=".6" stop-color="#666"/></linearGradient><mask id="mask-4" x="62.5" y="210.1" width="120" height="40.5" maskUnits="userSpaceOnUse"><g class="cls-12"><g class="cls-64"><path class="cls-3" d="m62.5,210.1l56.7,39.4c2,1.4,4.6,1.4,6.7,0l56.7-39.4H62.5Z"/></g></g></mask><linearGradient id="linear-gradient-6" x1="122.5" y1="278.5" x2="122.5" y2="182.7" gradientUnits="userSpaceOnUse"><stop offset="0" stop-color="#fff"/><stop offset="0" stop-color="#fafafa"/><stop offset=".1" stop-color="#ebebeb"/><stop offset=".2" stop-color="#d4d4d4"/><stop offset=".3" stop-color="#b2b2b2"/><stop offset=".4" stop-color="#888"/><stop offset=".5" stop-color="#535353"/><stop offset=".6" stop-color="#171717"/><stop offset=".6" stop-color="#000"/></linearGradient></defs><g class="cls-61"><g id="caables"><path class="cls-42" d="m538.5,241.2l-21,12.5,49,32,27.5,17.5.5-.9-75-48.7,15-9,5-3,.9-.5,52.3-30.2,27.2,15.8.5-.9-27.7-16.1-53.3,30.8-77.5-45,53.3-30.8-26.5-15.4,52.3-30.2,52,30,.5-.9-51.5-29.7,26.7-15.4-26.5-15.4,61.2-35.4-.5-.9-61.7,35.6-71.8-41.7-.5.9,97.8,56.8-80,46.2,26.5,15.4-52.3,30.2-.6-.4c-.2.3-.5.5-.8.7l.4.2-55.3,31.9c.2.3.3.6.4.9l55.9-32.3,74.7,43.4"/><polygon class="cls-16" points="494.8 56 496.1 59 497.4 58.2 514.1 67.9 515.3 67.2 498.7 57.5 499.9 56.8 494.8 56"/><polygon class="cls-16" points="422.9 210.7 421.6 213.7 420.3 213 403.6 222.7 402.4 222 419.1 212.3 417.8 211.5 422.9 210.7"/><polygon class="cls-16" points="617.8 218.6 616.4 215.7 615.2 216.4 598.5 206.8 597.2 207.5 613.9 217.1 612.7 217.8 617.8 218.6"/><polygon class="cls-16" points="589.3 140.1 587.9 137.1 586.6 137.9 570 128.2 568.7 128.9 585.4 138.6 584.1 139.3 589.3 140.1"/><polygon class="cls-16" points="582.1 301 580.7 298 579.4 298.8 562.7 289.1 561.5 289.8 578.2 299.5 576.9 300.2 582.1 301"/><polygon class="cls-16" points="598.2 61.9 596.8 64.9 595.6 64.2 578.9 73.8 577.6 73.1 594.3 63.5 593 62.7 598.2 61.9"/></g><g id="devices"><path class="cls-55" d="m608.4,254.7v3.1s40.8-23.7,40.8-23.7c.6-.3,1.2-.9,1.2-1.6v-3.1c0,.1-42,25.4-42,25.4Z"/><path class="cls-52" d="m583.6,242.7v3.1c0,.6.4,1.2,1.1,1.6l18.2,10.5c1.4.8,3.3.8,4.8.3.3,0,.6-.2.8-.4v-3.1c-.2.1-24.9-12-24.9-12Z"/><path class="cls-57" d="m635.7,240.3h0c0-.2.2-.5.4-.7l3.5-2c.2-.1.4,0,.4.2h0c0,.2-.2.5-.4.7l-3.5,2c-.2.1-.4,0-.4-.2Z"/><path class="cls-57" d="m630.7,243.3h0c0-.2.2-.5.4-.7l3.5-2c.2-.1.4,0,.4.2h0c0,.2-.2.5-.4.7l-3.5,2c-.2.1-.4,0-.4-.2Z"/><path class="cls-57" d="m642.5,236.5v-.2c0-.2.1-.4.3-.5l2.3-1.3c.2-.1.3,0,.3.2v.2c0,.2-.1.4-.3.5l-2.3,1.3c-.2.1-.3,0-.3-.2Z"/><path class="cls-57" d="m649.3,227.7c1.5.9,1.5,2.3,0,3.2l-40.8,23.7c-1.6.9-4.1.9-5.6,0l-18.2-10.5c-1.5-.9-1.5-2.3,0-3.2l40.8-23.7c1.6-.9,4.1-.9,5.6,0l18.2,10.5Z"/><path class="cls-55" d="m600.9,248.7c.4.2.4.6,0,.8l-1.4.8c-.4.2-.9.2-1.3,0l-5.8-3.3c-.4-.2-.4-.6,0-.8l1.4-.8c.4-.2,1-.2,1.3,0l5.8,3.3Z"/><polygon class="cls-50" points="644.7 231.7 609.6 252.1 589.3 240.3 624.4 219.9 644.7 231.7"/><path class="cls-55" d="m641.6,225.8c.2.1.2.4,0,.5-.2.1-.6.1-.9,0l-7.1-4.1c-.2-.1-.2-.4,0-.5.2-.1.6-.1.9,0l7.1,4.1Z"/><path class="cls-55" d="m645.5,227.8c.4.2.4.6,0,.8-.4.2-1,.2-1.4,0-.4-.2-.4-.6,0-.8.4-.2,1-.2,1.4,0Z"/><g class="cls-9"><polygon class="cls-7" points="644.7 231.7 609.6 252.1 589.3 240.3 618.8 235.7 644.7 231.7"/></g><path class="cls-43" d="m461.7,58l-1.2-.2-13.1,7.2v1.2s0,0,.1,0l14.1-8.2Z"/><path class="cls-44" d="m446.3,65.6l-22.9-12.7v.4c0,.3.2.6.6.8l20.9,12.1c.7.4,1.8.4,2.6,0v-1.2l-1.1.6Z"/><path class="cls-22" d="m424,53.6l20.9,12.1c.7.4,1.9.4,2.7,0l14.1-8.2-23.6-13.7-14.1,8.2c-.7.4-.7,1.1,0,1.6Z"/><path class="cls-22" d="m458,7.2c-.3-.2-.7-.1-1.1.1h0c-13.9,5.6-24.9,12.8-24.9,17.3l35.7,20.7c0-.9.6-1.7,1.5-2.5,7.4-6.5,24.5-14.1,24.5-14.1,0,0,.8-.2,1.1,0l-36.7-21.4Z"/><path class="cls-57" d="m468.2,61.4l-6.5-3.8-23.6-13.7-5.6-3.2c-.3-.2-.4-.5-.4-.9v-15.2s6,3.5,6,3.5l29.6,17.2v3.7s0,11.4,0,11.4c0,0,0,0,0,.1,0,0,0,0,0,.1,0,0,0,0,0,0,0,0,0,0,0,0,0,0,0,0,0,.1,0,0,0,0,0,0,0,0,0,0,0,0,0,0,0,0,0,0,0,0,0,.1.1.2,0,0,0,0,0,0,0,0,0,0,.1,0Z"/><path class="cls-45" d="m495.2,44.7c0,.9-.7,2.1-1.5,2.5l-24.5,14.1c-.4.2-.8.3-1.1,0,0,0,0,0-.1,0,0,0,0,0,0,0,0,0,0,0-.1-.2,0,0,0,0,0,0,0,0,0,0,0,0,0,0,0,0,0,0,0,0,0,0,0-.1,0,0,0,0,0,0,0,0,0,0,0,0,0,0,0,0,0-.1,0,0,0,0,0-.1v-11.4s0-3.7,0-3.7c0-.9.6-1.7,1.5-2.5,7.4-6.5,15.6-11.2,24.5-14.1.9-.4,1.5,0,1.5.8v15.2Z"/><path class="cls-49" d="m469.3,59.5v-14.2c0-.5.3-1.1,1.1-1.9,6.7-5.9,14.4-10.3,22.8-13.1,0,0,.5-.2.5.1v14.2c0,.6-.4,1.5-1,1.8l-23,13.3c-.2,0-.4,0-.4-.2Z"/><path class="cls-43" d="m482.2,27.9c-5.1,2.2-12,6.6-15.3,9.5-1.4,1.2-3.3,1.3-4.8.4l-22.4-13c-.9-.5-1.1-1.7-.5-2.5,2.3-2.7,8.5-7.2,16.1-10.5,1-.4,2.2-.4,3.1.2l23.9,13.9c.8.5.7,1.7-.1,2Z"/><path class="cls-44" d="m468.2,61.4s0,0-.1,0c0,0,0,0,0,0,0,0,0,0-.1-.2,0,0,0,0,0,0,0,0,0,0,0,0,0,0,0,0,0,0,0,0,0,0,0-.1,0,0,0,0,0,0,0,0,0,0,0,0,0,0,0,0,0-.1,0,0,0,0,0-.1v-15.2s-35.7-20.7-35.7-20.7v15.2c0,.5.2.8.5.9l5.6,3.2v-3.3c0-.5.6-.8,1-.6l21.7,12.5c.5.3.9.9.9,1.5v3.6l6.5,3.8Z"/><path class="cls-43" d="m482.4,30.9l-1.2-.7c-.6-.4-1.7-.4-2.3,0l-5.7,3.3c-.6.4-.6,1,0,1.3l1.2.7c.6.4,1.7.4,2.3,0l5.7-3.3c.6-.4.6-1,0-1.3Z"/><path class="cls-50" d="m476.5,34.5c.8,0,1.5-.4,1.5-.9s-.7-.9-1.5-.9-1.5.4-1.5.9.7.9,1.5.9Z"/><path class="cls-22" d="m476.4,34.2c.3,0,.5,0,.7-.2.4-.2.4-.6,0-.8-.3-.2-.8-.2-1.2,0-.2.1-.4.3-.4.4,0,0,.2.1.3,0h0s0,0,0,0c0,0,0-.2.2-.2.2-.1.6-.1.8,0,.2.1.2.3,0,.5-.1,0-.3.1-.4,0,0,0-.1,0-.1,0h0c-.1,0,0,.2.1.2Z"/><path class="cls-22" d="m476.5,33.6h0c0,0-.2,0-.3,0l-.4.2c0,0,0,.1,0,.2h0c0,0,.2,0,.3,0l.4-.2c0,0,0-.1,0-.2Z"/><path class="cls-47" d="m481.8,31.6l-1.8-1.1c-.2-.1-.6-.1-.8,0h0c-.2.1-.2.3,0,.5l1.8,1.1c.2.1.6.1.8,0h0c.2-.1.2-.3,0-.5Z"/><path class="cls-36" d="m480.3,32.6l-1.8-1.1c-.2-.1-.6-.1-.8,0h0c-.2.1-.2.3,0,.5l1.8,1.1c.2.1.6.1.8,0h0c.2-.1.2-.3,0-.5Z"/><path class="cls-22" d="m462,54.9h-.3c-5.7,2.7-5.7,5.2-5.7,6.1h.3c0,.1,5.7-6.1,5.7-6.1Z"/><path class="cls-43" d="m462,54.9c-5.7,2.9-5.7,5.3-5.7,6.3l5.7-3.3v-2.9Z"/><path class="cls-22" d="m438.4,41.2l-.3-.2c-5.7,2.9-5.7,5.3-5.7,6.3h.3c0,.1,5.7-6.1,5.7-6.1Z"/><path class="cls-43" d="m438.4,41.2c-5.7,2.9-5.7,5.3-5.7,6.2l5.7-3.3v-2.9Z"/><path class="cls-57" d="m480.6,25.8l-22-12.8c-.7-.4-1.5-.5-2.2-.4-.2,0-.4.1-.6.2-7,3.1-12.7,7.2-14.8,9.7-.3.4-.4.8-.3,1.2l36.9,5.4c1-.5,2-1,2.9-1.4.8-.3.8-1.4.1-1.9Z"/><path class="cls-49" d="m477.5,29.1c-4.1,2.2-8.7,5.2-11.2,7.3-1.2,1.1-3,1.2-4.5.4l-20.5-11.9c-.4-.2-.7-.7-.7-1.1l14.1-6.1c1-.4,2.2-.4,3.2.2l19.6,11.3Z"/><path class="cls-43" d="m470.4,28l-9.4,5.3c-.1,0-.4,0-.5,0h0c-.1,0-.1-.2,0-.3l9.4-5.3c.1,0,.4,0,.5,0h0c.1,0,.1.2,0,.3Z"/><path class="cls-43" d="m466.3,25.6l-9.6,5.3c-.1,0-.4,0-.5,0h0c-.1,0-.1-.2,0-.3l9.6-5.3c.1,0,.4,0,.5,0h0c.1,0,.1.2,0,.3Z"/><path class="cls-43" d="m462.3,23.2l-9.8,5.3c-.1,0-.4,0-.5,0h0c-.1,0-.1-.2,0-.3l9.8-5.3c.1,0,.4,0,.5,0h0c.1,0,.1.2,0,.3Z"/><path class="cls-43" d="m458.1,20.7l-9.9,5.2c-.2,0-.4,0-.5,0h0c-.1,0-.1-.2,0-.3l10-5.2c.1,0,.4,0,.5,0h0c.1,0,.1.2,0,.3Z"/><path class="cls-57" d="m645.4,24.1h0s0,0,0,0c-.2-.2-.4-.4-.6-.6L604.4.1c-.2-.1-.4-.2-.5-.1h0s0,0,0,0c0,0,0,0,0,0l-.7.2,37.3,48.9.7-.2h0c.2,0,.4-.3.5-.7l4.1-23.1c0-.4-.1-.8-.4-1.1Z"/><path class="cls-55" d="m640,49l-40.5-23.4c-.5-.3-1.1-1.1-1-1.7l4.1-23.1c.1-.6.4-.9,1-.6l40.5,23.4c.5.3,1,1.1,1,1.7l-4.1,23.1c0,.6-.4.9-1,.6Z"/><polygon class="cls-50" points="600.3 24.3 604.4 2.6 643.3 25.1 639.2 46.7 600.3 24.3"/><polygon class="cls-7" points="643.3 25.1 600.3 24.3 639.2 46.7 643.3 25.1"/><path class="cls-57" d="m624.5,13.3c0-.2-.2-.5-.4-.6-.2-.1-.4,0-.4.2s.2.5.4.6c.2.1.4,0,.4-.2Z"/><path class="cls-52" d="m574.9,38.9v1.5c0,.3,0,.5.4.7l40.5,23.4c.5.3,1.3.3,1.8,0v-1.6s-42.7-24-42.7-24Z"/><path class="cls-55" d="m640.2,49.4v1.6s0,0,0,.1c0,.2-.2.3-.4.5,0,0-22.2,12.8-22.2,12.8v-1.6s22.6-13.4,22.6-13.4Z"/><path class="cls-57" d="m640.2,49.5c0,.2-.2.3-.4.5l-3.3,1.9s-18.9,10.9-18.9,10.9c-.5.3-1.3.2-1.8,0l-34.5-19.9-5.9-3.4c-.3-.2-.4-.4-.4-.6s.1-.4.4-.6l22.1-12.8c.5-.3,1.4-.3,1.9,0l40.5,23.4c.3.2.4.4.4.7Z"/><path class="cls-22" d="m596.1,29.5l1.7,1c.2,0,.4,0,.6,0l1.6-1c.2,0,.2-.2,0-.3l-1.6-1c-.2,0-.4,0-.6,0l-1.7,1c-.2,0-.2.2,0,.3Z"/><path class="cls-22" d="m588,34l2.6,1.5c.2,0,.4,0,.6,0l1.7-1c.2,0,.2-.2,0-.3l-2.6-1.5c-.2,0-.4,0-.6,0l-1.6,1c-.2,0-.2.2,0,.3Z"/><path class="cls-22" d="m590.7,32.5l3.4,2c.2,0,.4,0,.6,0l1.6-1c.2,0,.2-.2,0-.3l-3.4-2c-.2,0-.4,0-.6,0l-1.7,1c-.2,0-.2.2,0,.3Z"/><path class="cls-22" d="m593.3,31l4.2,2.4c.2,0,.4,0,.6,0l1.6-1c.2,0,.2-.2,0-.3l-4.2-2.4c-.2,0-.4,0-.6,0l-1.7,1c-.2,0-.2.2,0,.3Z"/><path class="cls-22" d="m602.5,30.7l-1.7-1c-.2,0-.4,0-.6,0l-1.7,1c-.2,0-.2.2,0,.3l1.7,1c.2,0,.4,0,.6,0l1.7-1c.2,0,.2-.2,0-.3Z"/><path class="cls-22" d="m605.1,32.2l-1.7-1c-.2,0-.4,0-.6,0l-1.7,1c-.2,0-.2.2,0,.3l1.7,1c.2,0,.4,0,.6,0l1.7-1c.2,0,.2-.2,0-.3Z"/><path class="cls-22" d="m593.2,34.8l-1.7,1c-.2,0-.2.2,0,.3l1.7,1c.2,0,.4,0,.6,0l1.7-1c.2,0,.2-.2,0-.3l-1.7-1c-.2,0-.4,0-.6,0Z"/><path class="cls-22" d="m596.6,33.7l-1.7,1c-.2,0-.2.2,0,.3l1.7,1c.2,0,.4,0,.6,0l1.6-1c.2,0,.2-.2,0-.3l-1.6-1c-.2,0-.4,0-.6,0Z"/><path class="cls-22" d="m602.3,33.7l-1.7-1c-.2,0-.4,0-.6,0l-1.7,1c-.2,0-.2.2,0,.3l1.7,1c.2,0,.4,0,.6,0l1.7-1c.2,0,.2-.2,0-.3Z"/><path class="cls-22" d="m607.7,33.7l-1.7-1c-.2,0-.4,0-.6,0l-1.7,1c-.2,0-.2.2,0,.3l1.7,1c.2,0,.4,0,.6,0l1.7-1c.2,0,.2-.2,0-.3Z"/><path class="cls-22" d="m595.8,36.3l-1.6,1c-.2,0-.2.2,0,.3l1.6,1c.2,0,.4,0,.6,0l1.7-1c.2,0,.2-.2,0-.3l-1.7-1c-.2,0-.4,0-.6,0Z"/><path class="cls-22" d="m601.4,36.2l-1.6-1c-.2,0-.4,0-.6,0l-1.6,1c-.2,0-.2.2,0,.3l1.6,1c.2,0,.4,0,.6,0l1.6-1c.2,0,.2-.2,0-.3Z"/><path class="cls-22" d="m604.9,35.2l-1.7-1c-.2,0-.4,0-.6,0l-1.7,1c-.2,0-.2.2,0,.3l1.7,1c.2,0,.4,0,.6,0l1.7-1c.2,0,.2-.2,0-.3Z"/><path class="cls-22" d="m610.3,35.2l-1.7-1c-.2,0-.4,0-.6,0l-1.6,1c-.2,0-.2.2,0,.3l1.6,1c.2,0,.4,0,.6,0l1.7-1c.2,0,.2-.2,0-.3Z"/><path class="cls-22" d="m596.8,39.1l1.7,1c.2,0,.4,0,.6,0l1.6-1c.2,0,.2-.2,0-.3l-1.6-1c-.2,0-.4,0-.6,0l-1.7,1c-.2,0-.2.2,0,.3Z"/><path class="cls-22" d="m604,37.7l-1.6-1c-.2,0-.4,0-.6,0l-1.6,1c-.2,0-.2.2,0,.3l1.6,1c.2,0,.4,0,.6,0l1.6-1c.2,0,.2-.2,0-.3Z"/><path class="cls-22" d="m607.5,36.7l-1.7-1c-.2,0-.4,0-.6,0l-1.6,1c-.2,0-.2.2,0,.3l1.6,1c.2,0,.4,0,.6,0l1.7-1c.2,0,.2-.2,0-.3Z"/><path class="cls-22" d="m612.9,36.6l-1.7-1c-.2,0-.4,0-.6,0l-1.6,1c-.2,0-.2.2,0,.3l1.6,1c.2,0,.4,0,.6,0l1.7-1c.2,0,.2-.2,0-.3Z"/><path class="cls-22" d="m599.4,40.6l1.6,1c.2,0,.4,0,.6,0l1.7-1c.2,0,.2-.2,0-.3l-1.7-1c-.2,0-.4,0-.6,0l-1.6,1c-.2,0-.2.2,0,.3Z"/><path class="cls-22" d="m606.6,39.2l-1.7-1c-.2,0-.4,0-.6,0l-1.7,1c-.2,0-.2.2,0,.3l1.7,1c.2,0,.4,0,.6,0l1.7-1c.2,0,.2-.2,0-.3Z"/><path class="cls-22" d="m610.1,38.2l-1.7-1c-.2,0-.4,0-.6,0l-1.7,1c-.2,0-.2.2,0,.3l1.7,1c.2,0,.4,0,.6,0l1.7-1c.2,0,.2-.2,0-.3Z"/><path class="cls-22" d="m615.5,38.1l-1.6-1c-.2,0-.4,0-.6,0l-1.7,1c-.2,0-.2.2,0,.3l1.7,1c.2,0,.4,0,.6,0l1.6-1c.2,0,.2-.2,0-.3Z"/><path class="cls-22" d="m602,42.1l1.7,1c.2,0,.4,0,.6,0l1.7-1c.2,0,.2-.2,0-.3l-1.7-1c-.2,0-.4,0-.6,0l-1.7,1c-.2,0-.2.2,0,.3Z"/><path class="cls-22" d="m609.2,40.7l-1.7-1c-.2,0-.4,0-.6,0l-1.6,1c-.2,0-.2.2,0,.3l1.6,1c.2,0,.4,0,.6,0l1.7-1c.2,0,.2-.2,0-.3Z"/><path class="cls-22" d="m612.7,39.6l-1.6-1c-.2,0-.4,0-.6,0l-1.7,1c-.2,0-.2.2,0,.3l1.7,1c.2,0,.4,0,.6,0l1.6-1c.2,0,.2-.2,0-.3Z"/><path class="cls-22" d="m618.1,39.6l-1.6-1c-.2,0-.4,0-.6,0l-1.7,1c-.2,0-.2.2,0,.3l1.7,1c.2,0,.4,0,.6,0l1.6-1c.2,0,.2-.2,0-.3Z"/><path class="cls-22" d="m604.5,43.5l1.6,1c.2,0,.4,0,.6,0l1.7-1c.2,0,.2-.2,0-.3l-1.7-1c-.2,0-.4,0-.6,0l-1.6,1c-.2,0-.2.2,0,.3Z"/><path class="cls-22" d="m611.8,42.2l-1.7-1c-.2,0-.4,0-.6,0l-1.7,1c-.2,0-.2.2,0,.3l1.7,1c.2,0,.4,0,.6,0l1.7-1c.2,0,.2-.2,0-.3Z"/><path class="cls-22" d="m615.3,41.1l-1.7-1c-.2,0-.4,0-.6,0l-1.7,1c-.2,0-.2.2,0,.3l1.7,1c.2,0,.4,0,.6,0l1.7-1c.2,0,.2-.2,0-.3Z"/><path class="cls-22" d="m620.6,41.1l-1.7-1c-.2,0-.4,0-.6,0l-1.7,1c-.2,0-.2.2,0,.3l1.7,1c.2,0,.4,0,.6,0l1.7-1c.2,0,.2-.2,0-.3Z"/><path class="cls-22" d="m607.1,45l1.6,1c.2,0,.4,0,.6,0l1.6-1c.2,0,.2-.2,0-.3l-1.6-1c-.2,0-.4,0-.6,0l-1.6,1c-.2,0-.2.2,0,.3Z"/><path class="cls-22" d="m614.4,43.7l-1.7-1c-.2,0-.4,0-.6,0l-1.6,1c-.2,0-.2.2,0,.3l1.6,1c.2,0,.4,0,.6,0l1.7-1c.2,0,.2-.2,0-.3Z"/><path class="cls-22" d="m617.9,42.6l-1.7-1c-.2,0-.4,0-.6,0l-1.7,1c-.2,0-.2.2,0,.3l1.7,1c.2,0,.4,0,.6,0l1.7-1c.2,0,.2-.2,0-.3Z"/><path class="cls-22" d="m624.2,43.2l-2.6-1.5c-.2,0-.4,0-.6,0l-1.7,1c-.2,0-.2.2,0,.3l2.6,1.5c.2,0,.4,0,.6,0l1.7-1c.2,0,.2-.2,0-.3Z"/><path class="cls-22" d="m609.7,46.5l1.7,1c.2,0,.4,0,.6,0l1.6-1c.2,0,.2-.2,0-.3l-1.6-1c-.2,0-.4,0-.6,0l-1.7,1c-.2,0-.2.2,0,.3Z"/><path class="cls-22" d="m616.9,51.1l-1.6-1c-.2,0-.4,0-.6,0l-1.7,1c-.2,0-.2.2,0,.3l1.7,1c.2,0,.4,0,.6,0l1.6-1c.2,0,.2-.2,0-.3Z"/><path class="cls-22" d="m619.5,52.6l-1.7-1c-.2,0-.4,0-.6,0l-1.6,1c-.2,0-.2.2,0,.3l1.6,1c.2,0,.4,0,.6,0l1.7-1c.2,0,.2-.2,0-.3Z"/><path class="cls-22" d="m622.1,54.1l-1.7-1c-.2,0-.4,0-.6,0l-1.7,1c-.2,0-.2.2,0,.3l1.7,1c.2,0,.4,0,.6,0l1.7-1c.2,0,.2-.2,0-.3Z"/><path class="cls-22" d="m624.7,55.6l-1.7-1c-.2,0-.4,0-.6,0l-1.7,1c-.2,0-.2.2,0,.3l1.7,1c.2,0,.4,0,.6,0l1.7-1c.2,0,.2-.2,0-.3Z"/><path class="cls-22" d="m615.6,50l1.6,1c.2,0,.4,0,.6,0l1.7-1c.2,0,.2-.2,0-.3l-1.7-1c-.2,0-.4,0-.6,0l-1.6,1c-.2,0-.2.2,0,.3Z"/><path class="cls-22" d="m618.2,51.4l1.7,1c.2,0,.4,0,.6,0l1.7-1c.2,0,.2-.2,0-.3l-1.7-1c-.2,0-.4,0-.6,0l-1.7,1c-.2,0-.2.2,0,.3Z"/><path class="cls-22" d="m620.8,52.9l1.7,1c.2,0,.4,0,.6,0l1.7-1c.2,0,.2-.2,0-.3l-1.7-1c-.2,0-.4,0-.6,0l-1.7,1c-.2,0-.2.2,0,.3Z"/><path class="cls-22" d="m629.9,52.6l-1.7-1c-.2,0-.4,0-.6,0l-4.3,2.5c-.2,0-.2.2,0,.3l1.7,1c.2,0,.4,0,.6,0l4.3-2.5c.2,0,.2-.2,0-.3Z"/><path class="cls-22" d="m628.6,51.4l1.7,1c.2,0,.4,0,.6,0l4.3-2.5c.2,0,.2-.2,0-.3l-1.7-1c-.2,0-.4,0-.6,0l-4.3,2.5c-.2,0-.2.2,0,.3Z"/><path class="cls-22" d="m622.1,48.1l-1.6-1c-.2,0-.4,0-.6,0l-1.7,1c-.2,0-.2.2,0,.3l1.7,1c.2,0,.4,0,.6,0l1.6-1c.2,0,.2-.2,0-.3Z"/><path class="cls-22" d="m620.8,49.9l1.7,1c.2,0,.4,0,.6,0l1.7-1c.2,0,.2-.2,0-.3l-1.7-1c-.2,0-.4,0-.6,0l-1.7,1c-.2,0-.2.2,0,.3Z"/><path class="cls-22" d="m625.6,52.4l1.6-1c.2,0,.2-.2,0-.3l-1.6-1c-.2,0-.4,0-.6,0l-1.7,1c-.2,0-.2.2,0,.3l1.7,1c.2,0,.4,0,.6,0Z"/><path class="cls-22" d="m624.7,46.6l-1.7-1c-.2,0-.4,0-.6,0l-1.7,1c-.2,0-.2.2,0,.3l1.7,1c.2,0,.4,0,.6,0l1.7-1c.2,0,.2-.2,0-.3Z"/><path class="cls-22" d="m627.3,48.1l-1.6-1c-.2,0-.4,0-.6,0l-1.7,1c-.2,0-.2.2,0,.3l1.7,1c.2,0,.4,0,.6,0l1.6-1c.2,0,.2-.2,0-.3Z"/><path class="cls-22" d="m628.3,50.9l1.7-1c.2,0,.2-.2,0-.3l-1.7-1c-.2,0-.4,0-.6,0l-1.6,1c-.2,0-.2.2,0,.3l1.6,1c.2,0,.4,0,.6,0Z"/><path class="cls-22" d="m623.5,45.4l1.7,1c.2,0,.4,0,.6,0l1.7-1c.2,0,.2-.2,0-.3l-1.7-1c-.2,0-.4,0-.6,0l-1.7,1c-.2,0-.2.2,0,.3Z"/><path class="cls-22" d="m626.1,46.9l1.7,1c.2,0,.4,0,.6,0l1.6-1c.2,0,.2-.2,0-.3l-1.6-1c-.2,0-.4,0-.6,0l-1.7,1c-.2,0-.2.2,0,.3Z"/><path class="cls-22" d="m628.7,48.4l1.7,1c.2,0,.4,0,.6,0l1.7-1c.2,0,.2-.2,0-.3l-1.7-1c-.2,0-.4,0-.6,0l-1.7,1c-.2,0-.2.2,0,.3Z"/><path class="cls-22" d="m612.3,48l1.6,1c.2,0,.4,0,.6,0l1.7-1c.2,0,.2-.2,0-.3l-1.7-1c-.2,0-.4,0-.6,0l-1.6,1c-.2,0-.2.2,0,.3Z"/><path class="cls-22" d="m618.8,46.2l-3.5-2c-.2,0-.4,0-.6,0l-1.7,1c-.2,0-.2.2,0,.3l3.5,2c.2,0,.4,0,.6,0l1.7-1c.2,0,.2-.2,0-.3Z"/><path class="cls-22" d="m621.4,44.7l-2.6-1.5c-.2,0-.4,0-.6,0l-1.7,1c-.2,0-.2.2,0,.3l2.6,1.5c.2,0,.4,0,.6,0l1.6-1c.2,0,.2-.2,0-.3Z"/><path class="cls-22" d="m585.4,35.5l1.7,1c.2,0,.4,0,.6,0l1.7-1c.2,0,.2-.2,0-.3l-1.7-1c-.2,0-.4,0-.6,0l-1.7,1c-.2,0-.2.2,0,.3Z"/><path class="cls-22" d="m588,37l1.7,1c.2,0,.4,0,.6,0l1.6-1c.2,0,.2-.2,0-.3l-1.6-1c-.2,0-.4,0-.6,0l-1.7,1c-.2,0-.2.2,0,.3Z"/><path class="cls-22" d="m590.6,38.5l1.6,1c.2,0,.4,0,.6,0l1.6-1c.2,0,.2-.2,0-.3l-1.6-1c-.2,0-.4,0-.6,0l-1.6,1c-.2,0-.2.2,0,.3Z"/><path class="cls-22" d="m593.2,40l12,6.9c.2,0,.4,0,.6,0l1.7-1c.2,0,.2-.2,0-.3l-12-6.9c-.2,0-.4,0-.6,0l-1.6,1c-.2,0-.2.2,0,.3Z"/><path class="cls-22" d="m606.2,47.5l1.7,1c.2,0,.4,0,.6,0l1.6-1c.2,0,.2-.2,0-.3l-1.6-1c-.2,0-.4,0-.6,0l-1.7,1c-.2,0-.2.2,0,.3Z"/><path class="cls-22" d="m608.7,49l2.6,1.5c.2,0,.4,0,.6,0l1.6-1c.2,0,.2-.2,0-.3l-2.6-1.5c-.2,0-.4,0-.6,0l-1.6,1c-.2,0-.2.2,0,.3Z"/><path class="cls-57" d="m620.4,61.5c0,0,.1,0,.1,0v.8c0,0,0,.2-.1.2l-2.2,1.3c0,0-.1,0-.1,0v-.8c0,0,0-.2.1-.2l2.2-1.3Z"/><polygon class="cls-60" points="620.3 62 620.3 61.8 620.1 61.9 618.3 62.9 618.3 63.5 620.3 62.3 620.3 62"/><polygon class="cls-56" points="618.3 63.2 618.3 63.5 620.3 62.3 620.3 62 618.3 63.2"/><path class="cls-57" d="m623.1,59.9c0,0,.1,0,.1,0v.8c0,0,0,.2-.1.2l-2.2,1.3c0,0-.1,0-.1,0v-.8c0,0,0-.2.1-.2l2.2-1.3Z"/><polygon class="cls-60" points="623 60.5 623 60.2 622.7 60.3 621 61.4 621 62 623 60.8 623 60.5"/><polygon class="cls-56" points="621 61.7 621 62 623 60.8 623 60.5 621 61.7"/><path class="cls-57" d="m625.7,58.3c0,0,.1,0,.1,0v.8c0,0,0,.2-.1.2l-2.2,1.3c0,0-.1,0-.1,0v-.8c0,0,0-.2.1-.2l2.2-1.3Z"/><polygon class="cls-60" points="625.6 58.9 625.6 58.6 625.4 58.8 623.6 59.8 623.6 60.4 625.6 59.2 625.6 58.9"/><polygon class="cls-56" points="623.6 60.1 623.6 60.4 625.6 59.2 625.6 58.9 623.6 60.1"/><path class="cls-57" d="m638.9,50.9c.2.1.2.4,0,.8-.2.3-.5.5-.7.4-.2-.1-.2-.4,0-.8.2-.3.5-.5.7-.4Z"/><path class="cls-52" d="m638.7,51.1c.1,0,.1.3,0,.5-.1.2-.3.3-.4.2-.1,0-.1-.3,0-.5.1-.2.3-.3.4-.2Z"/><path class="cls-22" d="m607.1,49.8l-8.8-5.1c-.3-.2-.7-.2-1,0l-4.4,2.6c-.3.2-.3.4,0,.6l8.8,5.1c.3.2.7.2,1,0l4.4-2.6c.3-.2.3-.4,0-.6Z"/><path class="cls-60" d="m599.3,49.1h0c0,0-.2,0-.2,0l-1.4.8c0,0,0,0,0,.1h0c0,0,.2,0,.2,0l1.4-.8c0,0,0,0,0-.1Z"/><g class="cls-61"><path class="cls-57" d="m607.1,332.9l9.6-5.4c0,0,.2,0,.3,0l-9.6,5.4s-.3,0-.3,0h0Z"/><polygon class="cls-57" points="607.4 333 617.1 327.6 631.7 335.7 622.1 341.1 607.4 333"/><path class="cls-52" d="m632.2,336.3c0-.2-.1-.3-.2-.4,0,0-.1-.1-.2-.2l-9.6,5.4.5,1.8,9.6-5.4v-1c0,0,0-.1,0-.2Z"/><path class="cls-55" d="m622.1,341.1c.3.1.5.5.5.8v1s-15.6-8.6-15.6-8.6v-1c0-.3.2-.4.5-.3l14.6,8.1Z"/></g><g class="cls-61"><polygon class="cls-55" points="623.8 336.8 614.8 331.8 615.4 325.8 624.4 330.8 623.8 336.8"/><polygon class="cls-57" points="624.4 330.8 615.4 325.8 616.4 325.2 625.4 330.2 624.4 330.8"/><polygon class="cls-52" points="625.4 330.2 626.1 335.5 623.8 336.8 624.4 330.8 625.4 330.2"/></g><path class="cls-55" d="m643.4,314.1c0-1.3-1-3-2.2-3.6l-43.4-24c-.6-.3-1.2-.4-1.6-.1h0s-.8.5-.8.5l46,25.9v2.8s2-.9,2-.9v-.5Z"/><path class="cls-52" d="m641.5,315.6l.4,26.8.9-.5c.4-.2.6-.7.6-1.4v-25.9l-1.9.9Z"/><path class="cls-57" d="m642.5,314.6v26.4c0,1.3-1,1.9-2.2,1.2l-43.4-24c-1.2-.7-2.2-2.3-2.2-3.6v-26.4c0-1.3,1-1.9,2.2-1.2l43.4,24c1.2.7,2.2,2.3,2.2,3.6Z"/><polygon class="cls-50" points="597.1 315.7 597.1 289.7 640.1 313.5 640.1 339.5 597.1 315.7"/><polygon class="cls-7" points="597.1 315.7 640.1 313.5 640.1 339.5 597.1 315.7"/><g class="cls-61"><path class="cls-55" d="m582.5,344.8l28.2,15.6v-3s-28.2-15.6-28.2-15.6v3Z"/><path class="cls-43" d="m592.3,348.4c0,0,.2.2.2.3v.3c0,0,0,.1-.2,0l-1.6-.9c0,0-.2-.2-.2-.3v-.3c0,0,0-.1.2,0l1.6.9Z"/><path class="cls-36" d="m584.1,343.7c.2.1.4.4.4.6,0,.2-.2.3-.4.2-.2-.1-.4-.4-.4-.6,0-.2.2-.3.4-.2Z"/><path class="cls-30" d="m586.1,344.8c.2.1.4.4.4.6,0,.2-.2.3-.4.2-.2-.1-.4-.4-.4-.6,0-.2.2-.3.4-.2Z"/><path class="cls-43" d="m609,357.6c0,0,.2.2.2.3v.3c0,0,0,.1-.2,0l-15.6-8.6c0,0-.2-.2-.2-.3v-.3c0,0,0-.1.2,0l15.6,8.6Z"/><path class="cls-47" d="m588,345.9c.2.1.4.4.4.6,0,.2-.2.3-.4.2-.2-.1-.4-.4-.4-.6,0-.2.2-.3.4-.2Z"/><polygon class="cls-57" points="582.5 341.8 598.7 332.8 627 348.4 610.8 357.4 582.5 341.8"/><polygon class="cls-52" points="610.8 357.4 627 348.4 627 351.4 610.7 360.4 610.8 357.4"/></g><path class="cls-56" d="m613.4,346.7c-.5.6-1,.7-1,.7,0,0-2.5,4.8-4.7,4.8,0,0-.1,0-.2,0-2.4-.3-2.1-2.9-1.8-4,0,0,0,0,0,0,0-.3,0-.5-.3-.7l-4.4-2.6c-.3-.2-.6-.1-.8,0-.4.4-1.3.8-2.5.6-.1,0-.2,0-.3,0-.3,0-.5-.2-.7-.4-.2-.2-.4-.5-.5-.8-.4-2.1,1.5-3.9,2.6-4.8.5-.4.8-.6.8-.6.8-.7,2.1-1,3.3-.8,1.9.4,2.4,1.2,2.5,2.1l4.1,2.4s.8-.2,2.3.2c.9.3,1.6.7,2.1,1.8.2.8,0,1.5-.5,2.2Z"/><path class="cls-58" d="m598.9,343.9l-1.3,1.6c-.1,0-.2,0-.3,0-.3,0-.5-.2-.7-.4-.2-.2-.4-.5-.5-.8-.4-2.1,1.5-3.9,2.6-4.8,1.2,1.6.2,4.5.2,4.5Z"/><path class="cls-58" d="m611.4,347.1s-1.4,5-3.6,5.1c0,0-.1,0-.2,0-2.4-.3-2.1-2.9-1.8-4,0,0,.8-1,3.2-1.2,1.1,0,2.5,0,2.5,0Z"/><path class="cls-55" d="m612.4,347.3s-2.5,4.8-4.7,4.8c0-6.7,4.7-4.8,4.7-4.8Z"/><path class="cls-52" d="m605.8,347.7h0c0,.1,0,.3,0,.4,0-.2,0-.5-.2-.6,0,0,0,0,0,0l-4.4-2.6c-.1,0-.3-.1-.5,0-.1,0-.2,0-.3.1-.5.4-1.5.9-2.9.5-.3,0-.5-.2-.7-.4.8.3,1.4-.4,2.2-1,0,0,.1,0,.2-.1h0c.5-.3,1.1-.3,1.6,0l5,3c.3.3.4.5.3.8Z"/><path class="cls-55" d="m604.1,341.4l3.3,2c.3.2.8.1,1-.2l.2-.3c.2-.3.1-.6-.3-.9l-2.1-1.3c-.4-.2-1-.3-1.5-.2h-.4c-.4.2-.5.7-.1.9Z"/><path class="cls-57" d="m603.2,342.7c.5.3.4.7,0,.9-.5.2-1.2.2-1.7,0-.5-.3-.4-.7,0-.9.5-.2,1.2-.2,1.7,0Z"/><path class="cls-58" d="m602.9,342.8c.3.2.3.4,0,.6-.3.2-.8.1-1.1,0-.3-.2-.3-.4,0-.6.3-.1.8-.1,1.1,0Z"/><path class="cls-52" d="m602.8,342.8c-.1,0,.2-.3.2-.3h-1.2s.3.2.2.3c-.1,0-.2.1-.2.2,0,.2.3.3.6.4.3,0,.6-.1.6-.3,0,0-.1-.1-.2-.2Z"/><path class="cls-57" d="m601.6,342.1h0c0,.3,0,.4.2.5.3.2.9.2,1.2,0,.2,0,.3-.2.3-.3h0c0-.1-1.7-.2-1.7-.2Z"/><path class="cls-58" d="m603,341.9c.3.2.3.5,0,.7-.3.2-.9.2-1.2,0-.3-.2-.3-.5,0-.7.3-.2.9-.2,1.2,0Z"/><path class="cls-57" d="m606,344.3c.5.3.4.7,0,.9-.5.2-1.2.2-1.7,0-.5-.3-.4-.7,0-.9.5-.2,1.2-.2,1.7,0Z"/><path class="cls-58" d="m605.7,344.4c.3.2.3.4,0,.6-.3.1-.8.1-1.1,0-.3-.2-.3-.4,0-.6.3-.2.8-.1,1.1,0Z"/><path class="cls-52" d="m605.5,344.4c-.1,0,.2-.3.2-.3h-1.2s.3.2.2.3c-.1,0-.2.1-.2.2,0,.2.3.3.6.4.3,0,.6-.1.6-.3,0,0-.1-.1-.2-.2Z"/><path class="cls-57" d="m604.3,343.7h0c0,.3,0,.4.2.5.3.2.9.2,1.2,0,.2,0,.3-.2.3-.3h0c0-.1-1.7-.2-1.7-.2Z"/><path class="cls-58" d="m605.8,343.4c.3.2.3.5,0,.7-.3.2-.9.2-1.2,0-.3-.2-.3-.5,0-.7.3-.2.9-.2,1.2,0Z"/><path class="cls-51" d="m608.2,342.7h0c0,0-1.4-.5-1.4-.5h0c0,.2,0,.2.1.3l.6.4c.2,0,.4.1.6,0h0c0,0,.1,0,.1-.2h0Z"/><path class="cls-58" d="m608.1,342.4l-.6-.4c-.2,0-.4-.1-.6,0h0c-.2,0-.2.2,0,.3l.6.4c.2,0,.4,0,.6,0h0c.2,0,.2-.2,0-.3Z"/><path class="cls-51" d="m606.2,341.5h0c0,0-1.4-.5-1.4-.5h0c0,.2,0,.2.1.3l.6.4c.2,0,.4.1.6,0h0c0,0,.1,0,.1-.2h0Z"/><path class="cls-58" d="m606.1,341.3l-.6-.4c-.2,0-.4,0-.6,0h0c-.2,0-.2.2,0,.3l.6.4c.2,0,.4.1.6,0h0c.2,0,.2-.2,0-.3Z"/><path class="cls-55" d="m605.9,346.8v.9c0-.3-.1-.6-.5-.8l-5-3c-.5-.3-1.1-.3-1.6,0l.8-.7c.3-.2.7-.3,1,0l4.9,2.9c.3.2.4.5.4.8Z"/><path class="cls-55" d="m604.7,339.6c0,.7-1.2,1.3-2.5,1.2-1.4,0-2.5-.7-2.4-1.4,0-.7,1.2-1.3,2.5-1.2,1.4,0,2.4.7,2.4,1.4Z"/><path class="cls-55" d="m613.1,344.5c0,.8-1.2,1.4-2.7,1.3-1.5,0-2.6-.7-2.6-1.5,0-.8,1.2-1.4,2.7-1.3,1.5,0,2.6.7,2.6,1.5Z"/><path class="cls-51" d="m611.3,344.6c-.2,0-.2-.3,0-.3l.4-.2s0,0,0,0h0c0-.1-1.3,0-1.3,0l-1.3-.3h0c0,.1,0,.1,0,.1,0,0,0,0,0,0l.4.2c.2,0,.2.3,0,.3h-.5c0,.1,0,.2,0,.2h0s0,0,0,0l.3.2c0,0,.2,0,.3,0l.3-.2c.2-.1.5,0,.6,0l.3.2c0,0,.2,0,.3,0l.4-.2s0,0,0,0h0c0-.1-.5-.3-.5-.3Z"/><path class="cls-58" d="m611.1,343.6l-.3.2c-.2.1-.5,0-.6,0l-.3-.2c0,0-.2,0-.3,0l-.4.2c0,0,0,.1,0,.2l.4.2c.2,0,.2.3,0,.3l-.4.2c0,0-.1.1,0,.2l.3.2c0,0,.2,0,.3,0l.3-.2c.2-.1.5,0,.6,0l.3.2c0,0,.2,0,.3,0l.4-.2c0,0,0-.1,0-.2l-.4-.2c-.2,0-.2-.3,0-.3l.4-.2c0,0,.1-.1,0-.2l-.3-.2c0,0-.2,0-.3,0Z"/><path class="cls-59" d="m600.8,338.8v.2c0,0,0,.2.1.2.2.1.6.1.8,0,.1,0,.2-.1.2-.2v-.2s-1.1,0-1.1,0Z"/><path class="cls-36" d="m601.7,338.6c.2.1.2.3,0,.4-.2.1-.6.1-.8,0-.2-.1-.2-.3,0-.4.2-.1.6-.1.8,0Z"/><path class="cls-46" d="m602.5,338.8v.2c0,0,0,.2.1.2.2.1.6.1.8,0,.1,0,.2-.1.2-.2v-.2s-1.1,0-1.1,0Z"/><path class="cls-30" d="m603.5,338.6c.2.1.2.3,0,.4-.2.1-.6.1-.8,0-.2-.1-.2-.3,0-.4s.6-.1.8,0Z"/><path class="cls-54" d="m600.7,339.9v.2c0,0,0,.2.1.2.2.1.6.1.8,0,.1,0,.2-.1.2-.2v-.2s-1.1,0-1.1,0Z"/><path class="cls-47" d="m601.7,339.7c.2.1.2.3,0,.4-.2.1-.6.1-.8,0-.2-.1-.2-.3,0-.4.2-.1.6-.1.8,0Z"/><path class="cls-51" d="m602.4,339.9v.2c0,0,0,.2.1.2.2.1.6.1.8,0,.1,0,.2-.1.2-.2v-.2s-1.1,0-1.1,0Z"/><path class="cls-58" d="m603.4,339.7c.2.1.2.3,0,.4-.2.1-.6.1-.8,0-.2-.1-.2-.3,0-.4.2-.1.6-.1.8,0Z"/><rect class="cls-55" x="466.8" y="130.5" width="6" height="39.8"/><path class="cls-52" d="m471.9,129.3c-1.2-.7-3.1-.7-4.2,0-1.2.7-1.2,1.8,0,2.4,1.2.7,3.1.7,4.2,0,1.2-.7,1.2-1.8,0-2.4Z"/><path class="cls-55" d="m466.8,127v2c0,.4.3.9.9,1.2,1.2.7,3.1.7,4.2,0,.6-.3.9-.8.9-1.2v-2h-6Z"/><path class="cls-52" d="m471.9,125.8c-1.2-.7-3.1-.7-4.2,0-1.2.7-1.2,1.8,0,2.4,1.2.7,3.1.7,4.2,0,1.2-.7,1.2-1.8,0-2.4Z"/><path class="cls-55" d="m466.8,123.5v2c0,.4.3.9.9,1.2,1.2.7,3.1.7,4.2,0,.6-.3.9-.8.9-1.2v-2h-6Z"/><path class="cls-52" d="m471.9,122.3c-1.2-.7-3.1-.7-4.2,0-1.2.7-1.2,1.8,0,2.4,1.2.7,3.1.7,4.2,0,1.2-.7,1.2-1.8,0-2.4Z"/><path class="cls-55" d="m466.8,120.1v2c0,.4.3.9.9,1.2,1.2.7,3.1.7,4.2,0,.6-.3.9-.8.9-1.2v-2h-6Z"/><path class="cls-57" d="m472.6,119.5h0,0s0,0,0,0l-.3-.4h-4.9l-.3.4c0,0-.1.1-.1.2h0s0,0,0,0c-.3.6,0,1.3.7,1.8,1.2.7,3.1.7,4.2,0,.9-.5,1.1-1.2.7-1.8Z"/><path class="cls-57" d="m471.5,116.2c-1-.6-2.5-.6-3.5,0-1,.6-1,1.4,0,2,1,.6,2.5.6,3.5,0,1-.6,1-1.4,0-2Z"/><path class="cls-55" d="m472.2,117.2c0-.6-.2-1.1-.7-1.6-1-.9-2.5-.9-3.5,0-.5.4-.7,1-.7,1.6v1.7c0,.4.2.7.7,1,1,.6,2.5.6,3.5,0,.5-.3.7-.6.7-1v-1.7Z"/><rect class="cls-55" x="515.3" y="155.6" width="6" height="39.8"/><path class="cls-52" d="m520.4,154.4c-1.2-.7-3.1-.7-4.2,0-1.2.7-1.2,1.8,0,2.4,1.2.7,3.1.7,4.2,0,1.2-.7,1.2-1.8,0-2.4Z"/><path class="cls-55" d="m515.3,152.2v2c0,.4.3.9.9,1.2,1.2.7,3.1.7,4.2,0,.6-.3.9-.8.9-1.2v-2h-6Z"/><path class="cls-52" d="m520.4,150.9c-1.2-.7-3.1-.7-4.2,0-1.2.7-1.2,1.8,0,2.4,1.2.7,3.1.7,4.2,0,1.2-.7,1.2-1.8,0-2.4Z"/><path class="cls-55" d="m515.3,148.7v2c0,.4.3.9.9,1.2,1.2.7,3.1.7,4.2,0,.6-.3.9-.8.9-1.2v-2h-6Z"/><path class="cls-52" d="m520.4,147.5c-1.2-.7-3.1-.7-4.2,0-1.2.7-1.2,1.8,0,2.4,1.2.7,3.1.7,4.2,0,1.2-.7,1.2-1.8,0-2.4Z"/><path class="cls-55" d="m515.3,145.2v2c0,.4.3.9.9,1.2,1.2.7,3.1.7,4.2,0,.6-.3.9-.8.9-1.2v-2h-6Z"/><path class="cls-57" d="m521.1,144.6h0,0s0,0,0,0l-.3-.4h-4.9l-.3.4c0,0-.1.1-.1.2h0s0,0,0,0c-.3.6,0,1.3.7,1.8,1.2.7,3.1.7,4.2,0,.9-.5,1.1-1.2.7-1.8Z"/><path class="cls-57" d="m520,141.3c-1-.6-2.5-.6-3.5,0-1,.6-1,1.4,0,2,1,.6,2.5.6,3.5,0,1-.6,1-1.4,0-2Z"/><path class="cls-55" d="m520.7,142.3c0-.6-.2-1.1-.7-1.6-1-.9-2.5-.9-3.5,0-.5.4-.7,1-.7,1.6v1.7c0,.4.2.7.7,1,1,.6,2.5.6,3.5,0,.5-.3.7-.6.7-1v-1.7Z"/><g class="cls-61"><path class="cls-55" d="m486.6,220.8v9.4s39.2-22.8,39.2-22.8c.8-.5,1.3-1,1.6-1.6.2-.3.3-.7.3-1.1v-9.4c0,1-41.1,25.5-41.1,25.5Z"/><path class="cls-52" d="m411,180.9v9.4c0,1,.6,2,1.9,2.7l64.4,37.2c2.6,1.5,6.7,1.5,9.3,0v-9.4s-75.6-38.9-75.6-39.9Z"/><path class="cls-57" d="m525.8,192.7c2.6,1.5,2.6,3.9,0,5.4l-39.2,22.8c-2.5,1.5-6.7,1.5-9.3,0l-64.4-37.2c-2.6-1.5-2.6-3.9,0-5.4l39.2-22.8c2.5-1.5,6.7-1.5,9.3,0l64.4,37.2Z"/><path class="cls-22" d="m484,179.6c6,3.5,10.6,7.7,13.3,12.5.6,1.1-.3,2.2-1.9,2.4-1.1.2-2.1,0-2.9-.5-.4-.2-.7-.5-.9-.8-2.4-4.3-6.5-8.1-11.9-11.1-5.3-3.1-11.9-5.5-19.3-6.9-.6-.1-1-.3-1.4-.5-.8-.4-1.2-1.1-.9-1.7.4-.9,2.3-1.5,4.2-1.1,8.3,1.6,15.6,4.2,21.6,7.7Z"/><path class="cls-22" d="m475.5,184.6c4.2,2.4,7.4,5.3,9.4,8.6.7,1.1-.2,2.3-1.8,2.5-1.1.1-2.2,0-2.9-.5-.4-.2-.7-.5-.9-.8-1.7-2.8-4.5-5.3-8-7.3-3.5-2-7.8-3.6-12.6-4.6-.5-.1-1-.3-1.4-.5-.8-.4-1.2-1.1-.9-1.7.4-.9,2.4-1.4,4.3-1,5.6,1.2,10.7,3,14.9,5.4Z"/><path class="cls-22" d="m467.5,189.3c2.8,1.6,5.1,3.6,6.6,5.8.8,1.2,0,2.4-1.6,2.6-1.1.1-2.2,0-3-.6-.4-.2-.7-.5-.9-.8-1.2-1.7-3-3.3-5.3-4.6-2.3-1.3-5-2.4-8-3.1-.5-.1-.9-.3-1.3-.5-.8-.5-1.2-1.1-1-1.7.4-.9,2.4-1.4,4.5-1,3.8.9,7.2,2.2,10,3.8Z"/><path class="cls-22" d="m459.4,194c1.3.7,2.3,1.6,3.2,2.6.8,1,.3,1.9-.8,2.1-.7,0-1.3.2-2,.3-.8,0-1.5,0-2.1-.4-.2-.1-.4-.3-.6-.4-.5-.6-1.2-1.2-2-1.6-.8-.5-1.8-.9-2.8-1.2-.3,0-.5-.2-.8-.3-.6-.3-.9-.8-.7-1.2.2-.4.3-.8.5-1.1.2-.6,1.9-.9,3.6-.4,1.6.5,3.1,1.1,4.4,1.8Z"/><path class="cls-55" d="m481.8,216.2l-4.1-2.4c-.3-.2-.8-.2-1.1,0-.3.2-.3.4,0,.6l4.1,2.4c.3.2.8.2,1.1,0,.3-.2.3-.4,0-.6Z"/><path class="cls-55" d="m488,212.6l-4.1-2.4c-.3-.2-.8-.2-1.1,0-.3.2-.3.4,0,.6l4.1,2.4c.3.2.8.2,1.1,0,.3-.2.3-.4,0-.6Z"/><path class="cls-55" d="m494.2,209l-4.1-2.4c-.3-.2-.8-.2-1.1,0-.3.2-.3.4,0,.6l4.1,2.4c.3.2.8.2,1.1,0,.3-.2.3-.4,0-.6Z"/><path class="cls-55" d="m500.4,205.5l-4.1-2.4c-.3-.2-.8-.2-1.1,0-.3.2-.3.4,0,.6l4.1,2.4c.3.2.8.2,1.1,0,.3-.2.3-.4,0-.6Z"/><path class="cls-55" d="m506.7,201.9l-4.1-2.4c-.3-.2-.8-.2-1.1,0-.3.2-.3.4,0,.6l4.1,2.4c.3.2.8.2,1.1,0,.3-.2.3-.4,0-.6Z"/><path class="cls-55" d="m512.9,198.3l-4.1-2.4c-.3-.2-.8-.2-1.1,0-.3.2-.3.4,0,.6l4.1,2.4c.3.2.8.2,1.1,0,.3-.2.3-.4,0-.6Z"/><path class="cls-55" d="m519.1,194.7l-4.1-2.4c-.3-.2-.8-.2-1.1,0-.3.2-.3.4,0,.6l4.1,2.4c.3.2.8.2,1.1,0,.3-.2.3-.4,0-.6Z"/><path class="cls-55" d="m425.3,183.6l-4.1-2.4c-.3-.2-.8-.2-1.1,0-.3.2-.3.4,0,.6l4.1,2.4c.3.2.8.2,1.1,0,.3-.2.3-.4,0-.6Z"/><path class="cls-55" d="m431.6,180l-4.1-2.4c-.3-.2-.8-.2-1.1,0-.3.2-.3.4,0,.6l4.1,2.4c.3.2.8.2,1.1,0,.3-.2.3-.4,0-.6Z"/><path class="cls-55" d="m437.8,176.5l-4.1-2.4c-.3-.2-.8-.2-1.1,0-.3.2-.3.4,0,.6l4.1,2.4c.3.2.8.2,1.1,0,.3-.2.3-.4,0-.6Z"/><path class="cls-55" d="m444,172.9l-4.1-2.4c-.3-.2-.8-.2-1.1,0-.3.2-.3.4,0,.6l4.1,2.4c.3.2.8.2,1.1,0,.3-.2.3-.4,0-.6Z"/><path class="cls-55" d="m450.2,169.3l-4.1-2.4c-.3-.2-.8-.2-1.1,0-.3.2-.3.4,0,.6l4.1,2.4c.3.2.8.2,1.1,0,.3-.2.3-.4,0-.6Z"/><path class="cls-55" d="m456.4,165.7l-4.1-2.4c-.3-.2-.8-.2-1.1,0-.3.2-.3.4,0,.6l4.1,2.4c.3.2.8.2,1.1,0,.3-.2.3-.4,0-.6Z"/><path class="cls-55" d="m462.6,162.1l-4.1-2.4c-.3-.2-.8-.2-1.1,0-.3.2-.3.4,0,.6l4.1,2.4c.3.2.8.2,1.1,0,.3-.2.3-.4,0-.6Z"/><path class="cls-30" d="m431.1,197.4c-.8-.5-1.4,0-1.4.8s.6,2,1.4,2.5c.8.5,1.4,0,1.4-.8s-.6-2-1.4-2.5Z"/><path class="cls-36" d="m436.9,200.8c-.8-.5-1.4,0-1.4.8s.6,2,1.4,2.5c.8.5,1.4,0,1.4-.8s-.6-2-1.4-2.5Z"/><path class="cls-47" d="m442.8,204.2c-.8-.5-1.4,0-1.4.8s.6,2,1.4,2.5c.8.5,1.4,0,1.4-.8s-.6-2-1.4-2.5Z"/><path class="cls-47" d="m448.6,207.5c-.8-.5-1.4,0-1.4.8s.6,2,1.4,2.5c.8.5,1.4,0,1.4-.8s-.6-2-1.4-2.5Z"/><path class="cls-47" d="m454.5,210.9c-.8-.5-1.4,0-1.4.8s.6,2,1.4,2.5c.8.5,1.4,0,1.4-.8s-.6-2-1.4-2.5Z"/><path class="cls-47" d="m460.4,214.3c-.8-.5-1.4,0-1.4.8s.6,2,1.4,2.5c.8.5,1.4,0,1.4-.8s-.6-2-1.4-2.5Z"/><path class="cls-52" d="m488.6,221.4v5.8c.4-.2.6-.4.6-3.2s-.2-2.8-.6-2.5Z"/><path class="cls-52" d="m493.7,218.5v5.8c.4-.2.6-.4.6-3.2s-.2-2.8-.6-2.5Z"/><path class="cls-52" d="m498.8,215.5v5.8c.4-.2.6-.4.6-3.2s-.2-2.8-.6-2.5Z"/><path class="cls-52" d="m503.9,212.5v5.8c.4-.2.6-.4.6-3.2s-.2-2.8-.6-2.5Z"/><path class="cls-52" d="m509,209.6v5.8c.4-.2.6-.4.6-3.2s-.2-2.8-.6-2.5Z"/><path class="cls-52" d="m514.2,206.6v5.8c.4-.2.6-.4.6-3.2,0-2.9-.2-2.8-.6-2.5Z"/><path class="cls-52" d="m519.3,203.7v5.8c.4-.2.6-.4.6-3.2s-.2-2.8-.6-2.5Z"/><path class="cls-52" d="m524.4,200.7v5.8c.4-.2.6-.4.6-3.2s-.2-2.8-.6-2.5Z"/></g><path class="cls-57" d="m640.1,143h0s0,0,0,0c-.1-.2-.3-.4-.5-.5l-33.5-19.5c-.2,0-.3-.1-.4-.1h0s0,0,0,0c0,0,0,0,0,0l-.8.2,30.9,40.8.8-.2c.2,0,.3-.2.4-.6l3.4-19.3c0-.3,0-.6-.3-.9Z"/><path class="cls-55" d="m635.4,163.9l-33.5-19.5c-.4-.3-.9-.9-.8-1.4l3.4-19.3c0-.5.4-.7.8-.5l33.5,19.5c.4.3.9.9.8,1.4l-3.4,19.3c0,.5-.4.7-.8.5Z"/><polygon class="cls-50" points="608 144.3 610.6 129.6 631.9 142 629.4 156.7 608 144.3"/><polygon class="cls-7" points="608 144.3 631.9 142 629.4 156.7 608 144.3"/><path class="cls-52" d="m621.3,133.5c.3-.2.7,0,1,.6.3.5.3,1,0,1.1s-.7,0-1-.6-.3-1,0-1.1Z"/><path class="cls-52" d="m633,153c0,.5.1,1,.5,1.3.4.2.7,0,.8-.4,0-.5-.1-1-.5-1.3-.4-.2-.7,0-.8.4Z"/><path class="cls-52" d="m633.5,150.7c0,.5.1,1,.5,1.3.4.2.7,0,.8-.4,0-.5-.1-1-.5-1.3s-.7,0-.8.4Z"/><path class="cls-52" d="m633.9,148.5c0,.5.1,1,.5,1.3.4.2.7,0,.8-.4s-.1-1-.5-1.3c-.4-.2-.7,0-.8.4Z"/><path class="cls-52" d="m635.8,153.1c.4.2.7,0,.8-.4,0-.5-.1-1-.5-1.3-.4-.2-.7,0-.8.4,0,.5.1,1,.5,1.3Z"/><path class="cls-52" d="m632.2,150.9c.4.2.7,0,.8-.4,0-.5-.1-1-.5-1.3-.4-.2-.7,0-.8.4,0,.5.1,1,.5,1.3Z"/><path class="cls-52" d="m604.8,137.7c0,.5.1,1,.5,1.3.4.2.7,0,.8-.4,0-.5-.1-1-.5-1.3-.4-.2-.7,0-.8.4Z"/><path class="cls-52" d="m605.3,135.4c0,.5.1,1,.5,1.3.4.2.7,0,.8-.4,0-.5-.1-1-.5-1.3-.4-.2-.7,0-.8.4Z"/><path class="cls-52" d="m605.7,133.2c0,.5.1,1,.5,1.3.4.2.7,0,.8-.4s-.1-1-.5-1.3c-.4-.2-.7,0-.8.4Z"/><path class="cls-52" d="m607.6,137.8c.4.2.7,0,.8-.4,0-.5-.1-1-.5-1.3-.4-.2-.7,0-.8.4,0,.5.1,1,.5,1.3Z"/><path class="cls-52" d="m604,135.6c.4.2.7,0,.8-.4,0-.5-.1-1-.5-1.3-.4-.2-.7,0-.8.4,0,.5.1,1,.5,1.3Z"/><path class="cls-55" d="m581.5,155.4v2.6c0,.2,0,.4.3.5l33.5,19.5c.4.2,1.1.3,1.5,0v-2.7s-35.3-20-35.3-20Z"/><path class="cls-52" d="m635.5,164.2v2.7s0,0,0,0c0,.1-.1.3-.3.4,0,0-18.4,10.7-18.4,10.7v-2.7s18.7-11.2,18.7-11.2Z"/><path class="cls-57" d="m635.5,164.3c0,.1-.1.3-.3.4l-2.7,1.6s-15.6,9.1-15.7,9.1c-.4.2-1.1.2-1.5,0l-28.6-16.6-4.9-2.9c-.2-.1-.3-.3-.3-.5s.1-.3.3-.5l18.3-10.6c.4-.3,1.2-.3,1.6,0l33.5,19.5c.3.1.4.4.3.5Z"/><path class="cls-55" d="m619.1,168.5c1.5.9,1.4,2.4-.1,3.2-1.5.8-4,.7-5.5-.2-1.5-.9-1.4-2.4.1-3.2s4-.7,5.5.2Z"/><path class="cls-57" d="m613.6,169.3v.5c0,.4.2.8.7,1.2,1,.7,2.8.7,3.9.1.5-.3.8-.7.8-1.1v-.5s-5.4-.2-5.4-.2Z"/><path class="cls-58" d="m618.3,168.3c1,.7,1,1.7,0,2.2-1.1.6-2.8.5-3.9-.1-1-.7-1-1.7,0-2.2,1.1-.6,2.8-.5,3.9.1Z"/><path class="cls-55" d="m603.5,148.5c1.5.9,1.4,2.4-.1,3.2-1.5.8-4,.7-5.5-.2-1.5-.9-1.4-2.4.1-3.2,1.5-.8,4-.7,5.5.2Z"/><path class="cls-57" d="m598,149.2v.5c0,.4.2.8.7,1.2,1,.7,2.8.7,3.9.1.5-.3.8-.7.8-1.1v-.5s-5.4-.2-5.4-.2Z"/><path class="cls-58" d="m602.7,148.3c1,.7,1,1.7,0,2.2-1.1.6-2.8.5-3.9-.1-1-.7-1-1.7,0-2.2,1.1-.6,2.8-.5,3.9.1Z"/><path class="cls-51" d="m628.5,165.1c-.6-.3-.6-.8,0-1.1l1.2-.5c.2,0,.2-.2.2-.3h0v-.5s-4.2.5-4.2.5l-4.1-.8v.5s0,0,0,0c0,.1,0,.2.2.3l1.2.6c.6.3.6.8,0,1.1l-1.4.3v.5s0,0,0,0c0,0,0,.2.2.3l1.1.7c.3.2.7.2.9,0l1-.7c.5-.3,1.4-.3,1.9,0l1,.7c.2.2.7.2.9,0l1.1-.6c.1,0,.2-.2.2-.2h0v-.5s-1.4-.4-1.4-.4Z"/><path class="cls-58" d="m627.8,161.7l-1,.7c-.5.3-1.4.3-1.9,0l-1-.7c-.2-.2-.7-.2-.9,0l-1.1.6c-.3.1-.3.4,0,.5l1.2.6c.6.3.6.8,0,1.1l-1.2.5c-.3.1-.3.4,0,.5l1.1.7c.3.2.7.2.9,0l1-.7c.5-.3,1.4-.3,1.9,0l1,.7c.2.2.7.2.9,0l1.1-.6c.3-.1.3-.4,0-.5l-1.2-.6c-.6-.3-.6-.8,0-1.1l1.2-.5c.3-.1.3-.4,0-.5l-1.1-.7c-.3-.2-.7-.2-.9,0Z"/><path class="cls-59" d="m588.4,152.7v.5c0,.2.1.5.4.7.6.4,1.6.4,2.2,0,.3-.2.5-.4.5-.6v-.5s-3.1-.1-3.1-.1Z"/><path class="cls-36" d="m591,152.2c.6.4.6.9,0,1.3-.6.3-1.6.3-2.2,0-.6-.4-.6-.9,0-1.3.6-.3,1.6-.3,2.2,0Z"/><path class="cls-46" d="m593.1,152.6v.5c0,.2.1.5.4.7.6.4,1.6.4,2.2,0,.3-.2.5-.4.5-.6v-.5s-3.1-.1-3.1-.1Z"/><path class="cls-30" d="m595.8,152.1c.6.4.6.9,0,1.3-.6.3-1.6.3-2.2,0-.6-.4-.6-.9,0-1.3.6-.3,1.6-.3,2.2,0Z"/><path class="cls-54" d="m588.3,155.9v.5c0,.2.1.5.4.7.6.4,1.6.4,2.2,0,.3-.2.5-.4.5-.6v-.5s-3.1-.1-3.1-.1Z"/><path class="cls-47" d="m590.9,155.4c.6.4.6.9,0,1.3-.6.3-1.6.3-2.2,0-.6-.4-.6-.9,0-1.3.6-.3,1.6-.3,2.2,0Z"/><path class="cls-51" d="m593,155.8v.5c0,.2.1.5.4.7.6.4,1.6.4,2.2,0,.3-.2.5-.4.5-.6v-.5s-3.1-.1-3.1-.1Z"/><path class="cls-58" d="m595.7,155.3c.6.4.6.9,0,1.3-.6.3-1.6.3-2.2,0-.6-.4-.6-.9,0-1.3.6-.3,1.6-.3,2.2,0Z"/><polygon class="cls-52" points="594.8 159.3 609.5 167.9 621.1 161.1 606.4 152.6 594.8 159.3"/><polygon class="cls-6" points="594.8 159.3 609.5 167.9 621.1 161.1 594.8 159.3"/><path class="cls-51" d="m619.1,156.6v-.2s-3.1-.9-3.1-.9v.2h0c0,.1,0,.3.2.4l1.4.9c.3.2.9.2,1.2,0h0c.2,0,.3-.2.3-.4h0Z"/><path class="cls-58" d="m618.9,156l-1.4-.9c-.3-.2-.9-.2-1.2,0h0c-.3.2-.4.5,0,.7l1.4.9c.3.2.9.2,1.2,0h0c.3-.2.4-.5,0-.7Z"/><path class="cls-51" d="m614.8,153.9v-.2s-3.1-.9-3.1-.9v.2h0c0,.1,0,.3.2.4l1.4.9c.3.2.9.2,1.2,0h0c.2,0,.3-.2.3-.4h0Z"/><path class="cls-58" d="m614.6,153.3l-1.4-.9c-.3-.2-.9-.2-1.2,0h0c-.3.2-.4.5,0,.7l1.4.9c.3.2.9.2,1.2,0h0c.3-.2.4-.5,0-.7Z"/><path class="cls-57" d="m632.7,168l-1.9,1.1c0,0-.2,0-.2-.1v-.5c0-.1,0-.2.2-.3l1.9-1.1c0,0,.2,0,.2.1v.5c0,.1,0,.2-.2.3Z"/><polygon class="cls-52" points="632.6 167.9 631 168.8 630.8 168.8 630.8 168.4 632.7 167.3 632.7 167.7 632.6 167.9"/><polygon class="cls-55" points="632.5 167.8 631.1 168.6 631.1 168.4 632.5 167.6 632.5 167.8"/><path class="cls-57" d="m629.8,169.7l-1.9,1.1c0,0-.2,0-.2-.1v-.5c0-.1,0-.2.2-.3l1.9-1.1c0,0,.2,0,.2.1v.5c0,.1,0,.2-.2.3Z"/><polygon class="cls-52" points="629.7 169.6 628.1 170.5 628 170.4 628 170 629.8 169 629.8 169.4 629.7 169.6"/><polygon class="cls-55" points="629.6 169.5 628.2 170.3 628.2 170.1 629.6 169.3 629.6 169.5"/><path class="cls-57" d="m600.3,167.4c-.3.2-.3.7,0,1.2.3.5.8.8,1.1.6.3-.2.3-.7,0-1.2-.3-.5-.8-.8-1.1-.6Z"/><path class="cls-52" d="m600.5,167.7c-.2.1-.2.5,0,.8.2.3.5.5.7.4.2-.1.2-.5,0-.8-.2-.3-.5-.5-.7-.4Z"/><path class="cls-57" d="m596.9,165.4c-.3.2-.3.7,0,1.2.3.5.8.8,1.1.6.3-.2.3-.7,0-1.2-.3-.5-.8-.8-1.1-.6Z"/><path class="cls-52" d="m597.1,165.7c-.2.1-.2.5,0,.8.2.3.5.5.7.4.2-.1.2-.5,0-.8-.2-.3-.5-.5-.7-.4Z"/></g><g id="envelope"><rect class="cls-40" x="62.5" y="210.1" width="120" height="76.6"/><rect class="cls-31" x="62.6" y="210.1" width="119.8" height="76.5"/><rect class="cls-34" x="62.7" y="210.2" width="119.7" height="76.4"/><rect class="cls-37" x="62.8" y="210.2" width="119.5" height="76.3"/><rect class="cls-29" x="62.8" y="210.3" width="119.3" height="76.2"/><rect class="cls-28" x="62.9" y="210.3" width="119.1" height="76.1"/><rect class="cls-26" x="63" y="210.4" width="119" height="76"/><rect class="cls-39" x="63.1" y="210.4" width="118.8" height="75.9"/><rect class="cls-35" x="63.2" y="210.5" width="118.6" height="75.8"/><rect class="cls-25" x="63.3" y="210.5" width="118.5" height="75.6"/><rect class="cls-25" x="63.4" y="210.6" width="118.3" height="75.5"/><rect class="cls-41" x="63.4" y="210.6" width="118.1" height="75.4"/><rect class="cls-27" x="63.5" y="210.7" width="118" height="75.3"/><rect class="cls-38" x="63.6" y="210.8" width="117.8" height="75.2"/><rect class="cls-23" x="63.7" y="210.8" width="117.6" height="75.1"/><rect class="cls-19" x="63.8" y="210.9" width="117.4" height="75"/><rect class="cls-32" x="63.9" y="210.9" width="117.3" height="74.9"/><rect class="cls-33" x="63.9" y="211" width="117.1" height="74.8"/><rect class="cls-20" x="64" y="211" width="116.9" height="74.7"/><rect class="cls-21" x="64.1" y="211.1" width="116.8" height="74.6"/><g class="cls-13"><path class="cls-4" d="m122.5,247.2c3.4-1,60,39.5,60,39.5v-76.6l-60,37.1Z"/></g><g class="cls-63"><path class="cls-5" d="m124.3,246.9c-3.4-1-61.8,39.7-61.8,39.7v-76.6l61.8,36.9Z"/></g><g class="cls-65"><path class="cls-2" d="m62.5,210.1l56.7,39.4c2,1.4,4.6,1.4,6.7,0l56.7-39.4H62.5Z"/></g><path class="cls-10" d="m62.5,210.1l56.6,36.1c2.1,1.3,4.7,1.3,6.8,0l56.6-36.1H62.5Z"/></g><g id="ips"><path class="cls-48" d="m76.5,259.2v8.8h-1.1v-8.8h1.1Z"/><path class="cls-48" d="m78.5,259.3c.5,0,1.3-.2,2.2-.2s1.9.3,2.5.7c.5.4.8,1.1.8,1.8s-.2,1.4-.7,1.9c-.6.6-1.6,1-2.7,1s-.7,0-.9,0v3.5h-1.1v-8.7Zm1.1,4.2c.2,0,.6,0,.9,0,1.4,0,2.2-.7,2.2-1.9s-.8-1.7-2.1-1.7-.9,0-1.1,0v3.4Z"/><path class="cls-48" d="m87.7,268v-.7l.9-.9c2.2-2.1,3.1-3.1,3.1-4.4,0-.9-.4-1.7-1.7-1.7s-1.4.4-1.8.7l-.4-.8c.6-.5,1.4-.9,2.4-.9,1.8,0,2.6,1.2,2.6,2.5s-1.1,2.8-2.9,4.5l-.7.6h0s3.8,0,3.8,0v.9h-5.4Z"/><path class="cls-48" d="m100,263.7c0,2.9-1.1,4.5-2.9,4.5s-2.8-1.5-2.8-4.3c0-2.8,1.2-4.4,2.9-4.4s2.8,1.6,2.8,4.3Zm-4.6.1c0,2.2.7,3.4,1.7,3.4s1.7-1.4,1.7-3.5-.5-3.4-1.7-3.4-1.7,1.2-1.7,3.5Z"/><path class="cls-48" d="m101,265.8c0-1.1.6-1.8,1.7-2.3h0c-.9-.5-1.3-1.2-1.3-1.9,0-1.3,1.1-2.2,2.6-2.2s2.5,1,2.5,2.1-.4,1.5-1.4,2h0c1.1.5,1.7,1.2,1.7,2.2,0,1.5-1.3,2.5-2.9,2.5s-2.8-1.1-2.8-2.3Zm4.6,0c0-1-.7-1.5-1.9-1.8-1,.3-1.5.9-1.5,1.7,0,.9.6,1.6,1.7,1.6s1.7-.6,1.7-1.5Zm-3.1-4.2c0,.8.6,1.3,1.6,1.6.7-.2,1.3-.8,1.3-1.5s-.4-1.4-1.4-1.4-1.5.6-1.5,1.4Z"/><path class="cls-48" d="m107.8,267.3c0-.5.3-.8.8-.8s.8.3.8.8-.3.8-.8.8-.8-.4-.8-.8Z"/><path class="cls-48" d="m112.9,260.6h0l-1.5.8-.2-.9,1.8-1h1v8.5h-1.1v-7.4Z"/><path class="cls-48" d="m117.8,267.2c.2,0,.5,0,.9,0,.7,0,1.3-.4,1.8-.8.6-.5,1-1.2,1.1-2.2h0c-.5.6-1.1.9-2,.9-1.5,0-2.5-1.1-2.5-2.6s1.2-3,2.9-3,2.8,1.4,2.8,3.6-.6,3.2-1.5,4c-.7.6-1.5,1-2.5,1.1-.4,0-.8,0-1.1,0v-.9Zm.4-4.9c0,1.1.6,1.8,1.6,1.8s1.4-.4,1.7-.9c0-.1.1-.2.1-.4,0-1.4-.5-2.5-1.7-2.5s-1.7.9-1.7,2.1Z"/><path class="cls-48" d="m123.8,268v-.7l.9-.9c2.2-2.1,3.1-3.1,3.1-4.4,0-.9-.4-1.7-1.7-1.7s-1.4.4-1.8.7l-.4-.8c.6-.5,1.4-.9,2.4-.9,1.8,0,2.6,1.2,2.6,2.5s-1.1,2.8-2.9,4.5l-.7.6h0s3.8,0,3.8,0v.9h-5.4Z"/><path class="cls-48" d="m130.5,267.3c0-.5.3-.8.8-.8s.8.3.8.8-.3.8-.8.8-.8-.4-.8-.8Z"/><path class="cls-48" d="m133.1,268v-.7l.9-.9c2.2-2.1,3.1-3.1,3.1-4.4,0-.9-.4-1.7-1.7-1.7s-1.4.4-1.8.7l-.4-.8c.6-.5,1.4-.9,2.4-.9,1.8,0,2.6,1.2,2.6,2.5s-1.1,2.8-2.9,4.5l-.7.6h0s3.8,0,3.8,0v.9h-5.4Z"/><path class="cls-48" d="m139.8,268v-.7l.9-.9c2.2-2.1,3.1-3.1,3.1-4.4,0-.9-.4-1.7-1.7-1.7s-1.4.4-1.8.7l-.4-.8c.6-.5,1.4-.9,2.4-.9,1.8,0,2.6,1.2,2.6,2.5s-1.1,2.8-2.9,4.5l-.7.6h0s3.8,0,3.8,0v.9h-5.4Z"/><path class="cls-48" d="m152,259.5v.8l-3.7,7.7h-1.2l3.7-7.5h0s-4.1,0-4.1,0v-.9h5.3Z"/><path class="cls-48" d="m153.2,267.3c0-.5.3-.8.8-.8s.8.3.8.8-.3.8-.8.8-.8-.4-.8-.8Z"/><path class="cls-48" d="m158.3,260.6h0l-1.5.8-.2-.9,1.8-1h1v8.5h-1.1v-7.4Z"/><path class="cls-48" d="m162.5,268v-.7l.9-.9c2.2-2.1,3.1-3.1,3.1-4.4,0-.9-.4-1.7-1.7-1.7s-1.4.4-1.8.7l-.4-.8c.6-.5,1.4-.9,2.4-.9,1.8,0,2.6,1.2,2.6,2.5s-1.1,2.8-2.9,4.5l-.7.6h0s3.8,0,3.8,0v.9h-5.4Z"/><path class="cls-48" d="m171.7,260.6h0l-1.5.8-.2-.9,1.8-1h1v8.5h-1.1v-7.4Z"/><path d="m575.6,370.6v8.8h-1.1v-8.8h1.1Z"/><path d="m577.6,370.7c.5,0,1.3-.2,2.2-.2s1.9.3,2.5.7c.5.4.8,1.1.8,1.8s-.2,1.4-.7,1.9c-.6.6-1.6,1-2.7,1s-.7,0-.9,0v3.5h-1.1v-8.7Zm1.1,4.2c.2,0,.6,0,.9,0,1.4,0,2.2-.7,2.2-1.9s-.8-1.7-2.1-1.7-.9,0-1.1,0v3.4Z"/><path d="m586.9,379.3v-.7l.9-.9c2.2-2.1,3.1-3.1,3.1-4.4,0-.9-.4-1.7-1.7-1.7s-1.4.4-1.8.7l-.4-.8c.6-.5,1.4-.9,2.4-.9,1.8,0,2.6,1.2,2.6,2.5s-1.1,2.8-2.9,4.5l-.7.6h0s3.8,0,3.8,0v.9h-5.4Z"/><path d="m599.1,375c0,2.9-1.1,4.5-2.9,4.5s-2.8-1.5-2.8-4.3c0-2.8,1.2-4.4,2.9-4.4s2.8,1.6,2.8,4.3Zm-4.6.1c0,2.2.7,3.4,1.7,3.4s1.7-1.4,1.7-3.5-.5-3.4-1.7-3.4-1.7,1.2-1.7,3.5Z"/><path d="m600.1,377.2c0-1.1.6-1.8,1.7-2.3h0c-.9-.5-1.3-1.2-1.3-1.9,0-1.3,1.1-2.2,2.6-2.2s2.5,1,2.5,2.1-.4,1.5-1.4,2h0c1.1.5,1.7,1.2,1.7,2.2,0,1.5-1.3,2.5-2.9,2.5s-2.8-1.1-2.8-2.3Zm4.6,0c0-1-.7-1.5-1.9-1.8-1,.3-1.5.9-1.5,1.7,0,.9.6,1.6,1.7,1.6s1.7-.6,1.7-1.5Zm-3.1-4.2c0,.8.6,1.3,1.6,1.6.7-.2,1.3-.8,1.3-1.5s-.4-1.4-1.4-1.4-1.5.6-1.5,1.4Z"/><path d="m607,378.6c0-.5.3-.8.8-.8s.8.3.8.8-.3.8-.8.8-.8-.4-.8-.8Z"/><path d="m612,371.9h0l-1.5.8-.2-.9,1.8-1h1v8.5h-1.1v-7.4Z"/><path d="m616.9,378.5c.2,0,.5,0,.9,0,.7,0,1.3-.4,1.8-.8.6-.5,1-1.2,1.1-2.2h0c-.5.6-1.1.9-2,.9-1.5,0-2.5-1.1-2.5-2.6s1.2-3,2.9-3,2.8,1.4,2.8,3.6-.6,3.2-1.5,4c-.7.6-1.5,1-2.5,1.1-.4,0-.8,0-1.1,0v-.9Zm.4-4.9c0,1.1.6,1.8,1.6,1.8s1.4-.4,1.7-.9c0-.1.1-.2.1-.4,0-1.4-.5-2.5-1.7-2.5s-1.7.9-1.7,2.1Z"/><path d="m622.9,379.3v-.7l.9-.9c2.2-2.1,3.1-3.1,3.1-4.4,0-.9-.4-1.7-1.7-1.7s-1.4.4-1.8.7l-.4-.8c.6-.5,1.4-.9,2.4-.9,1.8,0,2.6,1.2,2.6,2.5s-1.1,2.8-2.9,4.5l-.7.6h0s3.8,0,3.8,0v.9h-5.4Z"/><path d="m629.7,378.6c0-.5.3-.8.8-.8s.8.3.8.8-.3.8-.8.8-.8-.4-.8-.8Z"/><path d="m632.3,379.3v-.7l.9-.9c2.2-2.1,3.1-3.1,3.1-4.4,0-.9-.4-1.7-1.7-1.7s-1.4.4-1.8.7l-.4-.8c.6-.5,1.4-.9,2.4-.9,1.8,0,2.6,1.2,2.6,2.5s-1.1,2.8-2.9,4.5l-.7.6h0s3.8,0,3.8,0v.9h-5.4Z"/><path d="m638.9,379.3v-.7l.9-.9c2.2-2.1,3.1-3.1,3.1-4.4,0-.9-.4-1.7-1.7-1.7s-1.4.4-1.8.7l-.4-.8c.6-.5,1.4-.9,2.4-.9,1.8,0,2.6,1.2,2.6,2.5s-1.1,2.8-2.9,4.5l-.7.6h0s3.8,0,3.8,0v.9h-5.4Z"/><path d="m651.1,370.9v.8l-3.7,7.7h-1.2l3.7-7.5h0s-4.1,0-4.1,0v-.9h5.3Z"/><path d="m652.4,378.6c0-.5.3-.8.8-.8s.8.3.8.8-.3.8-.8.8-.8-.4-.8-.8Z"/><path d="m657.4,371.9h0l-1.5.8-.2-.9,1.8-1h1v8.5h-1.1v-7.4Z"/><path d="m661.6,379.3v-.7l.9-.9c2.2-2.1,3.1-3.1,3.1-4.4,0-.9-.4-1.7-1.7-1.7s-1.4.4-1.8.7l-.4-.8c.6-.5,1.4-.9,2.4-.9,1.8,0,2.6,1.2,2.6,2.5s-1.1,2.8-2.9,4.5l-.7.6h0s3.8,0,3.8,0v.9h-5.4Z"/><path d="m668.6,378c.3.2,1.1.5,1.9.5,1.5,0,1.9-.9,1.9-1.6,0-1.2-1.1-1.7-2.2-1.7h-.6v-.9h.6c.8,0,1.9-.4,1.9-1.4s-.4-1.3-1.5-1.3-1.3.3-1.7.6l-.3-.8c.4-.3,1.3-.7,2.2-.7,1.7,0,2.4,1,2.4,2s-.5,1.6-1.6,2h0c1,.2,1.9,1,1.9,2.2s-1.1,2.5-3.1,2.5-1.8-.3-2.2-.6l.3-.9Z"/><path class="cls-48" d="m575.6,187.6v8.8h-1.1v-8.8h1.1Z"/><path class="cls-48" d="m577.6,187.7c.5,0,1.3-.2,2.2-.2s1.9.3,2.5.7c.5.4.8,1.1.8,1.8s-.2,1.4-.7,1.9c-.6.6-1.6,1-2.7,1s-.7,0-.9,0v3.5h-1.1v-8.7Zm1.1,4.2c.2,0,.6,0,.9,0,1.4,0,2.2-.7,2.2-1.9s-.8-1.7-2.1-1.7-.9,0-1.1,0v3.4Z"/><path class="cls-48" d="m586.9,196.3v-.7l.9-.9c2.2-2.1,3.1-3.1,3.1-4.4,0-.9-.4-1.7-1.7-1.7s-1.4.4-1.8.7l-.4-.8c.6-.5,1.4-.9,2.4-.9,1.8,0,2.6,1.2,2.6,2.5s-1.1,2.8-2.9,4.5l-.7.6h0s3.8,0,3.8,0v.9h-5.4Z"/><path class="cls-48" d="m599.1,192c0,2.9-1.1,4.5-2.9,4.5s-2.8-1.5-2.8-4.3c0-2.8,1.2-4.4,2.9-4.4s2.8,1.6,2.8,4.3Zm-4.6.1c0,2.2.7,3.4,1.7,3.4s1.7-1.4,1.7-3.5-.5-3.4-1.7-3.4-1.7,1.2-1.7,3.5Z"/><path class="cls-48" d="m600.1,194.2c0-1.1.6-1.8,1.7-2.3h0c-.9-.5-1.3-1.2-1.3-1.9,0-1.3,1.1-2.2,2.6-2.2s2.5,1,2.5,2.1-.4,1.5-1.4,2h0c1.1.5,1.7,1.2,1.7,2.2,0,1.5-1.3,2.5-2.9,2.5s-2.8-1.1-2.8-2.3Zm4.6,0c0-1-.7-1.5-1.9-1.8-1,.3-1.5.9-1.5,1.7,0,.9.6,1.6,1.7,1.6s1.7-.6,1.7-1.5Zm-3.1-4.2c0,.8.6,1.3,1.6,1.6.7-.2,1.3-.8,1.3-1.5s-.4-1.4-1.4-1.4-1.5.6-1.5,1.4Z"/><path class="cls-48" d="m607,195.6c0-.5.3-.8.8-.8s.8.3.8.8-.3.8-.8.8-.8-.4-.8-.8Z"/><path class="cls-48" d="m612,188.9h0l-1.5.8-.2-.9,1.8-1h1v8.5h-1.1v-7.4Z"/><path class="cls-48" d="m616.9,195.5c.2,0,.5,0,.9,0,.7,0,1.3-.4,1.8-.8.6-.5,1-1.2,1.1-2.2h0c-.5.6-1.1.9-2,.9-1.5,0-2.5-1.1-2.5-2.6s1.2-3,2.9-3,2.8,1.4,2.8,3.6-.6,3.2-1.5,4c-.7.6-1.5,1-2.5,1.1-.4,0-.8,0-1.1,0v-.9Zm.4-4.9c0,1.1.6,1.8,1.6,1.8s1.4-.4,1.7-.9c0-.1.1-.2.1-.4,0-1.4-.5-2.5-1.7-2.5s-1.7.9-1.7,2.1Z"/><path class="cls-48" d="m622.9,196.3v-.7l.9-.9c2.2-2.1,3.1-3.1,3.1-4.4,0-.9-.4-1.7-1.7-1.7s-1.4.4-1.8.7l-.4-.8c.6-.5,1.4-.9,2.4-.9,1.8,0,2.6,1.2,2.6,2.5s-1.1,2.8-2.9,4.5l-.7.6h0s3.8,0,3.8,0v.9h-5.4Z"/><path class="cls-48" d="m629.7,195.6c0-.5.3-.8.8-.8s.8.3.8.8-.3.8-.8.8-.8-.4-.8-.8Z"/><path class="cls-48" d="m632.3,196.3v-.7l.9-.9c2.2-2.1,3.1-3.1,3.1-4.4,0-.9-.4-1.7-1.7-1.7s-1.4.4-1.8.7l-.4-.8c.6-.5,1.4-.9,2.4-.9,1.8,0,2.6,1.2,2.6,2.5s-1.1,2.8-2.9,4.5l-.7.6h0s3.8,0,3.8,0v.9h-5.4Z"/><path class="cls-48" d="m638.9,196.3v-.7l.9-.9c2.2-2.1,3.1-3.1,3.1-4.4,0-.9-.4-1.7-1.7-1.7s-1.4.4-1.8.7l-.4-.8c.6-.5,1.4-.9,2.4-.9,1.8,0,2.6,1.2,2.6,2.5s-1.1,2.8-2.9,4.5l-.7.6h0s3.8,0,3.8,0v.9h-5.4Z"/><path class="cls-48" d="m651.1,187.9v.8l-3.7,7.7h-1.2l3.7-7.5h0s-4.1,0-4.1,0v-.9h5.3Z"/><path class="cls-48" d="m652.4,195.6c0-.5.3-.8.8-.8s.8.3.8.8-.3.8-.8.8-.8-.4-.8-.8Z"/><path class="cls-48" d="m657.4,188.9h0l-1.5.8-.2-.9,1.8-1h1v8.5h-1.1v-7.4Z"/><path class="cls-48" d="m661.6,196.3v-.7l.9-.9c2.2-2.1,3.1-3.1,3.1-4.4,0-.9-.4-1.7-1.7-1.7s-1.4.4-1.8.7l-.4-.8c.6-.5,1.4-.9,2.4-.9,1.8,0,2.6,1.2,2.6,2.5s-1.1,2.8-2.9,4.5l-.7.6h0s3.8,0,3.8,0v.9h-5.4Z"/><path class="cls-48" d="m670.8,188.9h0l-1.5.8-.2-.9,1.8-1h1v8.5h-1.1v-7.4Z"/><path d="m575.6,80.1v8.8h-1.1v-8.8h1.1Z"/><path d="m577.6,80.2c.5,0,1.3-.2,2.2-.2s1.9.3,2.5.7c.5.4.8,1.1.8,1.8s-.2,1.4-.7,1.9c-.6.6-1.6,1-2.7,1s-.7,0-.9,0v3.5h-1.1v-8.7Zm1.1,4.2c.2,0,.6,0,.9,0,1.4,0,2.2-.7,2.2-1.9s-.8-1.7-2.1-1.7-.9,0-1.1,0v3.4Z"/><path d="m586.9,88.9v-.7l.9-.9c2.2-2.1,3.1-3.1,3.1-4.4,0-.9-.4-1.7-1.7-1.7s-1.4.4-1.8.7l-.4-.8c.6-.5,1.4-.9,2.4-.9,1.8,0,2.6,1.2,2.6,2.5s-1.1,2.8-2.9,4.5l-.7.6h0s3.8,0,3.8,0v.9h-5.4Z"/><path d="m599.1,84.6c0,2.9-1.1,4.5-2.9,4.5s-2.8-1.5-2.8-4.3c0-2.8,1.2-4.4,2.9-4.4s2.8,1.6,2.8,4.3Zm-4.6.1c0,2.2.7,3.4,1.7,3.4s1.7-1.4,1.7-3.5-.5-3.4-1.7-3.4-1.7,1.2-1.7,3.5Z"/><path d="m600.1,86.8c0-1.1.6-1.8,1.7-2.3h0c-.9-.5-1.3-1.2-1.3-1.9,0-1.3,1.1-2.2,2.6-2.2s2.5,1,2.5,2.1-.4,1.5-1.4,2h0c1.1.5,1.7,1.2,1.7,2.2,0,1.5-1.3,2.5-2.9,2.5s-2.8-1.1-2.8-2.3Zm4.6,0c0-1-.7-1.5-1.9-1.8-1,.3-1.5.9-1.5,1.7,0,.9.6,1.6,1.7,1.6s1.7-.6,1.7-1.5Zm-3.1-4.2c0,.8.6,1.3,1.6,1.6.7-.2,1.3-.8,1.3-1.5s-.4-1.4-1.4-1.4-1.5.6-1.5,1.4Z"/><path d="m607,88.2c0-.5.3-.8.8-.8s.8.3.8.8-.3.8-.8.8-.8-.4-.8-.8Z"/><path d="m612,81.5h0l-1.5.8-.2-.9,1.8-1h1v8.5h-1.1v-7.4Z"/><path d="m616.9,88.1c.2,0,.5,0,.9,0,.7,0,1.3-.4,1.8-.8.6-.5,1-1.2,1.1-2.2h0c-.5.6-1.1.9-2,.9-1.5,0-2.5-1.1-2.5-2.6s1.2-3,2.9-3,2.8,1.4,2.8,3.6-.6,3.2-1.5,4c-.7.6-1.5,1-2.5,1.1-.4,0-.8,0-1.1,0v-.9Zm.4-4.9c0,1.1.6,1.8,1.6,1.8s1.4-.4,1.7-.9c0-.1.1-.2.1-.4,0-1.4-.5-2.5-1.7-2.5s-1.7.9-1.7,2.1Z"/><path d="m622.9,88.9v-.7l.9-.9c2.2-2.1,3.1-3.1,3.1-4.4,0-.9-.4-1.7-1.7-1.7s-1.4.4-1.8.7l-.4-.8c.6-.5,1.4-.9,2.4-.9,1.8,0,2.6,1.2,2.6,2.5s-1.1,2.8-2.9,4.5l-.7.6h0s3.8,0,3.8,0v.9h-5.4Z"/><path d="m629.7,88.2c0-.5.3-.8.8-.8s.8.3.8.8-.3.8-.8.8-.8-.4-.8-.8Z"/><path d="m632.3,88.9v-.7l.9-.9c2.2-2.1,3.1-3.1,3.1-4.4,0-.9-.4-1.7-1.7-1.7s-1.4.4-1.8.7l-.4-.8c.6-.5,1.4-.9,2.4-.9,1.8,0,2.6,1.2,2.6,2.5s-1.1,2.8-2.9,4.5l-.7.6h0s3.8,0,3.8,0v.9h-5.4Z"/><path d="m638.9,88.9v-.7l.9-.9c2.2-2.1,3.1-3.1,3.1-4.4,0-.9-.4-1.7-1.7-1.7s-1.4.4-1.8.7l-.4-.8c.6-.5,1.4-.9,2.4-.9,1.8,0,2.6,1.2,2.6,2.5s-1.1,2.8-2.9,4.5l-.7.6h0s3.8,0,3.8,0v.9h-5.4Z"/><path d="m651.1,80.5v.8l-3.7,7.7h-1.2l3.7-7.5h0s-4.1,0-4.1,0v-.9h5.3Z"/><path d="m652.4,88.2c0-.5.3-.8.8-.8s.8.3.8.8-.3.8-.8.8-.8-.4-.8-.8Z"/><path d="m657.4,81.5h0l-1.5.8-.2-.9,1.8-1h1v8.5h-1.1v-7.4Z"/><path d="m661.6,88.9v-.7l.9-.9c2.2-2.1,3.1-3.1,3.1-4.4,0-.9-.4-1.7-1.7-1.7s-1.4.4-1.8.7l-.4-.8c.6-.5,1.4-.9,2.4-.9,1.8,0,2.6,1.2,2.6,2.5s-1.1,2.8-2.9,4.5l-.7.6h0s3.8,0,3.8,0v.9h-5.4Z"/><path d="m673.9,84.6c0,2.9-1.1,4.5-2.9,4.5s-2.8-1.5-2.8-4.3c0-2.8,1.2-4.4,2.9-4.4s2.8,1.6,2.8,4.3Zm-4.6.1c0,2.2.7,3.4,1.7,3.4s1.7-1.4,1.7-3.5-.5-3.4-1.7-3.4-1.7,1.2-1.7,3.5Z"/><path d="m420.6,80.1v8.8h-1.1v-8.8h1.1Z"/><path d="m422.6,80.2c.5,0,1.3-.2,2.2-.2s1.9.3,2.5.7c.5.4.8,1.1.8,1.8s-.2,1.4-.7,1.9c-.6.6-1.6,1-2.7,1s-.7,0-.9,0v3.5h-1.1v-8.7Zm1.1,4.2c.2,0,.6,0,.9,0,1.4,0,2.2-.7,2.2-1.9s-.8-1.7-2.1-1.7-.9,0-1.1,0v3.4Z"/><path d="m431.9,88.9v-.7l.9-.9c2.2-2.1,3.1-3.1,3.1-4.4,0-.9-.4-1.7-1.7-1.7s-1.4.4-1.8.7l-.4-.8c.6-.5,1.4-.9,2.4-.9,1.8,0,2.6,1.2,2.6,2.5s-1.1,2.8-2.9,4.5l-.7.6h0s3.8,0,3.8,0v.9h-5.4Z"/><path d="m444.2,84.6c0,2.9-1.1,4.5-2.9,4.5s-2.8-1.5-2.8-4.3c0-2.8,1.2-4.4,2.9-4.4s2.8,1.6,2.8,4.3Zm-4.6.1c0,2.2.7,3.4,1.7,3.4s1.7-1.4,1.7-3.5-.5-3.4-1.7-3.4-1.7,1.2-1.7,3.5Z"/><path d="m445.1,86.8c0-1.1.6-1.8,1.7-2.3h0c-.9-.5-1.3-1.2-1.3-1.9,0-1.3,1.1-2.2,2.6-2.2s2.5,1,2.5,2.1-.4,1.5-1.4,2h0c1.1.5,1.7,1.2,1.7,2.2,0,1.5-1.3,2.5-2.9,2.5s-2.8-1.1-2.8-2.3Zm4.6,0c0-1-.7-1.5-1.9-1.8-1,.3-1.5.9-1.5,1.7,0,.9.6,1.6,1.7,1.6s1.7-.6,1.7-1.5Zm-3.1-4.2c0,.8.6,1.3,1.6,1.6.7-.2,1.3-.8,1.3-1.5s-.4-1.4-1.4-1.4-1.5.6-1.5,1.4Z"/><path d="m452,88.2c0-.5.3-.8.8-.8s.8.3.8.8-.3.8-.8.8-.8-.4-.8-.8Z"/><path d="m457.1,81.5h0l-1.5.8-.2-.9,1.8-1h1v8.5h-1.1v-7.4Z"/><path d="m461.9,88.1c.2,0,.5,0,.9,0,.7,0,1.3-.4,1.8-.8.6-.5,1-1.2,1.1-2.2h0c-.5.6-1.1.9-2,.9-1.5,0-2.5-1.1-2.5-2.6s1.2-3,2.9-3,2.8,1.4,2.8,3.6-.6,3.2-1.5,4c-.6.6-1.5,1-2.5,1.1-.4,0-.8,0-1.1,0v-.9Zm.4-4.9c0,1.1.6,1.8,1.6,1.8s1.4-.4,1.7-.9c0-.1.1-.2.1-.4,0-1.4-.5-2.5-1.7-2.5s-1.7.9-1.7,2.1Z"/><path d="m467.9,88.9v-.7l.9-.9c2.2-2.1,3.1-3.1,3.1-4.4,0-.9-.4-1.7-1.7-1.7s-1.4.4-1.8.7l-.4-.8c.6-.5,1.4-.9,2.4-.9,1.8,0,2.6,1.2,2.6,2.5s-1.1,2.8-2.9,4.5l-.7.6h0s3.8,0,3.8,0v.9h-5.4Z"/><path d="m474.7,88.2c0-.5.3-.8.8-.8s.8.3.8.8-.3.8-.8.8-.8-.4-.8-.8Z"/><path d="m477.3,88.9v-.7l.9-.9c2.2-2.1,3.1-3.1,3.1-4.4,0-.9-.4-1.7-1.7-1.7s-1.4.4-1.8.7l-.4-.8c.6-.5,1.4-.9,2.4-.9,1.8,0,2.6,1.2,2.6,2.5s-1.1,2.8-2.9,4.5l-.7.6h0s3.8,0,3.8,0v.9h-5.4Z"/><path d="m483.9,88.9v-.7l.9-.9c2.2-2.1,3.1-3.1,3.1-4.4,0-.9-.4-1.7-1.7-1.7s-1.4.4-1.8.7l-.4-.8c.6-.5,1.4-.9,2.4-.9,1.8,0,2.6,1.2,2.6,2.5s-1.1,2.8-2.9,4.5l-.7.6h0s3.8,0,3.8,0v.9h-5.4Z"/><path d="m496.1,80.5v.8l-3.7,7.7h-1.2l3.7-7.5h0s-4.1,0-4.1,0v-.9h5.3Z"/><path d="m497.4,88.2c0-.5.3-.8.8-.8s.8.3.8.8-.3.8-.8.8-.8-.4-.8-.8Z"/><path d="m502.5,81.5h0l-1.5.8-.2-.9,1.8-1h1v8.5h-1.1v-7.4Z"/><path d="m509.1,81.5h0l-1.5.8-.2-.9,1.8-1h1v8.5h-1.1v-7.4Z"/><path d="m514,88.1c.2,0,.5,0,.9,0,.7,0,1.3-.4,1.8-.8.6-.5,1-1.2,1.1-2.2h0c-.5.6-1.1.9-2,.9-1.5,0-2.5-1.1-2.5-2.6s1.2-3,2.9-3,2.8,1.4,2.8,3.6-.6,3.2-1.5,4c-.6.6-1.5,1-2.5,1.1-.4,0-.8,0-1.1,0v-.9Zm.4-4.9c0,1.1.6,1.8,1.6,1.8s1.4-.4,1.7-.9c0-.1.1-.2.1-.4,0-1.4-.5-2.5-1.7-2.5s-1.7.9-1.7,2.1Z"/><path d="m575.6,269.5v8.8h-1.1v-8.8h1.1Z"/><path d="m577.6,269.6c.5,0,1.3-.2,2.2-.2s1.9.3,2.5.7c.5.4.8,1.1.8,1.8s-.2,1.4-.7,1.9c-.6.6-1.6,1-2.7,1s-.7,0-.9,0v3.5h-1.1v-8.7Zm1.1,4.2c.2,0,.6,0,.9,0,1.4,0,2.2-.7,2.2-1.9s-.8-1.7-2.1-1.7-.9,0-1.1,0v3.4Z"/><path d="m586.9,278.2v-.7l.9-.9c2.2-2.1,3.1-3.1,3.1-4.4,0-.9-.4-1.7-1.7-1.7s-1.4.4-1.8.7l-.4-.8c.6-.5,1.4-.9,2.4-.9,1.8,0,2.6,1.2,2.6,2.5s-1.1,2.8-2.9,4.5l-.7.6h0s3.8,0,3.8,0v.9h-5.4Z"/><path d="m599.1,273.9c0,2.9-1.1,4.5-2.9,4.5s-2.8-1.5-2.8-4.3c0-2.8,1.2-4.4,2.9-4.4s2.8,1.6,2.8,4.3Zm-4.6.1c0,2.2.7,3.4,1.7,3.4s1.7-1.4,1.7-3.5-.5-3.4-1.7-3.4-1.7,1.2-1.7,3.5Z"/><path d="m600.1,276.1c0-1.1.6-1.8,1.7-2.3h0c-.9-.5-1.3-1.2-1.3-1.9,0-1.3,1.1-2.2,2.6-2.2s2.5,1,2.5,2.1-.4,1.5-1.4,2h0c1.1.5,1.7,1.2,1.7,2.2,0,1.5-1.3,2.5-2.9,2.5s-2.8-1.1-2.8-2.3Zm4.6,0c0-1-.7-1.5-1.9-1.8-1,.3-1.5.9-1.5,1.7,0,.9.6,1.6,1.7,1.6s1.7-.6,1.7-1.5Zm-3.1-4.2c0,.8.6,1.3,1.6,1.6.7-.2,1.3-.8,1.3-1.5s-.4-1.4-1.4-1.4-1.5.6-1.5,1.4Z"/><path d="m607,277.6c0-.5.3-.8.8-.8s.8.3.8.8-.3.8-.8.8-.8-.4-.8-.8Z"/><path d="m612,270.8h0l-1.5.8-.2-.9,1.8-1h1v8.5h-1.1v-7.4Z"/><path d="m616.9,277.4c.2,0,.5,0,.9,0,.7,0,1.3-.4,1.8-.8.6-.5,1-1.2,1.1-2.2h0c-.5.6-1.1.9-2,.9-1.5,0-2.5-1.1-2.5-2.6s1.2-3,2.9-3,2.8,1.4,2.8,3.6-.6,3.2-1.5,4c-.7.6-1.5,1-2.5,1.1-.4,0-.8,0-1.1,0v-.9Zm.4-4.9c0,1.1.6,1.8,1.6,1.8s1.4-.4,1.7-.9c0-.1.1-.2.1-.4,0-1.4-.5-2.5-1.7-2.5s-1.7.9-1.7,2.1Z"/><path d="m622.9,278.2v-.7l.9-.9c2.2-2.1,3.1-3.1,3.1-4.4,0-.9-.4-1.7-1.7-1.7s-1.4.4-1.8.7l-.4-.8c.6-.5,1.4-.9,2.4-.9,1.8,0,2.6,1.2,2.6,2.5s-1.1,2.8-2.9,4.5l-.7.6h0s3.8,0,3.8,0v.9h-5.4Z"/><path d="m629.7,277.6c0-.5.3-.8.8-.8s.8.3.8.8-.3.8-.8.8-.8-.4-.8-.8Z"/><path d="m632.3,278.2v-.7l.9-.9c2.2-2.1,3.1-3.1,3.1-4.4,0-.9-.4-1.7-1.7-1.7s-1.4.4-1.8.7l-.4-.8c.6-.5,1.4-.9,2.4-.9,1.8,0,2.6,1.2,2.6,2.5s-1.1,2.8-2.9,4.5l-.7.6h0s3.8,0,3.8,0v.9h-5.4Z"/><path d="m638.9,278.2v-.7l.9-.9c2.2-2.1,3.1-3.1,3.1-4.4,0-.9-.4-1.7-1.7-1.7s-1.4.4-1.8.7l-.4-.8c.6-.5,1.4-.9,2.4-.9,1.8,0,2.6,1.2,2.6,2.5s-1.1,2.8-2.9,4.5l-.7.6h0s3.8,0,3.8,0v.9h-5.4Z"/><path d="m651.1,269.8v.8l-3.7,7.7h-1.2l3.7-7.5h0s-4.1,0-4.1,0v-.9h5.3Z"/><path d="m652.4,277.6c0-.5.3-.8.8-.8s.8.3.8.8-.3.8-.8.8-.8-.4-.8-.8Z"/><path d="m657.4,270.8h0l-1.5.8-.2-.9,1.8-1h1v8.5h-1.1v-7.4Z"/><path d="m661.6,278.2v-.7l.9-.9c2.2-2.1,3.1-3.1,3.1-4.4,0-.9-.4-1.7-1.7-1.7s-1.4.4-1.8.7l-.4-.8c.6-.5,1.4-.9,2.4-.9,1.8,0,2.6,1.2,2.6,2.5s-1.1,2.8-2.9,4.5l-.7.6h0s3.8,0,3.8,0v.9h-5.4Z"/><path d="m668.3,278.2v-.7l.9-.9c2.2-2.1,3.1-3.1,3.1-4.4,0-.9-.4-1.7-1.7-1.7s-1.4.4-1.8.7l-.4-.8c.6-.5,1.4-.9,2.4-.9,1.8,0,2.6,1.2,2.6,2.5s-1.1,2.8-2.9,4.5l-.7.6h0s3.8,0,3.8,0v.9h-5.4Z"/><path d="m397.6,238.6v8.8h-1.1v-8.8h1.1Z"/><path d="m399.6,238.7c.5,0,1.3-.2,2.2-.2s1.9.3,2.5.7c.5.4.8,1.1.8,1.8s-.2,1.4-.7,1.9c-.6.6-1.6,1-2.7,1s-.7,0-.9,0v3.5h-1.1v-8.7Zm1.1,4.2c.2,0,.6,0,.9,0,1.4,0,2.2-.7,2.2-1.9s-.8-1.7-2.1-1.7-.9,0-1.1,0v3.4Z"/><path d="m408.9,247.4v-.7l.9-.9c2.2-2.1,3.1-3.1,3.1-4.4,0-.9-.4-1.7-1.7-1.7s-1.4.4-1.8.7l-.4-.8c.6-.5,1.4-.9,2.4-.9,1.8,0,2.6,1.2,2.6,2.5s-1.1,2.8-2.9,4.5l-.7.6h0s3.8,0,3.8,0v.9h-5.4Z"/><path d="m421.1,243.1c0,2.9-1.1,4.5-2.9,4.5s-2.8-1.5-2.8-4.3c0-2.8,1.2-4.4,2.9-4.4s2.8,1.6,2.8,4.3Zm-4.6.1c0,2.2.7,3.4,1.7,3.4s1.7-1.4,1.7-3.5-.5-3.4-1.7-3.4-1.7,1.2-1.7,3.5Z"/><path d="m422.1,245.3c0-1.1.6-1.8,1.7-2.3h0c-.9-.5-1.3-1.2-1.3-1.9,0-1.3,1.1-2.2,2.6-2.2s2.5,1,2.5,2.1-.4,1.5-1.4,2h0c1.1.5,1.7,1.2,1.7,2.2,0,1.5-1.3,2.5-2.9,2.5s-2.8-1.1-2.8-2.3Zm4.6,0c0-1-.7-1.5-1.9-1.8-1,.3-1.5.9-1.5,1.7,0,.9.6,1.6,1.7,1.6s1.7-.6,1.7-1.5Zm-3.1-4.2c0,.8.6,1.3,1.6,1.6.7-.2,1.3-.8,1.3-1.5s-.4-1.4-1.4-1.4-1.5.6-1.5,1.4Z"/><path d="m429,246.7c0-.5.3-.8.8-.8s.8.3.8.8-.3.8-.8.8-.8-.4-.8-.8Z"/><path d="m434,240h0l-1.5.8-.2-.9,1.8-1h1v8.5h-1.1v-7.4Z"/><path d="m438.9,246.6c.2,0,.5,0,.9,0,.7,0,1.3-.4,1.8-.8.6-.5,1-1.2,1.1-2.2h0c-.5.6-1.1.9-2,.9-1.5,0-2.5-1.1-2.5-2.6s1.2-3,2.9-3,2.8,1.4,2.8,3.6-.6,3.2-1.5,4c-.7.6-1.5,1-2.5,1.1-.4,0-.8,0-1.1,0v-.9Zm.4-4.9c0,1.1.6,1.8,1.6,1.8s1.4-.4,1.7-.9c0-.1.1-.2.1-.4,0-1.4-.5-2.5-1.7-2.5s-1.7.9-1.7,2.1Z"/><path d="m444.9,247.4v-.7l.9-.9c2.2-2.1,3.1-3.1,3.1-4.4,0-.9-.4-1.7-1.7-1.7s-1.4.4-1.8.7l-.4-.8c.6-.5,1.4-.9,2.4-.9,1.8,0,2.6,1.2,2.6,2.5s-1.1,2.8-2.9,4.5l-.7.6h0s3.8,0,3.8,0v.9h-5.4Z"/><path d="m451.7,246.7c0-.5.3-.8.8-.8s.8.3.8.8-.3.8-.8.8-.8-.4-.8-.8Z"/><path d="m454.3,247.4v-.7l.9-.9c2.2-2.1,3.1-3.1,3.1-4.4,0-.9-.4-1.7-1.7-1.7s-1.4.4-1.8.7l-.4-.8c.6-.5,1.4-.9,2.4-.9,1.8,0,2.6,1.2,2.6,2.5s-1.1,2.8-2.9,4.5l-.7.6h0s3.8,0,3.8,0v.9h-5.4Z"/><path d="m460.9,247.4v-.7l.9-.9c2.2-2.1,3.1-3.1,3.1-4.4,0-.9-.4-1.7-1.7-1.7s-1.4.4-1.8.7l-.4-.8c.6-.5,1.4-.9,2.4-.9,1.8,0,2.6,1.2,2.6,2.5s-1.1,2.8-2.9,4.5l-.7.6h0s3.8,0,3.8,0v.9h-5.4Z"/><path d="m472.4,239.8c-.2,0-.5,0-.9,0-1.8.3-2.7,1.6-2.9,3h0c.4-.5,1.1-1,2-1,1.5,0,2.5,1.1,2.5,2.7s-1.1,3-2.8,3-3-1.4-3-3.6.6-3,1.4-3.8c.7-.7,1.6-1.1,2.7-1.2.3,0,.6,0,.8,0v.9Zm-.3,4.9c0-1.2-.7-1.9-1.7-1.9s-1.3.4-1.6,1c0,.1-.1.3-.1.5,0,1.4.7,2.4,1.9,2.4s1.7-.8,1.7-2Z"/><path d="m474.4,246.7c0-.5.3-.8.8-.8s.8.3.8.8-.3.8-.8.8-.8-.4-.8-.8Z"/><path d="m482,239.9h-3.2l-.3,2.2c.2,0,.4,0,.7,0,.6,0,1.3.1,1.8.5.7.4,1.2,1.1,1.2,2.2,0,1.7-1.3,2.9-3.1,2.9s-1.7-.3-2.1-.5l.3-.9c.4.2,1,.5,1.8.5s2-.7,2-1.8c0-1.1-.7-1.9-2.4-1.9s-.9,0-1.2,0l.5-4.1h4v1Z"/><path d="m483.5,245.3c0-1.1.6-1.8,1.7-2.3h0c-.9-.5-1.3-1.2-1.3-1.9,0-1.3,1.1-2.2,2.6-2.2s2.5,1,2.5,2.1-.4,1.5-1.4,2h0c1.1.5,1.7,1.2,1.7,2.2,0,1.5-1.3,2.5-2.9,2.5s-2.8-1.1-2.8-2.3Zm4.6,0c0-1-.7-1.5-1.9-1.8-1,.3-1.5.9-1.5,1.7,0,.9.6,1.6,1.7,1.6s1.7-.6,1.7-1.5Zm-3.1-4.2c0,.8.6,1.3,1.6,1.6.7-.2,1.3-.8,1.3-1.5s-.4-1.4-1.4-1.4-1.5.6-1.5,1.4Z"/><path d="m394.9,265.6c0-1.2-.1-2.7-.1-3.8h0c-.3,1-.7,2.1-1.1,3.3l-1.5,4.3h-.9l-1.4-4.2c-.4-1.2-.8-2.4-1-3.4h0c0,1.1,0,2.6-.2,3.9l-.2,3.8h-1.1l.6-8.8h1.4l1.5,4.2c.4,1.1.7,2,.9,3h0c.2-.9.5-1.8.9-3l1.6-4.2h1.4l.5,8.8h-1.1l-.2-3.8Z"/><path d="m399.2,266.6l-.9,2.8h-1.2l3-8.8h1.4l3,8.8h-1.2l-.9-2.8h-3.1Zm2.9-.9l-.9-2.5c-.2-.6-.3-1.1-.5-1.6h0c-.1.5-.3,1.1-.4,1.6l-.9,2.5h2.6Z"/><path d="m405.6,268c.5.3,1.2.6,2,.6,1.2,0,1.8-.6,1.8-1.5s-.5-1.3-1.7-1.7c-1.4-.5-2.3-1.2-2.3-2.5s1.1-2.4,2.8-2.4,1.5.2,1.9.4l-.3.9c-.3-.2-.9-.4-1.7-.4-1.2,0-1.7.7-1.7,1.3s.5,1.2,1.7,1.7c1.5.6,2.2,1.3,2.2,2.6s-1,2.5-3.1,2.5-1.8-.2-2.2-.6l.3-.9Z"/><path d="m412.2,260.6h1.1v4.2h0c.2-.3.5-.7.7-.9l2.7-3.3h1.4l-3.2,3.7,3.4,5h-1.3l-2.9-4.3-.8,1v3.3h-1.1v-8.8Z"/><path d="m421.6,269.4v-.7l.9-.9c2.2-2.1,3.1-3.1,3.1-4.4,0-.9-.4-1.7-1.7-1.7s-1.4.4-1.8.7l-.4-.8c.6-.5,1.4-.9,2.4-.9,1.8,0,2.6,1.2,2.6,2.5s-1.1,2.8-2.9,4.5l-.7.6h0s3.8,0,3.8,0v.9h-5.4Z"/><path d="m433.3,261.9h-3.2l-.3,2.2c.2,0,.4,0,.7,0,.6,0,1.3.1,1.8.5.7.4,1.2,1.1,1.2,2.2,0,1.7-1.3,2.9-3.1,2.9s-1.7-.3-2.1-.5l.3-.9c.4.2,1,.5,1.8.5s2-.7,2-1.8c0-1.1-.7-1.9-2.4-1.9s-.9,0-1.2,0l.5-4.1h4v1Z"/><path d="m440,261.9h-3.2l-.3,2.2c.2,0,.4,0,.7,0,.6,0,1.3.1,1.8.5.7.4,1.2,1.1,1.2,2.2,0,1.7-1.3,2.9-3.1,2.9s-1.7-.3-2.1-.5l.3-.9c.4.2,1,.5,1.8.5s2-.7,2-1.8c0-1.1-.7-1.9-2.4-1.9s-.9,0-1.2,0l.5-4.1h4v1Z"/><path d="m441.7,268.7c0-.5.3-.8.8-.8s.8.3.8.8-.3.8-.8.8-.8-.4-.8-.8Z"/><path d="m444.3,269.4v-.7l.9-.9c2.2-2.1,3.1-3.1,3.1-4.4,0-.9-.4-1.7-1.7-1.7s-1.4.4-1.8.7l-.4-.8c.6-.5,1.4-.9,2.4-.9,1.8,0,2.6,1.2,2.6,2.5s-1.1,2.8-2.9,4.5l-.7.6h0s3.8,0,3.8,0v.9h-5.4Z"/><path d="m456,261.9h-3.2l-.3,2.2c.2,0,.4,0,.7,0,.6,0,1.3.1,1.8.5.7.4,1.2,1.1,1.2,2.2,0,1.7-1.3,2.9-3.1,2.9s-1.7-.3-2.1-.5l.3-.9c.4.2,1,.5,1.8.5s2-.7,2-1.8c0-1.1-.7-1.9-2.4-1.9s-.9,0-1.2,0l.5-4.1h4v1Z"/><path d="m462.7,261.9h-3.2l-.3,2.2c.2,0,.4,0,.7,0,.6,0,1.3.1,1.8.5.7.4,1.2,1.1,1.2,2.2,0,1.7-1.3,2.9-3.1,2.9s-1.7-.3-2.1-.5l.3-.9c.4.2,1,.5,1.8.5s2-.7,2-1.8c0-1.1-.7-1.9-2.4-1.9s-.9,0-1.2,0l.5-4.1h4v1Z"/><path d="m464.4,268.7c0-.5.3-.8.8-.8s.8.3.8.8-.3.8-.8.8-.8-.4-.8-.8Z"/><path d="m469.5,262h0l-1.5.8-.2-.9,1.8-1h1v8.5h-1.1v-7.4Z"/><path d="m474.3,268.6c.2,0,.5,0,.9,0,.7,0,1.3-.4,1.8-.8.6-.5,1-1.2,1.1-2.2h0c-.5.6-1.1.9-2,.9-1.5,0-2.5-1.1-2.5-2.6s1.2-3,2.9-3,2.8,1.4,2.8,3.6-.6,3.2-1.5,4c-.7.6-1.5,1-2.5,1.1-.4,0-.8,0-1.1,0v-.9Zm.4-4.9c0,1.1.6,1.8,1.6,1.8s1.4-.4,1.7-.9c0-.1.1-.2.1-.4,0-1.4-.5-2.5-1.7-2.5s-1.7.9-1.7,2.1Z"/><path d="m480.3,269.4v-.7l.9-.9c2.2-2.1,3.1-3.1,3.1-4.4,0-.9-.4-1.7-1.7-1.7s-1.4.4-1.8.7l-.4-.8c.6-.5,1.4-.9,2.4-.9,1.8,0,2.6,1.2,2.6,2.5s-1.1,2.8-2.9,4.5l-.7.6h0s3.8,0,3.8,0v.9h-5.4Z"/><path d="m487.1,268.7c0-.5.3-.8.8-.8s.8.3.8.8-.3.8-.8.8-.8-.4-.8-.8Z"/><path d="m495.3,265.1c0,2.9-1.1,4.5-2.9,4.5s-2.8-1.5-2.8-4.3c0-2.8,1.2-4.4,2.9-4.4s2.8,1.6,2.8,4.3Zm-4.6.1c0,2.2.7,3.4,1.7,3.4s1.7-1.4,1.7-3.5-.5-3.4-1.7-3.4-1.7,1.2-1.7,3.5Z"/></g><g id="Layer_5"><path class="cls-17" d="m69.5,263.2l-65.3-.5c-2,0-3.7,1.6-3.7,3.6v54.2c0,2,1.6,3.6,3.6,3.6h16.5"/><polygon class="cls-24" points="27.7 324.2 17.8 328.2 20.1 324.2 17.8 320.1 27.7 324.2"/><path d="m30.8,321.4h0l-1.4.7-.2-.8,1.7-.9h.9v7.8h-1v-6.8Z"/><path d="m37,321.4h0l-1.4.7-.2-.8,1.7-.9h.9v7.8h-1v-6.8Z"/><path d="m46,324.3c0,2.7-1,4.1-2.7,4.1s-2.6-1.4-2.6-4c0-2.6,1.1-4.1,2.7-4.1s2.6,1.5,2.6,3.9Zm-4.2.1c0,2,.6,3.2,1.6,3.2s1.6-1.3,1.6-3.2-.5-3.2-1.6-3.2-1.6,1.1-1.6,3.2Z"/><path d="m49.3,321.4h0l-1.4.7-.2-.8,1.7-.9h.9v7.8h-1v-6.8Z"/><path d="m58.3,324.3c0,2.7-1,4.1-2.7,4.1s-2.6-1.4-2.6-4c0-2.6,1.1-4.1,2.7-4.1s2.6,1.5,2.6,3.9Zm-4.2.1c0,2,.6,3.2,1.6,3.2s1.6-1.3,1.6-3.2-.5-3.2-1.6-3.2-1.6,1.1-1.6,3.2Z"/><path d="m64.5,324.3c0,2.7-1,4.1-2.7,4.1s-2.6-1.4-2.6-4c0-2.6,1.1-4.1,2.7-4.1s2.6,1.5,2.6,3.9Zm-4.2.1c0,2,.6,3.2,1.6,3.2s1.6-1.3,1.6-3.2-.5-3.2-1.6-3.2-1.6,1.1-1.6,3.2Z"/><path d="m70.7,324.3c0,2.7-1,4.1-2.7,4.1s-2.6-1.4-2.6-4c0-2.6,1.1-4.1,2.7-4.1s2.6,1.5,2.6,3.9Zm-4.2.1c0,2,.6,3.2,1.6,3.2s1.6-1.3,1.6-3.2-.5-3.2-1.6-3.2-1.6,1.1-1.6,3.2Z"/><path d="m76.8,324.3c0,2.7-1,4.1-2.7,4.1s-2.6-1.4-2.6-4c0-2.6,1.1-4.1,2.7-4.1s2.6,1.5,2.6,3.9Zm-4.2.1c0,2,.6,3.2,1.6,3.2s1.6-1.3,1.6-3.2-.5-3.2-1.6-3.2-1.6,1.1-1.6,3.2Z"/><path d="m77.9,327.6c0-.4.3-.8.7-.8s.7.3.7.8-.3.8-.7.8-.7-.3-.7-.8Z"/><path d="m82.6,321.4h0l-1.4.7-.2-.8,1.7-.9h.9v7.8h-1v-6.8Z"/><path d="m88.7,321.4h0l-1.4.7-.2-.8,1.7-.9h.9v7.8h-1v-6.8Z"/><path d="m97.8,324.3c0,2.7-1,4.1-2.7,4.1s-2.6-1.4-2.6-4c0-2.6,1.1-4.1,2.7-4.1s2.6,1.5,2.6,3.9Zm-4.2.1c0,2,.6,3.2,1.6,3.2s1.6-1.3,1.6-3.2-.5-3.2-1.6-3.2-1.6,1.1-1.6,3.2Z"/><path d="m103.9,324.3c0,2.7-1,4.1-2.7,4.1s-2.6-1.4-2.6-4c0-2.6,1.1-4.1,2.7-4.1s2.6,1.5,2.6,3.9Zm-4.2.1c0,2,.6,3.2,1.6,3.2s1.6-1.3,1.6-3.2-.5-3.2-1.6-3.2-1.6,1.1-1.6,3.2Z"/><path d="m110.1,324.3c0,2.7-1,4.1-2.7,4.1s-2.6-1.4-2.6-4c0-2.6,1.1-4.1,2.7-4.1s2.6,1.5,2.6,3.9Zm-4.2.1c0,2,.6,3.2,1.6,3.2s1.6-1.3,1.6-3.2-.5-3.2-1.6-3.2-1.6,1.1-1.6,3.2Z"/><path d="m116.2,324.3c0,2.7-1,4.1-2.7,4.1s-2.6-1.4-2.6-4c0-2.6,1.1-4.1,2.7-4.1s2.6,1.5,2.6,3.9Zm-4.2.1c0,2,.6,3.2,1.6,3.2s1.6-1.3,1.6-3.2-.5-3.2-1.6-3.2-1.6,1.1-1.6,3.2Z"/><path d="m122.4,324.3c0,2.7-1,4.1-2.7,4.1s-2.6-1.4-2.6-4c0-2.6,1.1-4.1,2.7-4.1s2.6,1.5,2.6,3.9Zm-4.2.1c0,2,.6,3.2,1.6,3.2s1.6-1.3,1.6-3.2-.5-3.2-1.6-3.2-1.6,1.1-1.6,3.2Z"/><path d="m128.5,324.3c0,2.7-1,4.1-2.7,4.1s-2.6-1.4-2.6-4c0-2.6,1.1-4.1,2.7-4.1s2.6,1.5,2.6,3.9Zm-4.2.1c0,2,.6,3.2,1.6,3.2s1.6-1.3,1.6-3.2-.5-3.2-1.6-3.2-1.6,1.1-1.6,3.2Z"/><path d="m129.6,327.6c0-.4.3-.8.7-.8s.7.3.7.8-.3.8-.7.8-.7-.3-.7-.8Z"/><path d="m134.3,321.4h0l-1.4.7-.2-.8,1.7-.9h.9v7.8h-1v-6.8Z"/><path d="m140.4,321.4h0l-1.4.7-.2-.8,1.7-.9h.9v7.8h-1v-6.8Z"/><path d="m146.6,321.4h0l-1.4.7-.2-.8,1.7-.9h.9v7.8h-1v-6.8Z"/><path d="m155.6,324.3c0,2.7-1,4.1-2.7,4.1s-2.6-1.4-2.6-4c0-2.6,1.1-4.1,2.7-4.1s2.6,1.5,2.6,3.9Zm-4.2.1c0,2,.6,3.2,1.6,3.2s1.6-1.3,1.6-3.2-.5-3.2-1.6-3.2-1.6,1.1-1.6,3.2Z"/><path d="m161.8,324.3c0,2.7-1,4.1-2.7,4.1s-2.6-1.4-2.6-4c0-2.6,1.1-4.1,2.7-4.1s2.6,1.5,2.6,3.9Zm-4.2.1c0,2,.6,3.2,1.6,3.2s1.6-1.3,1.6-3.2-.5-3.2-1.6-3.2-1.6,1.1-1.6,3.2Z"/><path d="m168,324.3c0,2.7-1,4.1-2.7,4.1s-2.6-1.4-2.6-4c0-2.6,1.1-4.1,2.7-4.1s2.6,1.5,2.6,3.9Zm-4.2.1c0,2,.6,3.2,1.6,3.2s1.6-1.3,1.6-3.2-.5-3.2-1.6-3.2-1.6,1.1-1.6,3.2Z"/><path d="m171.2,321.4h0l-1.4.7-.2-.8,1.7-.9h.9v7.8h-1v-6.8Z"/><path d="m177.4,321.4h0l-1.4.7-.2-.8,1.7-.9h.9v7.8h-1v-6.8Z"/><path d="m181.3,327.6c0-.4.3-.8.7-.8s.7.3.7.8-.3.8-.7.8-.7-.3-.7-.8Z"/><path d="m188.9,324.3c0,2.7-1,4.1-2.7,4.1s-2.6-1.4-2.6-4c0-2.6,1.1-4.1,2.7-4.1s2.6,1.5,2.6,3.9Zm-4.2.1c0,2,.6,3.2,1.6,3.2s1.6-1.3,1.6-3.2-.5-3.2-1.6-3.2-1.6,1.1-1.6,3.2Z"/><path d="m192.2,321.4h0l-1.4.7-.2-.8,1.7-.9h.9v7.8h-1v-6.8Z"/><path d="m198.3,321.4h0l-1.4.7-.2-.8,1.7-.9h.9v7.8h-1v-6.8Z"/><path d="m204.5,321.4h0l-1.4.7-.2-.8,1.7-.9h.9v7.8h-1v-6.8Z"/><path d="m210.6,321.4h0l-1.4.7-.2-.8,1.7-.9h.9v7.8h-1v-6.8Z"/><path d="m219.7,324.3c0,2.7-1,4.1-2.7,4.1s-2.6-1.4-2.6-4c0-2.6,1.1-4.1,2.7-4.1s2.6,1.5,2.6,3.9Zm-4.2.1c0,2,.6,3.2,1.6,3.2s1.6-1.3,1.6-3.2-.5-3.2-1.6-3.2-1.6,1.1-1.6,3.2Z"/><path d="m225.8,324.3c0,2.7-1,4.1-2.7,4.1s-2.6-1.4-2.6-4c0-2.6,1.1-4.1,2.7-4.1s2.6,1.5,2.6,3.9Zm-4.2.1c0,2,.6,3.2,1.6,3.2s1.6-1.3,1.6-3.2-.5-3.2-1.6-3.2-1.6,1.1-1.6,3.2Z"/><path d="m229.1,321.4h0l-1.4.7-.2-.8,1.7-.9h.9v7.8h-1v-6.8Z"/><path d="m30.5,344.1h0l-1.4.7-.2-.8,1.7-.9h.9v7.8h-1v-6.8Z"/><path d="m36.7,344.1h0l-1.4.7-.2-.8,1.7-.9h.9v7.8h-1v-6.8Z"/><path d="m42.8,344.1h0l-1.4.7-.2-.8,1.7-.9h.9v7.8h-1v-6.8Z"/><path d="m49,344.1h0l-1.4.7-.2-.8,1.7-.9h.9v7.8h-1v-6.8Z"/><path d="m55.1,344.1h0l-1.4.7-.2-.8,1.7-.9h.9v7.8h-1v-6.8Z"/><path d="m61.3,344.1h0l-1.4.7-.2-.8,1.7-.9h.9v7.8h-1v-6.8Z"/><path d="m67.4,344.1h0l-1.4.7-.2-.8,1.7-.9h.9v7.8h-1v-6.8Z"/><path d="m73.6,344.1h0l-1.4.7-.2-.8,1.7-.9h.9v7.8h-1v-6.8Z"/><path d="m77.5,350.3c0-.4.3-.8.7-.8s.7.3.7.8-.3.8-.7.8-.7-.3-.7-.8Z"/><path d="m82.2,344.1h0l-1.4.7-.2-.8,1.7-.9h.9v7.8h-1v-6.8Z"/><path d="m88.4,344.1h0l-1.4.7-.2-.8,1.7-.9h.9v7.8h-1v-6.8Z"/><path d="m94.5,344.1h0l-1.4.7-.2-.8,1.7-.9h.9v7.8h-1v-6.8Z"/><path d="m100.7,344.1h0l-1.4.7-.2-.8,1.7-.9h.9v7.8h-1v-6.8Z"/><path d="m106.9,344.1h0l-1.4.7-.2-.8,1.7-.9h.9v7.8h-1v-6.8Z"/><path d="m113,344.1h0l-1.4.7-.2-.8,1.7-.9h.9v7.8h-1v-6.8Z"/><path d="m119.2,344.1h0l-1.4.7-.2-.8,1.7-.9h.9v7.8h-1v-6.8Z"/><path d="m125.3,344.1h0l-1.4.7-.2-.8,1.7-.9h.9v7.8h-1v-6.8Z"/><path d="m129.3,350.3c0-.4.3-.8.7-.8s.7.3.7.8-.3.8-.7.8-.7-.3-.7-.8Z"/><path d="m134,344.1h0l-1.4.7-.2-.8,1.7-.9h.9v7.8h-1v-6.8Z"/><path d="m140.1,344.1h0l-1.4.7-.2-.8,1.7-.9h.9v7.8h-1v-6.8Z"/><path d="m149.2,347c0,2.7-1,4.1-2.7,4.1s-2.6-1.4-2.6-4c0-2.6,1.1-4.1,2.7-4.1s2.6,1.5,2.6,3.9Zm-4.2.1c0,2,.6,3.2,1.6,3.2s1.6-1.3,1.6-3.2-.5-3.2-1.6-3.2-1.6,1.1-1.6,3.2Z"/><path d="m155.3,347c0,2.7-1,4.1-2.7,4.1s-2.6-1.4-2.6-4c0-2.6,1.1-4.1,2.7-4.1s2.6,1.5,2.6,3.9Zm-4.2.1c0,2,.6,3.2,1.6,3.2s1.6-1.3,1.6-3.2-.5-3.2-1.6-3.2-1.6,1.1-1.6,3.2Z"/><path d="m161.5,347c0,2.7-1,4.1-2.7,4.1s-2.6-1.4-2.6-4c0-2.6,1.1-4.1,2.7-4.1s2.6,1.5,2.6,3.9Zm-4.2.1c0,2,.6,3.2,1.6,3.2s1.6-1.3,1.6-3.2-.5-3.2-1.6-3.2-1.6,1.1-1.6,3.2Z"/><path d="m167.6,347c0,2.7-1,4.1-2.7,4.1s-2.6-1.4-2.6-4c0-2.6,1.1-4.1,2.7-4.1s2.6,1.5,2.6,3.9Zm-4.2.1c0,2,.6,3.2,1.6,3.2s1.6-1.3,1.6-3.2-.5-3.2-1.6-3.2-1.6,1.1-1.6,3.2Z"/><path d="m173.8,347c0,2.7-1,4.1-2.7,4.1s-2.6-1.4-2.6-4c0-2.6,1.1-4.1,2.7-4.1s2.6,1.5,2.6,3.9Zm-4.2.1c0,2,.6,3.2,1.6,3.2s1.6-1.3,1.6-3.2-.5-3.2-1.6-3.2-1.6,1.1-1.6,3.2Z"/><path d="m179.9,347c0,2.7-1,4.1-2.7,4.1s-2.6-1.4-2.6-4c0-2.6,1.1-4.1,2.7-4.1s2.6,1.5,2.6,3.9Zm-4.2.1c0,2,.6,3.2,1.6,3.2s1.6-1.3,1.6-3.2-.5-3.2-1.6-3.2-1.6,1.1-1.6,3.2Z"/><path d="m181,350.3c0-.4.3-.8.7-.8s.7.3.7.8-.3.8-.7.8-.7-.3-.7-.8Z"/><path d="m188.6,347c0,2.7-1,4.1-2.7,4.1s-2.6-1.4-2.6-4c0-2.6,1.1-4.1,2.7-4.1s2.6,1.5,2.6,3.9Zm-4.2.1c0,2,.6,3.2,1.6,3.2s1.6-1.3,1.6-3.2-.5-3.2-1.6-3.2-1.6,1.1-1.6,3.2Z"/><path d="m194.7,347c0,2.7-1,4.1-2.7,4.1s-2.6-1.4-2.6-4c0-2.6,1.1-4.1,2.7-4.1s2.6,1.5,2.6,3.9Zm-4.2.1c0,2,.6,3.2,1.6,3.2s1.6-1.3,1.6-3.2-.5-3.2-1.6-3.2-1.6,1.1-1.6,3.2Z"/><path d="m200.9,347c0,2.7-1,4.1-2.7,4.1s-2.6-1.4-2.6-4c0-2.6,1.1-4.1,2.7-4.1s2.6,1.5,2.6,3.9Zm-4.2.1c0,2,.6,3.2,1.6,3.2s1.6-1.3,1.6-3.2-.5-3.2-1.6-3.2-1.6,1.1-1.6,3.2Z"/><path d="m207.1,347c0,2.7-1,4.1-2.7,4.1s-2.6-1.4-2.6-4c0-2.6,1.1-4.1,2.7-4.1s2.6,1.5,2.6,3.9Zm-4.2.1c0,2,.6,3.2,1.6,3.2s1.6-1.3,1.6-3.2-.5-3.2-1.6-3.2-1.6,1.1-1.6,3.2Z"/><path d="m213.2,347c0,2.7-1,4.1-2.7,4.1s-2.6-1.4-2.6-4c0-2.6,1.1-4.1,2.7-4.1s2.6,1.5,2.6,3.9Zm-4.2.1c0,2,.6,3.2,1.6,3.2s1.6-1.3,1.6-3.2-.5-3.2-1.6-3.2-1.6,1.1-1.6,3.2Z"/><path d="m219.4,347c0,2.7-1,4.1-2.7,4.1s-2.6-1.4-2.6-4c0-2.6,1.1-4.1,2.7-4.1s2.6,1.5,2.6,3.9Zm-4.2.1c0,2,.6,3.2,1.6,3.2s1.6-1.3,1.6-3.2-.5-3.2-1.6-3.2-1.6,1.1-1.6,3.2Z"/><path d="m225.5,347c0,2.7-1,4.1-2.7,4.1s-2.6-1.4-2.6-4c0-2.6,1.1-4.1,2.7-4.1s2.6,1.5,2.6,3.9Zm-4.2.1c0,2,.6,3.2,1.6,3.2s1.6-1.3,1.6-3.2-.5-3.2-1.6-3.2-1.6,1.1-1.6,3.2Z"/><path d="m231.7,347c0,2.7-1,4.1-2.7,4.1s-2.6-1.4-2.6-4c0-2.6,1.1-4.1,2.7-4.1s2.6,1.5,2.6,3.9Zm-4.2.1c0,2,.6,3.2,1.6,3.2s1.6-1.3,1.6-3.2-.5-3.2-1.6-3.2-1.6,1.1-1.6,3.2Z"/><path d="m132.5,339.9c-.2-.2-.4-.5-.8-.8-.7.6-1.5.9-2.4.9-1.6,0-2.5-1.1-2.5-2.3s.7-1.9,1.6-2.4h0c-.4-.6-.7-1.2-.7-1.7,0-1,.7-2,2.1-2s1.8.7,1.8,1.7-.5,1.5-1.8,2.2h0c.7.8,1.5,1.7,2,2.3.4-.6.6-1.3.8-2.4h1c-.2,1.3-.6,2.3-1.2,3,.4.5.9.9,1.3,1.4h-1.2Zm-1.3-1.4c-.5-.5-1.4-1.5-2.3-2.5-.4.3-1,.8-1,1.6s.7,1.6,1.7,1.6,1.3-.3,1.7-.7Zm-2.5-4.9c0,.6.3,1,.6,1.5.8-.5,1.3-.9,1.3-1.6s-.3-1-.9-1-1,.6-1,1.2Z"/><path d="m31.3,365.2h0l-1.4.7-.2-.8,1.7-.9h.9v7.8h-1v-6.8Z"/><path d="m37.5,365.2h0l-1.4.7-.2-.8,1.7-.9h.9v7.8h-1v-6.8Z"/><path d="m46.5,368.1c0,2.7-1,4.1-2.7,4.1s-2.6-1.4-2.6-4c0-2.6,1.1-4.1,2.7-4.1s2.6,1.5,2.6,3.9Zm-4.2.1c0,2,.6,3.2,1.6,3.2s1.6-1.3,1.6-3.2-.5-3.2-1.6-3.2-1.6,1.1-1.6,3.2Z"/><path d="m49.8,365.2h0l-1.4.7-.2-.8,1.7-.9h.9v7.8h-1v-6.8Z"/><path d="m58.8,368.1c0,2.7-1,4.1-2.7,4.1s-2.6-1.4-2.6-4c0-2.6,1.1-4.1,2.7-4.1s2.6,1.5,2.6,3.9Zm-4.2.1c0,2,.6,3.2,1.6,3.2s1.6-1.3,1.6-3.2-.5-3.2-1.6-3.2-1.6,1.1-1.6,3.2Z"/><path d="m65,368.1c0,2.7-1,4.1-2.7,4.1s-2.6-1.4-2.6-4c0-2.6,1.1-4.1,2.7-4.1s2.6,1.5,2.6,3.9Zm-4.2.1c0,2,.6,3.2,1.6,3.2s1.6-1.3,1.6-3.2-.5-3.2-1.6-3.2-1.6,1.1-1.6,3.2Z"/><path d="m71.1,368.1c0,2.7-1,4.1-2.7,4.1s-2.6-1.4-2.6-4c0-2.6,1.1-4.1,2.7-4.1s2.6,1.5,2.6,3.9Zm-4.2.1c0,2,.6,3.2,1.6,3.2s1.6-1.3,1.6-3.2-.5-3.2-1.6-3.2-1.6,1.1-1.6,3.2Z"/><path d="m77.3,368.1c0,2.7-1,4.1-2.7,4.1s-2.6-1.4-2.6-4c0-2.6,1.1-4.1,2.7-4.1s2.6,1.5,2.6,3.9Zm-4.2.1c0,2,.6,3.2,1.6,3.2s1.6-1.3,1.6-3.2-.5-3.2-1.6-3.2-1.6,1.1-1.6,3.2Z"/><path d="m78.3,371.4c0-.4.3-.8.7-.8s.7.3.7.8-.3.8-.7.8-.7-.3-.7-.8Z"/><path d="m83,365.2h0l-1.4.7-.2-.8,1.7-.9h.9v7.8h-1v-6.8Z"/><path d="m89.2,365.2h0l-1.4.7-.2-.8,1.7-.9h.9v7.8h-1v-6.8Z"/><path d="m98.2,368.1c0,2.7-1,4.1-2.7,4.1s-2.6-1.4-2.6-4c0-2.6,1.1-4.1,2.7-4.1s2.6,1.5,2.6,3.9Zm-4.2.1c0,2,.6,3.2,1.6,3.2s1.6-1.3,1.6-3.2-.5-3.2-1.6-3.2-1.6,1.1-1.6,3.2Z"/><path d="m104.4,368.1c0,2.7-1,4.1-2.7,4.1s-2.6-1.4-2.6-4c0-2.6,1.1-4.1,2.7-4.1s2.6,1.5,2.6,3.9Zm-4.2.1c0,2,.6,3.2,1.6,3.2s1.6-1.3,1.6-3.2-.5-3.2-1.6-3.2-1.6,1.1-1.6,3.2Z"/><path d="m110.5,368.1c0,2.7-1,4.1-2.7,4.1s-2.6-1.4-2.6-4c0-2.6,1.1-4.1,2.7-4.1s2.6,1.5,2.6,3.9Zm-4.2.1c0,2,.6,3.2,1.6,3.2s1.6-1.3,1.6-3.2-.5-3.2-1.6-3.2-1.6,1.1-1.6,3.2Z"/><path d="m116.7,368.1c0,2.7-1,4.1-2.7,4.1s-2.6-1.4-2.6-4c0-2.6,1.1-4.1,2.7-4.1s2.6,1.5,2.6,3.9Zm-4.2.1c0,2,.6,3.2,1.6,3.2s1.6-1.3,1.6-3.2-.5-3.2-1.6-3.2-1.6,1.1-1.6,3.2Z"/><path d="m122.9,368.1c0,2.7-1,4.1-2.7,4.1s-2.6-1.4-2.6-4c0-2.6,1.1-4.1,2.7-4.1s2.6,1.5,2.6,3.9Zm-4.2.1c0,2,.6,3.2,1.6,3.2s1.6-1.3,1.6-3.2-.5-3.2-1.6-3.2-1.6,1.1-1.6,3.2Z"/><path d="m129,368.1c0,2.7-1,4.1-2.7,4.1s-2.6-1.4-2.6-4c0-2.6,1.1-4.1,2.7-4.1s2.6,1.5,2.6,3.9Zm-4.2.1c0,2,.6,3.2,1.6,3.2s1.6-1.3,1.6-3.2-.5-3.2-1.6-3.2-1.6,1.1-1.6,3.2Z"/><path d="m130.1,371.4c0-.4.3-.8.7-.8s.7.3.7.8-.3.8-.7.8-.7-.3-.7-.8Z"/><path d="m134.8,365.2h0l-1.4.7-.2-.8,1.7-.9h.9v7.8h-1v-6.8Z"/><path d="m140.9,365.2h0l-1.4.7-.2-.8,1.7-.9h.9v7.8h-1v-6.8Z"/><path d="m150,368.1c0,2.7-1,4.1-2.7,4.1s-2.6-1.4-2.6-4c0-2.6,1.1-4.1,2.7-4.1s2.6,1.5,2.6,3.9Zm-4.2.1c0,2,.6,3.2,1.6,3.2s1.6-1.3,1.6-3.2-.5-3.2-1.6-3.2-1.6,1.1-1.6,3.2Z"/><path d="m156.1,368.1c0,2.7-1,4.1-2.7,4.1s-2.6-1.4-2.6-4c0-2.6,1.1-4.1,2.7-4.1s2.6,1.5,2.6,3.9Zm-4.2.1c0,2,.6,3.2,1.6,3.2s1.6-1.3,1.6-3.2-.5-3.2-1.6-3.2-1.6,1.1-1.6,3.2Z"/><path d="m162.3,368.1c0,2.7-1,4.1-2.7,4.1s-2.6-1.4-2.6-4c0-2.6,1.1-4.1,2.7-4.1s2.6,1.5,2.6,3.9Zm-4.2.1c0,2,.6,3.2,1.6,3.2s1.6-1.3,1.6-3.2-.5-3.2-1.6-3.2-1.6,1.1-1.6,3.2Z"/><path d="m168.4,368.1c0,2.7-1,4.1-2.7,4.1s-2.6-1.4-2.6-4c0-2.6,1.1-4.1,2.7-4.1s2.6,1.5,2.6,3.9Zm-4.2.1c0,2,.6,3.2,1.6,3.2s1.6-1.3,1.6-3.2-.5-3.2-1.6-3.2-1.6,1.1-1.6,3.2Z"/><path d="m174.6,368.1c0,2.7-1,4.1-2.7,4.1s-2.6-1.4-2.6-4c0-2.6,1.1-4.1,2.7-4.1s2.6,1.5,2.6,3.9Zm-4.2.1c0,2,.6,3.2,1.6,3.2s1.6-1.3,1.6-3.2-.5-3.2-1.6-3.2-1.6,1.1-1.6,3.2Z"/><path d="m180.7,368.1c0,2.7-1,4.1-2.7,4.1s-2.6-1.4-2.6-4c0-2.6,1.1-4.1,2.7-4.1s2.6,1.5,2.6,3.9Zm-4.2.1c0,2,.6,3.2,1.6,3.2s1.6-1.3,1.6-3.2-.5-3.2-1.6-3.2-1.6,1.1-1.6,3.2Z"/><path d="m181.8,371.4c0-.4.3-.8.7-.8s.7.3.7.8-.3.8-.7.8-.7-.3-.7-.8Z"/><path d="m189.4,368.1c0,2.7-1,4.1-2.7,4.1s-2.6-1.4-2.6-4c0-2.6,1.1-4.1,2.7-4.1s2.6,1.5,2.6,3.9Zm-4.2.1c0,2,.6,3.2,1.6,3.2s1.6-1.3,1.6-3.2-.5-3.2-1.6-3.2-1.6,1.1-1.6,3.2Z"/><path d="m195.5,368.1c0,2.7-1,4.1-2.7,4.1s-2.6-1.4-2.6-4c0-2.6,1.1-4.1,2.7-4.1s2.6,1.5,2.6,3.9Zm-4.2.1c0,2,.6,3.2,1.6,3.2s1.6-1.3,1.6-3.2-.5-3.2-1.6-3.2-1.6,1.1-1.6,3.2Z"/><path d="m201.7,368.1c0,2.7-1,4.1-2.7,4.1s-2.6-1.4-2.6-4c0-2.6,1.1-4.1,2.7-4.1s2.6,1.5,2.6,3.9Zm-4.2.1c0,2,.6,3.2,1.6,3.2s1.6-1.3,1.6-3.2-.5-3.2-1.6-3.2-1.6,1.1-1.6,3.2Z"/><path d="m207.9,368.1c0,2.7-1,4.1-2.7,4.1s-2.6-1.4-2.6-4c0-2.6,1.1-4.1,2.7-4.1s2.6,1.5,2.6,3.9Zm-4.2.1c0,2,.6,3.2,1.6,3.2s1.6-1.3,1.6-3.2-.5-3.2-1.6-3.2-1.6,1.1-1.6,3.2Z"/><path d="m214,368.1c0,2.7-1,4.1-2.7,4.1s-2.6-1.4-2.6-4c0-2.6,1.1-4.1,2.7-4.1s2.6,1.5,2.6,3.9Zm-4.2.1c0,2,.6,3.2,1.6,3.2s1.6-1.3,1.6-3.2-.5-3.2-1.6-3.2-1.6,1.1-1.6,3.2Z"/><path d="m220.2,368.1c0,2.7-1,4.1-2.7,4.1s-2.6-1.4-2.6-4c0-2.6,1.1-4.1,2.7-4.1s2.6,1.5,2.6,3.9Zm-4.2.1c0,2,.6,3.2,1.6,3.2s1.6-1.3,1.6-3.2-.5-3.2-1.6-3.2-1.6,1.1-1.6,3.2Z"/><path d="m226.3,368.1c0,2.7-1,4.1-2.7,4.1s-2.6-1.4-2.6-4c0-2.6,1.1-4.1,2.7-4.1s2.6,1.5,2.6,3.9Zm-4.2.1c0,2,.6,3.2,1.6,3.2s1.6-1.3,1.6-3.2-.5-3.2-1.6-3.2-1.6,1.1-1.6,3.2Z"/><path d="m232.5,368.1c0,2.7-1,4.1-2.7,4.1s-2.6-1.4-2.6-4c0-2.6,1.1-4.1,2.7-4.1s2.6,1.5,2.6,3.9Zm-4.2.1c0,2,.6,3.2,1.6,3.2s1.6-1.3,1.6-3.2-.5-3.2-1.6-3.2-1.6,1.1-1.6,3.2Z"/><line class="cls-14" x1="29.7" y1="357.2" x2="232.4" y2="357.2"/><path class="cls-17" d="m390.5,243.1h-125.9c-2.8,0-5.1,2.3-5.1,5.1v71.6c0,2.9,2.4,5.3,5.3,5.3h8.8"/><polygon class="cls-24" points="280.7 325.2 270.8 329.2 273.1 325.2 270.8 321.1 280.7 325.2"/><path d="m285.3,321.2h0l-1.4.7-.2-.8,1.7-.9h.9v7.8h-1v-6.8Z"/><path d="m291.4,321.2h0l-1.4.7-.2-.8,1.7-.9h.9v7.8h-1v-6.8Z"/><path d="m300.5,324.1c0,2.7-1,4.1-2.7,4.1s-2.6-1.4-2.6-4c0-2.6,1.1-4.1,2.7-4.1s2.6,1.5,2.6,3.9Zm-4.2.1c0,2,.6,3.2,1.6,3.2s1.6-1.3,1.6-3.2-.5-3.2-1.6-3.2-1.6,1.1-1.6,3.2Z"/><path d="m303.8,321.2h0l-1.4.7-.2-.8,1.7-.9h.9v7.8h-1v-6.8Z"/><path d="m312.8,324.1c0,2.7-1,4.1-2.7,4.1s-2.6-1.4-2.6-4c0-2.6,1.1-4.1,2.7-4.1s2.6,1.5,2.6,3.9Zm-4.2.1c0,2,.6,3.2,1.6,3.2s1.6-1.3,1.6-3.2-.5-3.2-1.6-3.2-1.6,1.1-1.6,3.2Z"/><path d="m319,324.1c0,2.7-1,4.1-2.7,4.1s-2.6-1.4-2.6-4c0-2.6,1.1-4.1,2.7-4.1s2.6,1.5,2.6,3.9Zm-4.2.1c0,2,.6,3.2,1.6,3.2s1.6-1.3,1.6-3.2-.5-3.2-1.6-3.2-1.6,1.1-1.6,3.2Z"/><path d="m325.1,324.1c0,2.7-1,4.1-2.7,4.1s-2.6-1.4-2.6-4c0-2.6,1.1-4.1,2.7-4.1s2.6,1.5,2.6,3.9Zm-4.2.1c0,2,.6,3.2,1.6,3.2s1.6-1.3,1.6-3.2-.5-3.2-1.6-3.2-1.6,1.1-1.6,3.2Z"/><path d="m331.3,324.1c0,2.7-1,4.1-2.7,4.1s-2.6-1.4-2.6-4c0-2.6,1.1-4.1,2.7-4.1s2.6,1.5,2.6,3.9Zm-4.2.1c0,2,.6,3.2,1.6,3.2s1.6-1.3,1.6-3.2-.5-3.2-1.6-3.2-1.6,1.1-1.6,3.2Z"/><path d="m332.3,327.4c0-.4.3-.8.7-.8s.7.3.7.8-.3.8-.7.8-.7-.3-.7-.8Z"/><path d="m337,321.2h0l-1.4.7-.2-.8,1.7-.9h.9v7.8h-1v-6.8Z"/><path d="m343.2,321.2h0l-1.4.7-.2-.8,1.7-.9h.9v7.8h-1v-6.8Z"/><path d="m352.2,324.1c0,2.7-1,4.1-2.7,4.1s-2.6-1.4-2.6-4c0-2.6,1.1-4.1,2.7-4.1s2.6,1.5,2.6,3.9Zm-4.2.1c0,2,.6,3.2,1.6,3.2s1.6-1.3,1.6-3.2-.5-3.2-1.6-3.2-1.6,1.1-1.6,3.2Z"/><path d="m358.4,324.1c0,2.7-1,4.1-2.7,4.1s-2.6-1.4-2.6-4c0-2.6,1.1-4.1,2.7-4.1s2.6,1.5,2.6,3.9Zm-4.2.1c0,2,.6,3.2,1.6,3.2s1.6-1.3,1.6-3.2-.5-3.2-1.6-3.2-1.6,1.1-1.6,3.2Z"/><path d="m364.5,324.1c0,2.7-1,4.1-2.7,4.1s-2.6-1.4-2.6-4c0-2.6,1.1-4.1,2.7-4.1s2.6,1.5,2.6,3.9Zm-4.2.1c0,2,.6,3.2,1.6,3.2s1.6-1.3,1.6-3.2-.5-3.2-1.6-3.2-1.6,1.1-1.6,3.2Z"/><path d="m370.7,324.1c0,2.7-1,4.1-2.7,4.1s-2.6-1.4-2.6-4c0-2.6,1.1-4.1,2.7-4.1s2.6,1.5,2.6,3.9Zm-4.2.1c0,2,.6,3.2,1.6,3.2s1.6-1.3,1.6-3.2-.5-3.2-1.6-3.2-1.6,1.1-1.6,3.2Z"/><path d="m376.8,324.1c0,2.7-1,4.1-2.7,4.1s-2.6-1.4-2.6-4c0-2.6,1.1-4.1,2.7-4.1s2.6,1.5,2.6,3.9Zm-4.2.1c0,2,.6,3.2,1.6,3.2s1.6-1.3,1.6-3.2-.5-3.2-1.6-3.2-1.6,1.1-1.6,3.2Z"/><path d="m383,324.1c0,2.7-1,4.1-2.7,4.1s-2.6-1.4-2.6-4c0-2.6,1.1-4.1,2.7-4.1s2.6,1.5,2.6,3.9Zm-4.2.1c0,2,.6,3.2,1.6,3.2s1.6-1.3,1.6-3.2-.5-3.2-1.6-3.2-1.6,1.1-1.6,3.2Z"/><path d="m384.1,327.4c0-.4.3-.8.7-.8s.7.3.7.8-.3.8-.7.8-.7-.3-.7-.8Z"/><path d="m388.8,321.2h0l-1.4.7-.2-.8,1.7-.9h.9v7.8h-1v-6.8Z"/><path d="m394.9,321.2h0l-1.4.7-.2-.8,1.7-.9h.9v7.8h-1v-6.8Z"/><path d="m401.1,321.2h0l-1.4.7-.2-.8,1.7-.9h.9v7.8h-1v-6.8Z"/><path d="m410.1,324.1c0,2.7-1,4.1-2.7,4.1s-2.6-1.4-2.6-4c0-2.6,1.1-4.1,2.7-4.1s2.6,1.5,2.6,3.9Zm-4.2.1c0,2,.6,3.2,1.6,3.2s1.6-1.3,1.6-3.2-.5-3.2-1.6-3.2-1.6,1.1-1.6,3.2Z"/><path d="m416.3,324.1c0,2.7-1,4.1-2.7,4.1s-2.6-1.4-2.6-4c0-2.6,1.1-4.1,2.7-4.1s2.6,1.5,2.6,3.9Zm-4.2.1c0,2,.6,3.2,1.6,3.2s1.6-1.3,1.6-3.2-.5-3.2-1.6-3.2-1.6,1.1-1.6,3.2Z"/><path d="m422.4,324.1c0,2.7-1,4.1-2.7,4.1s-2.6-1.4-2.6-4c0-2.6,1.1-4.1,2.7-4.1s2.6,1.5,2.6,3.9Zm-4.2.1c0,2,.6,3.2,1.6,3.2s1.6-1.3,1.6-3.2-.5-3.2-1.6-3.2-1.6,1.1-1.6,3.2Z"/><path d="m425.7,321.2h0l-1.4.7-.2-.8,1.7-.9h.9v7.8h-1v-6.8Z"/><path d="m431.8,321.2h0l-1.4.7-.2-.8,1.7-.9h.9v7.8h-1v-6.8Z"/><path d="m435.8,327.4c0-.4.3-.8.7-.8s.7.3.7.8-.3.8-.7.8-.7-.3-.7-.8Z"/><path d="m443.4,324.1c0,2.7-1,4.1-2.7,4.1s-2.6-1.4-2.6-4c0-2.6,1.1-4.1,2.7-4.1s2.6,1.5,2.6,3.9Zm-4.2.1c0,2,.6,3.2,1.6,3.2s1.6-1.3,1.6-3.2-.5-3.2-1.6-3.2-1.6,1.1-1.6,3.2Z"/><path d="m446.6,321.2h0l-1.4.7-.2-.8,1.7-.9h.9v7.8h-1v-6.8Z"/><path d="m452.8,321.2h0l-1.4.7-.2-.8,1.7-.9h.9v7.8h-1v-6.8Z"/><path d="m459,321.2h0l-1.4.7-.2-.8,1.7-.9h.9v7.8h-1v-6.8Z"/><path d="m465.1,321.2h0l-1.4.7-.2-.8,1.7-.9h.9v7.8h-1v-6.8Z"/><path d="m474.2,324.1c0,2.7-1,4.1-2.7,4.1s-2.6-1.4-2.6-4c0-2.6,1.1-4.1,2.7-4.1s2.6,1.5,2.6,3.9Zm-4.2.1c0,2,.6,3.2,1.6,3.2s1.6-1.3,1.6-3.2-.5-3.2-1.6-3.2-1.6,1.1-1.6,3.2Z"/><path d="m480.3,324.1c0,2.7-1,4.1-2.7,4.1s-2.6-1.4-2.6-4c0-2.6,1.1-4.1,2.7-4.1s2.6,1.5,2.6,3.9Zm-4.2.1c0,2,.6,3.2,1.6,3.2s1.6-1.3,1.6-3.2-.5-3.2-1.6-3.2-1.6,1.1-1.6,3.2Z"/><path d="m483.6,321.2h0l-1.4.7-.2-.8,1.7-.9h.9v7.8h-1v-6.8Z"/><path d="m285,343.9h0l-1.4.7-.2-.8,1.7-.9h.9v7.8h-1v-6.8Z"/><path d="m291.1,343.9h0l-1.4.7-.2-.8,1.7-.9h.9v7.8h-1v-6.8Z"/><path d="m297.3,343.9h0l-1.4.7-.2-.8,1.7-.9h.9v7.8h-1v-6.8Z"/><path d="m303.4,343.9h0l-1.4.7-.2-.8,1.7-.9h.9v7.8h-1v-6.8Z"/><path d="m309.6,343.9h0l-1.4.7-.2-.8,1.7-.9h.9v7.8h-1v-6.8Z"/><path d="m315.7,343.9h0l-1.4.7-.2-.8,1.7-.9h.9v7.8h-1v-6.8Z"/><path d="m321.9,343.9h0l-1.4.7-.2-.8,1.7-.9h.9v7.8h-1v-6.8Z"/><path d="m328.1,343.9h0l-1.4.7-.2-.8,1.7-.9h.9v7.8h-1v-6.8Z"/><path d="m332,350.1c0-.4.3-.8.7-.8s.7.3.7.8-.3.8-.7.8-.7-.3-.7-.8Z"/><path d="m336.7,343.9h0l-1.4.7-.2-.8,1.7-.9h.9v7.8h-1v-6.8Z"/><path d="m342.9,343.9h0l-1.4.7-.2-.8,1.7-.9h.9v7.8h-1v-6.8Z"/><path d="m349,343.9h0l-1.4.7-.2-.8,1.7-.9h.9v7.8h-1v-6.8Z"/><path d="m355.2,343.9h0l-1.4.7-.2-.8,1.7-.9h.9v7.8h-1v-6.8Z"/><path d="m361.3,343.9h0l-1.4.7-.2-.8,1.7-.9h.9v7.8h-1v-6.8Z"/><path d="m367.5,343.9h0l-1.4.7-.2-.8,1.7-.9h.9v7.8h-1v-6.8Z"/><path d="m373.6,343.9h0l-1.4.7-.2-.8,1.7-.9h.9v7.8h-1v-6.8Z"/><path d="m379.8,343.9h0l-1.4.7-.2-.8,1.7-.9h.9v7.8h-1v-6.8Z"/><path d="m383.7,350.1c0-.4.3-.8.7-.8s.7.3.7.8-.3.8-.7.8-.7-.3-.7-.8Z"/><path d="m388.4,343.9h0l-1.4.7-.2-.8,1.7-.9h.9v7.8h-1v-6.8Z"/><path d="m394.6,343.9h0l-1.4.7-.2-.8,1.7-.9h.9v7.8h-1v-6.8Z"/><path d="m403.6,346.8c0,2.7-1,4.1-2.7,4.1s-2.6-1.4-2.6-4c0-2.6,1.1-4.1,2.7-4.1s2.6,1.5,2.6,3.9Zm-4.2.1c0,2,.6,3.2,1.6,3.2s1.6-1.3,1.6-3.2-.5-3.2-1.6-3.2-1.6,1.1-1.6,3.2Z"/><path d="m409.8,346.8c0,2.7-1,4.1-2.7,4.1s-2.6-1.4-2.6-4c0-2.6,1.1-4.1,2.7-4.1s2.6,1.5,2.6,3.9Zm-4.2.1c0,2,.6,3.2,1.6,3.2s1.6-1.3,1.6-3.2-.5-3.2-1.6-3.2-1.6,1.1-1.6,3.2Z"/><path d="m415.9,346.8c0,2.7-1,4.1-2.7,4.1s-2.6-1.4-2.6-4c0-2.6,1.1-4.1,2.7-4.1s2.6,1.5,2.6,3.9Zm-4.2.1c0,2,.6,3.2,1.6,3.2s1.6-1.3,1.6-3.2-.5-3.2-1.6-3.2-1.6,1.1-1.6,3.2Z"/><path d="m422.1,346.8c0,2.7-1,4.1-2.7,4.1s-2.6-1.4-2.6-4c0-2.6,1.1-4.1,2.7-4.1s2.6,1.5,2.6,3.9Zm-4.2.1c0,2,.6,3.2,1.6,3.2s1.6-1.3,1.6-3.2-.5-3.2-1.6-3.2-1.6,1.1-1.6,3.2Z"/><path d="m428.3,346.8c0,2.7-1,4.1-2.7,4.1s-2.6-1.4-2.6-4c0-2.6,1.1-4.1,2.7-4.1s2.6,1.5,2.6,3.9Zm-4.2.1c0,2,.6,3.2,1.6,3.2s1.6-1.3,1.6-3.2-.5-3.2-1.6-3.2-1.6,1.1-1.6,3.2Z"/><path d="m434.4,346.8c0,2.7-1,4.1-2.7,4.1s-2.6-1.4-2.6-4c0-2.6,1.1-4.1,2.7-4.1s2.6,1.5,2.6,3.9Zm-4.2.1c0,2,.6,3.2,1.6,3.2s1.6-1.3,1.6-3.2-.5-3.2-1.6-3.2-1.6,1.1-1.6,3.2Z"/><path d="m435.5,350.1c0-.4.3-.8.7-.8s.7.3.7.8-.3.8-.7.8-.7-.3-.7-.8Z"/><path d="m443,346.8c0,2.7-1,4.1-2.7,4.1s-2.6-1.4-2.6-4c0-2.6,1.1-4.1,2.7-4.1s2.6,1.5,2.6,3.9Zm-4.2.1c0,2,.6,3.2,1.6,3.2s1.6-1.3,1.6-3.2-.5-3.2-1.6-3.2-1.6,1.1-1.6,3.2Z"/><path d="m449.2,346.8c0,2.7-1,4.1-2.7,4.1s-2.6-1.4-2.6-4c0-2.6,1.1-4.1,2.7-4.1s2.6,1.5,2.6,3.9Zm-4.2.1c0,2,.6,3.2,1.6,3.2s1.6-1.3,1.6-3.2-.5-3.2-1.6-3.2-1.6,1.1-1.6,3.2Z"/><path d="m455.4,346.8c0,2.7-1,4.1-2.7,4.1s-2.6-1.4-2.6-4c0-2.6,1.1-4.1,2.7-4.1s2.6,1.5,2.6,3.9Zm-4.2.1c0,2,.6,3.2,1.6,3.2s1.6-1.3,1.6-3.2-.5-3.2-1.6-3.2-1.6,1.1-1.6,3.2Z"/><path d="m461.5,346.8c0,2.7-1,4.1-2.7,4.1s-2.6-1.4-2.6-4c0-2.6,1.1-4.1,2.7-4.1s2.6,1.5,2.6,3.9Zm-4.2.1c0,2,.6,3.2,1.6,3.2s1.6-1.3,1.6-3.2-.5-3.2-1.6-3.2-1.6,1.1-1.6,3.2Z"/><path d="m467.7,346.8c0,2.7-1,4.1-2.7,4.1s-2.6-1.4-2.6-4c0-2.6,1.1-4.1,2.7-4.1s2.6,1.5,2.6,3.9Zm-4.2.1c0,2,.6,3.2,1.6,3.2s1.6-1.3,1.6-3.2-.5-3.2-1.6-3.2-1.6,1.1-1.6,3.2Z"/><path d="m473.8,346.8c0,2.7-1,4.1-2.7,4.1s-2.6-1.4-2.6-4c0-2.6,1.1-4.1,2.7-4.1s2.6,1.5,2.6,3.9Zm-4.2.1c0,2,.6,3.2,1.6,3.2s1.6-1.3,1.6-3.2-.5-3.2-1.6-3.2-1.6,1.1-1.6,3.2Z"/><path d="m480,346.8c0,2.7-1,4.1-2.7,4.1s-2.6-1.4-2.6-4c0-2.6,1.1-4.1,2.7-4.1s2.6,1.5,2.6,3.9Zm-4.2.1c0,2,.6,3.2,1.6,3.2s1.6-1.3,1.6-3.2-.5-3.2-1.6-3.2-1.6,1.1-1.6,3.2Z"/><path d="m486.1,346.8c0,2.7-1,4.1-2.7,4.1s-2.6-1.4-2.6-4c0-2.6,1.1-4.1,2.7-4.1s2.6,1.5,2.6,3.9Zm-4.2.1c0,2,.6,3.2,1.6,3.2s1.6-1.3,1.6-3.2-.5-3.2-1.6-3.2-1.6,1.1-1.6,3.2Z"/><path d="m387,339.7c-.2-.2-.4-.5-.8-.8-.7.6-1.5.9-2.4.9-1.6,0-2.5-1.1-2.5-2.3s.7-1.9,1.6-2.4h0c-.4-.6-.7-1.2-.7-1.7,0-1,.7-2,2.1-2s1.8.7,1.8,1.7-.5,1.5-1.8,2.2h0c.7.8,1.5,1.7,2,2.3.4-.6.6-1.3.8-2.4h1c-.2,1.3-.6,2.3-1.2,3,.4.5.9.9,1.3,1.4h-1.2Zm-1.3-1.4c-.5-.5-1.4-1.5-2.3-2.5-.4.3-1,.8-1,1.6s.7,1.6,1.7,1.6,1.3-.3,1.7-.7Zm-2.5-4.9c0,.6.3,1,.6,1.5.8-.5,1.3-.9,1.3-1.6s-.3-1-.9-1-1,.6-1,1.2Z"/><path d="m285.8,365h0l-1.4.7-.2-.8,1.7-.9h.9v7.8h-1v-6.8Z"/><path d="m291.9,365h0l-1.4.7-.2-.8,1.7-.9h.9v7.8h-1v-6.8Z"/><path d="m301,367.9c0,2.7-1,4.1-2.7,4.1s-2.6-1.4-2.6-4c0-2.6,1.1-4.1,2.7-4.1s2.6,1.5,2.6,3.9Zm-4.2.1c0,2,.6,3.2,1.6,3.2s1.6-1.3,1.6-3.2-.5-3.2-1.6-3.2-1.6,1.1-1.6,3.2Z"/><path d="m304.2,365h0l-1.4.7-.2-.8,1.7-.9h.9v7.8h-1v-6.8Z"/><path d="m313.3,367.9c0,2.7-1,4.1-2.7,4.1s-2.6-1.4-2.6-4c0-2.6,1.1-4.1,2.7-4.1s2.6,1.5,2.6,3.9Zm-4.2.1c0,2,.6,3.2,1.6,3.2s1.6-1.3,1.6-3.2-.5-3.2-1.6-3.2-1.6,1.1-1.6,3.2Z"/><path d="m319.4,367.9c0,2.7-1,4.1-2.7,4.1s-2.6-1.4-2.6-4c0-2.6,1.1-4.1,2.7-4.1s2.6,1.5,2.6,3.9Zm-4.2.1c0,2,.6,3.2,1.6,3.2s1.6-1.3,1.6-3.2-.5-3.2-1.6-3.2-1.6,1.1-1.6,3.2Z"/><path d="m325.6,367.9c0,2.7-1,4.1-2.7,4.1s-2.6-1.4-2.6-4c0-2.6,1.1-4.1,2.7-4.1s2.6,1.5,2.6,3.9Zm-4.2.1c0,2,.6,3.2,1.6,3.2s1.6-1.3,1.6-3.2-.5-3.2-1.6-3.2-1.6,1.1-1.6,3.2Z"/><path d="m331.7,367.9c0,2.7-1,4.1-2.7,4.1s-2.6-1.4-2.6-4c0-2.6,1.1-4.1,2.7-4.1s2.6,1.5,2.6,3.9Zm-4.2.1c0,2,.6,3.2,1.6,3.2s1.6-1.3,1.6-3.2-.5-3.2-1.6-3.2-1.6,1.1-1.6,3.2Z"/><path d="m332.8,371.2c0-.4.3-.8.7-.8s.7.3.7.8-.3.8-.7.8-.7-.3-.7-.8Z"/><path d="m337.5,365h0l-1.4.7-.2-.8,1.7-.9h.9v7.8h-1v-6.8Z"/><path d="m343.6,365h0l-1.4.7-.2-.8,1.7-.9h.9v7.8h-1v-6.8Z"/><path d="m352.7,367.9c0,2.7-1,4.1-2.7,4.1s-2.6-1.4-2.6-4c0-2.6,1.1-4.1,2.7-4.1s2.6,1.5,2.6,3.9Zm-4.2.1c0,2,.6,3.2,1.6,3.2s1.6-1.3,1.6-3.2-.5-3.2-1.6-3.2-1.6,1.1-1.6,3.2Z"/><path d="m358.9,367.9c0,2.7-1,4.1-2.7,4.1s-2.6-1.4-2.6-4c0-2.6,1.1-4.1,2.7-4.1s2.6,1.5,2.6,3.9Zm-4.2.1c0,2,.6,3.2,1.6,3.2s1.6-1.3,1.6-3.2-.5-3.2-1.6-3.2-1.6,1.1-1.6,3.2Z"/><path d="m365,367.9c0,2.7-1,4.1-2.7,4.1s-2.6-1.4-2.6-4c0-2.6,1.1-4.1,2.7-4.1s2.6,1.5,2.6,3.9Zm-4.2.1c0,2,.6,3.2,1.6,3.2s1.6-1.3,1.6-3.2-.5-3.2-1.6-3.2-1.6,1.1-1.6,3.2Z"/><path d="m371.2,367.9c0,2.7-1,4.1-2.7,4.1s-2.6-1.4-2.6-4c0-2.6,1.1-4.1,2.7-4.1s2.6,1.5,2.6,3.9Zm-4.2.1c0,2,.6,3.2,1.6,3.2s1.6-1.3,1.6-3.2-.5-3.2-1.6-3.2-1.6,1.1-1.6,3.2Z"/><path d="m377.3,367.9c0,2.7-1,4.1-2.7,4.1s-2.6-1.4-2.6-4c0-2.6,1.1-4.1,2.7-4.1s2.6,1.5,2.6,3.9Zm-4.2.1c0,2,.6,3.2,1.6,3.2s1.6-1.3,1.6-3.2-.5-3.2-1.6-3.2-1.6,1.1-1.6,3.2Z"/><path d="m383.5,367.9c0,2.7-1,4.1-2.7,4.1s-2.6-1.4-2.6-4c0-2.6,1.1-4.1,2.7-4.1s2.6,1.5,2.6,3.9Zm-4.2.1c0,2,.6,3.2,1.6,3.2s1.6-1.3,1.6-3.2-.5-3.2-1.6-3.2-1.6,1.1-1.6,3.2Z"/><path d="m384.5,371.2c0-.4.3-.8.7-.8s.7.3.7.8-.3.8-.7.8-.7-.3-.7-.8Z"/><path d="m389.2,365h0l-1.4.7-.2-.8,1.7-.9h.9v7.8h-1v-6.8Z"/><path d="m395.4,365h0l-1.4.7-.2-.8,1.7-.9h.9v7.8h-1v-6.8Z"/><path d="m404.4,367.9c0,2.7-1,4.1-2.7,4.1s-2.6-1.4-2.6-4c0-2.6,1.1-4.1,2.7-4.1s2.6,1.5,2.6,3.9Zm-4.2.1c0,2,.6,3.2,1.6,3.2s1.6-1.3,1.6-3.2-.5-3.2-1.6-3.2-1.6,1.1-1.6,3.2Z"/><path d="m410.6,367.9c0,2.7-1,4.1-2.7,4.1s-2.6-1.4-2.6-4c0-2.6,1.1-4.1,2.7-4.1s2.6,1.5,2.6,3.9Zm-4.2.1c0,2,.6,3.2,1.6,3.2s1.6-1.3,1.6-3.2-.5-3.2-1.6-3.2-1.6,1.1-1.6,3.2Z"/><path d="m416.7,367.9c0,2.7-1,4.1-2.7,4.1s-2.6-1.4-2.6-4c0-2.6,1.1-4.1,2.7-4.1s2.6,1.5,2.6,3.9Zm-4.2.1c0,2,.6,3.2,1.6,3.2s1.6-1.3,1.6-3.2-.5-3.2-1.6-3.2-1.6,1.1-1.6,3.2Z"/><path d="m422.9,367.9c0,2.7-1,4.1-2.7,4.1s-2.6-1.4-2.6-4c0-2.6,1.1-4.1,2.7-4.1s2.6,1.5,2.6,3.9Zm-4.2.1c0,2,.6,3.2,1.6,3.2s1.6-1.3,1.6-3.2-.5-3.2-1.6-3.2-1.6,1.1-1.6,3.2Z"/><path d="m429,367.9c0,2.7-1,4.1-2.7,4.1s-2.6-1.4-2.6-4c0-2.6,1.1-4.1,2.7-4.1s2.6,1.5,2.6,3.9Zm-4.2.1c0,2,.6,3.2,1.6,3.2s1.6-1.3,1.6-3.2-.5-3.2-1.6-3.2-1.6,1.1-1.6,3.2Z"/><path d="m435.2,367.9c0,2.7-1,4.1-2.7,4.1s-2.6-1.4-2.6-4c0-2.6,1.1-4.1,2.7-4.1s2.6,1.5,2.6,3.9Zm-4.2.1c0,2,.6,3.2,1.6,3.2s1.6-1.3,1.6-3.2-.5-3.2-1.6-3.2-1.6,1.1-1.6,3.2Z"/><path d="m436.3,371.2c0-.4.3-.8.7-.8s.7.3.7.8-.3.8-.7.8-.7-.3-.7-.8Z"/><path d="m443.8,367.9c0,2.7-1,4.1-2.7,4.1s-2.6-1.4-2.6-4c0-2.6,1.1-4.1,2.7-4.1s2.6,1.5,2.6,3.9Zm-4.2.1c0,2,.6,3.2,1.6,3.2s1.6-1.3,1.6-3.2-.5-3.2-1.6-3.2-1.6,1.1-1.6,3.2Z"/><path d="m450,367.9c0,2.7-1,4.1-2.7,4.1s-2.6-1.4-2.6-4c0-2.6,1.1-4.1,2.7-4.1s2.6,1.5,2.6,3.9Zm-4.2.1c0,2,.6,3.2,1.6,3.2s1.6-1.3,1.6-3.2-.5-3.2-1.6-3.2-1.6,1.1-1.6,3.2Z"/><path d="m456.2,367.9c0,2.7-1,4.1-2.7,4.1s-2.6-1.4-2.6-4c0-2.6,1.1-4.1,2.7-4.1s2.6,1.5,2.6,3.9Zm-4.2.1c0,2,.6,3.2,1.6,3.2s1.6-1.3,1.6-3.2-.5-3.2-1.6-3.2-1.6,1.1-1.6,3.2Z"/><path d="m462.3,367.9c0,2.7-1,4.1-2.7,4.1s-2.6-1.4-2.6-4c0-2.6,1.1-4.1,2.7-4.1s2.6,1.5,2.6,3.9Zm-4.2.1c0,2,.6,3.2,1.6,3.2s1.6-1.3,1.6-3.2-.5-3.2-1.6-3.2-1.6,1.1-1.6,3.2Z"/><path d="m468.5,367.9c0,2.7-1,4.1-2.7,4.1s-2.6-1.4-2.6-4c0-2.6,1.1-4.1,2.7-4.1s2.6,1.5,2.6,3.9Zm-4.2.1c0,2,.6,3.2,1.6,3.2s1.6-1.3,1.6-3.2-.5-3.2-1.6-3.2-1.6,1.1-1.6,3.2Z"/><path d="m474.6,367.9c0,2.7-1,4.1-2.7,4.1s-2.6-1.4-2.6-4c0-2.6,1.1-4.1,2.7-4.1s2.6,1.5,2.6,3.9Zm-4.2.1c0,2,.6,3.2,1.6,3.2s1.6-1.3,1.6-3.2-.5-3.2-1.6-3.2-1.6,1.1-1.6,3.2Z"/><path d="m480.8,367.9c0,2.7-1,4.1-2.7,4.1s-2.6-1.4-2.6-4c0-2.6,1.1-4.1,2.7-4.1s2.6,1.5,2.6,3.9Zm-4.2.1c0,2,.6,3.2,1.6,3.2s1.6-1.3,1.6-3.2-.5-3.2-1.6-3.2-1.6,1.1-1.6,3.2Z"/><path d="m486.9,367.9c0,2.7-1,4.1-2.7,4.1s-2.6-1.4-2.6-4c0-2.6,1.1-4.1,2.7-4.1s2.6,1.5,2.6,3.9Zm-4.2.1c0,2,.6,3.2,1.6,3.2s1.6-1.3,1.6-3.2-.5-3.2-1.6-3.2-1.6,1.1-1.6,3.2Z"/><line class="cls-14" x1="283.5" y1="357.2" x2="486.9" y2="357"/><path class="cls-53" d="m252.4,366v-1.4h12.4v1.4h-12.4Zm0,4.7v-1.4h12.4v1.4h-12.4Z"/><path class="cls-17" d="m501,265.8h10.5c2.8,0,5,2.2,5,5v72.1c0,2.8-2.2,5-5,5h-16.6"/><polygon class="cls-24" points="487.9 347.9 497.8 343.8 495.5 347.9 497.8 351.9 487.9 347.9"/></g><g id="Layer_6"><polyline class="cls-15" points="192.5 224.1 384 226.2 493.7 164.2 458.9 143.5 521.3 105.2 579.4 139.6"/><polygon class="cls-24" points="594 148.2 568.5 144.4 578.3 138.9 578.4 127.6 594 148.2"/></g></g></svg>