<?xml version="1.0" encoding="UTF-8"?><svg xmlns="http://www.w3.org/2000/svg" width="1030" height="658.3" viewBox="0 0 1030 658.3"><defs><style>.cls-1,.cls-2{fill:#00a99d;}.cls-2,.cls-3,.cls-4,.cls-5{stroke-miterlimit:10;}.cls-2,.cls-3,.cls-5{stroke:#000;}.cls-2,.cls-5{stroke-width:2px;}.cls-3{stroke-width:5px;}.cls-3,.cls-5{fill:none;}.cls-4{fill:#f7931e;stroke:#f7931e;stroke-width:.5px;}</style></defs><g id="Layer_11"><path class="cls-4" d="m80.6,567.5c.7,4.1,4.7,7.2,12,9.5,7.2,2.3,16.2,3.4,27,3.4s11.5-.1,20.6-.3c9.1-.2,15.8-.3,20.2-.3,30.2,0,51.1,3.5,62.9,10.5,11.8-6.9,32.7-10.4,62.9-10.4s11.5,0,20.6.3c9.1.2,15.8.3,20.2.3,10.8,0,19.8-1.1,27-3.4,7.2-2.2,11.2-5.4,12-9.5h7v2.3c0,9-10.9,14.4-32.7,16.3-21.6.6-43.1,1.2-64.7,1.8-25.7,1-41.8,4.8-48.2,11.4h-8.1c-6.4-6.8-22.7-10.6-48.9-11.4-21.6-.6-43.3-1.2-65.1-1.7-21.6-2.2-32.2-8.6-32-18.9h7.4Z"/><path d="m255.7,620.6c0,0,.3-.2.6-.2.3,0,.6,0,.8,0s.3,0,.5.1.4.2.5.4c0,1.1,0,2,0,2.6v2c0,3.2.2,5.7.6,7.3.4,1.6,1.2,2.5,2.2,2.5s.6,0,1-.1,1-.2,1.5-.4c.5-.2,1-.4,1.4-.6.4-.2.7-.5.9-.7.4-.8.7-1.6.8-2.4.1-.8.2-1.7.2-2.7s0-2.3,0-3.1c0-.8,0-1.6-.1-2.2,0-.6,0-1.1-.1-1.5,0-.4,0-.8,0-1.1s.3-.6.9-.6.9.2,1.1.6c.2.4.4,1,.5,1.6,0,.7,0,1.4,0,2.2,0,.8,0,1.5,0,2.2v7.7c0,1.9,0,3.7,0,5.5,0,1.8,0,3.7-.1,5.5,0,.1,0,.2.1.3,0,0,.1.2.1.3,0,.3-.2.6-.7.8-.4.2-.9.3-1.3.3s-.5,0-.6,0-.2-.2-.2-.3c0-.2,0-.5,0-.7,0-.2,0-.5.1-1,0-.4.1-1,.2-1.7,0-.7.1-1.7.2-2.9v-.4c0-.1,0-.3,0-.5,0-.2,0-.4,0-.7,0-.4,0-1,0-1.6,0-.6,0-1.3,0-2-.2.2-.6.4-1,.7-.4.2-.9.4-1.4.6-.5.2-.9.3-1.4.4-.4.1-.7.2-.9.2-.9,0-1.8-.2-2.9-.7-.9-.4-1.5-1-2-1.8-.4-.8-.8-1.8-1-3-.2-1.2-.3-2.7-.4-4.3,0-1.7,0-3.5,0-5.6v-.6Z"/><path d="m285.5,646.4c0,.3-.3.5-.8.5s-1-.2-1.1-.8c0,0,0-.6,0-1.5s0-.5-.1-.6c-1.4,1-2.9,1.5-4.5,1.5s-2.2-.3-3.3-.9c-1.2-.7-1.8-1.6-1.8-2.6s.7-2,2.1-3c1.3-.9,2.5-1.4,3.6-1.4h3.7c.1-.1.2-.4.2-.8,0-1.7-.1-2.9-.4-3.8-.5-1.4-1.3-2.1-2.7-2.1s-1.8.6-2.6,1.8c-.7,1.1-1.1,2.2-1.1,3.1v.4c0,.2-.1.3-.3.3s-.5-.2-.8-.5c-.3-.3-.5-.6-.5-.8,0-.7.2-1.6.6-2.6.4-1.1.9-1.9,1.4-2.4.6-.7,1.4-1,2.3-1,1.4,0,2.7.5,3.9,1.3,1.3,1,1.9,2.2,1.9,3.5v12.2Zm-2-6c0-1-.8-1.5-2.3-1.5s-2.3.2-3.2.6c-1.2.5-1.8,1.4-1.8,2.5s.3,1.2.9,1.6c.5.3,1.1.5,1.9.5,1.1,0,2.1-.3,3.1-1,1-.7,1.4-1.6,1.4-2.6Z"/><path d="m301.9,641.5c0,.6-.5,1.4-1.5,2.4-1,1-1.9,1.6-2.5,1.8-.9.3-1.6.4-2.2.4-1.8,0-3.2-.7-4.2-2-.9-1.2-1.4-2.7-1.4-4.6s.4-4.1,1.2-6.5c1-3,2.3-4.4,3.8-4.4s1.7.4,2.9,1.1c1.2.7,1.9,1.4,2,2,.2.8.3,1.5.3,2.3,0,2.8-.4,4.1-1.2,4.1s-.4,0-.7-.2c-.3-.2-.4-.3-.4-.5s0-.2.1-.4c0-.2.2-.3.2-.3,0-.3.1-1.1.1-2.2,0-2.8-.6-4.2-1.9-4.2s-2.5,1.3-3.4,3.8c-.7,2-1,3.8-1,5.6s.2,2.5.6,3.4c.6,1.2,1.5,1.8,2.7,1.8s1.6-.4,2.5-1.1c.9-.7,1.5-1.4,2-2.2,0-.3.2-.6.5-1.1.1-.2.3-.3.5-.3s.3.2.5.5.3.6.3.8Z"/><path d="m317.5,631c-.2.1-.7.3-1.4.4-.2,0-.5,0-.8,0-.4,0-.7,0-1.1,0-.4,0-.7,0-1,0-.3,0-.4,0-.4,0,0,.1,0,.6-.1,1.5,0,.9,0,2.4,0,4.6s0,2,0,2.7c0,.7,0,1.4.2,1.9,0,.1,0,.3,0,.5,0,.2,0,.5.1.8,0,.3,0,.6.1.8,0,.2,0,.4,0,.6s-.1.4-.4.6c-.3.2-.5.3-.7.3-.5,0-.9-.5-1.2-1.5-.1-.4-.2-1.1-.3-2.2,0-1.1-.1-2.5-.1-4.3s0-3.1,0-4.1c0-.9,0-1.6.1-1.9,0,0-.3,0-.6,0-.4,0-.8,0-1.3,0-.5,0-1,0-1.4.1-.5,0-.8,0-1.1.1-.8.1-1.2-.2-1.2-.9s.2-.3.7-.5c.5-.2,1.1-.3,1.7-.5.7-.2,1.4-.3,2.2-.4.8-.1,1.5-.2,2.2-.3.3,0,.7,0,1.1,0,.4,0,.8,0,1.3,0,.5,0,.9,0,1.4,0,.5,0,.9,0,1.3,0,.7,0,1.1.3,1.1.8s-.2.7-.5.9Z"/><path d="m332.8,638c0,2.2-.5,4-1.4,5.6-1.1,1.9-2.7,2.9-4.7,2.9s-3.5-.8-4.5-2.4c-.8-1.3-1.2-3-1.2-5.2s.5-4.2,1.4-6.3c1.2-2.5,2.7-3.8,4.6-3.8s1.1.3,2,.8c2.6,1.6,3.9,4.4,3.9,8.2Zm-1.8,0c0-1.6-.2-3-.6-4.3-.6-1.8-1.6-2.7-2.9-2.7s-2.7,1-3.5,3c-.7,1.5-1,3.2-1,4.9s.2,2.9.7,4c.6,1.5,1.7,2.2,3,2.2s2.6-.8,3.4-2.5c.6-1.3.9-2.8.9-4.5Z"/><path d="m348.6,631c-.2.1-.7.3-1.4.4-.2,0-.5,0-.8,0-.4,0-.7,0-1.1,0-.4,0-.7,0-1,0-.3,0-.4,0-.4,0,0,.1,0,.6-.1,1.5,0,.9,0,2.4,0,4.6s0,2,0,2.7c0,.7,0,1.4.2,1.9,0,.1,0,.3,0,.5,0,.2,0,.5.1.8,0,.3,0,.6.1.8,0,.2,0,.4,0,.6s-.1.4-.4.6c-.3.2-.5.3-.7.3-.5,0-.9-.5-1.2-1.5-.1-.4-.2-1.1-.3-2.2,0-1.1-.1-2.5-.1-4.3s0-3.1,0-4.1c0-.9,0-1.6.1-1.9,0,0-.3,0-.6,0-.4,0-.8,0-1.3,0-.5,0-1,0-1.4.1-.5,0-.8,0-1.1.1-.8.1-1.2-.2-1.2-.9s.2-.3.7-.5c.5-.2,1.1-.3,1.7-.5.7-.2,1.4-.3,2.2-.4.8-.1,1.5-.2,2.2-.3.3,0,.7,0,1.1,0,.4,0,.8,0,1.3,0,.5,0,.9,0,1.4,0,.5,0,.9,0,1.3,0,.7,0,1.1.3,1.1.8s-.2.7-.5.9Z"/><path d="m363.3,646.4c0,.3-.3.5-.8.5s-1-.2-1.1-.8c0,0,0-.6,0-1.5s0-.5-.1-.6c-1.4,1-2.9,1.5-4.5,1.5s-2.2-.3-3.3-.9c-1.2-.7-1.8-1.6-1.8-2.6s.7-2,2.1-3c1.3-.9,2.5-1.4,3.6-1.4h3.7c.1-.1.2-.4.2-.8,0-1.7-.1-2.9-.4-3.8-.5-1.4-1.3-2.1-2.7-2.1s-1.8.6-2.6,1.8c-.7,1.1-1.1,2.2-1.1,3.1v.4c0,.2-.1.3-.3.3s-.5-.2-.8-.5c-.3-.3-.5-.6-.5-.8,0-.7.2-1.6.6-2.6.4-1.1.9-1.9,1.4-2.4.6-.7,1.4-1,2.3-1,1.4,0,2.7.5,3.9,1.3,1.3,1,1.9,2.2,1.9,3.5v12.2Zm-2-6c0-1-.8-1.5-2.3-1.5s-2.3.2-3.2.6c-1.2.5-1.8,1.4-1.8,2.5s.3,1.2.9,1.6c.5.3,1.1.5,1.9.5,1.1,0,2.1-.3,3.1-1,1-.7,1.4-1.6,1.4-2.6Z"/><path d="m377.8,645.4c0-.3,0-.6.3-.8.2-.2.7-.4,1.6-.4.3-.3.6-.9.8-1.5.2-.7.5-1.4.7-2.2s.4-1.7.5-2.6c.2-.9.3-1.8.4-2.6.1-.8.2-1.6.3-2.4,0-.7.1-1.3.1-1.8,0-.8.3-1.4.6-1.7.4-.3.8-.4,1.2-.4h1.1c.6,0,1.2,0,1.9,0,.7,0,1.4,0,2,0,.7,0,1.2,0,1.6,0,.5,0,.8.2.9.5.1.3.2.5.2.6l-.2.4c0,.1-.1.2-.2.3,0,0-.1.2-.2.2-.1,1.3-.3,2.5-.4,3.8,0,1.2-.1,2.6-.1,4s0,1.6,0,2.4c0,.8.2,1.6.3,2.4.8,0,1.2,0,1.4.3.1.2.2.5.2,1,0,.9,0,1.6,0,2.2s0,1-.2,1.4c0,.3-.2.6-.3.7-.1.1-.3.2-.6.2s-.3,0-.6-.1c-.3,0-.4-.2-.4-.4s0-.1,0-.3c0-.2,0-.5.1-.8,0-.3,0-.6.1-1s0-.7,0-1.1c-.1,0-.3,0-.5,0h-.6c-.5,0-1.2,0-2.2,0-1,0-2,0-3.1,0-1.1,0-2.1,0-3.1.2-1,0-1.7.1-2.1.2,0,.3,0,.6.1,1.1,0,.5.2.9.2,1.3,0,.1-.2.3-.4.4-.2.1-.4.2-.5.2-.1,0-.3,0-.4,0-.2,0-.3-.1-.5-.3,0-.2,0-.5-.1-.8s0-.6-.1-.9c0-.3,0-.6,0-.9,0-.3,0-.5,0-.7Zm4-1.5c.5,0,1.2,0,1.9,0,.7,0,1.4,0,2.1,0,.7,0,1.4,0,2,0,.6,0,1.2,0,1.7,0-.2-.9-.3-1.9-.3-2.8,0-.9,0-1.9,0-3s0-2.4,0-3.4c0-1.1,0-2.2.1-3.5-1.7,0-2.9,0-3.6.2-.7.1-1.1.3-1.1.5,0,.9-.2,1.9-.3,3s-.3,2.3-.6,3.4c-.2,1.2-.5,2.3-.8,3.3s-.6,1.9-1,2.6Z"/><path d="m397.3,642.4c0-1.2,0-2.4,0-3.6,0-1.2,0-2.4,0-3.5,0-1.1,0-2.1.1-3,0-.9.1-1.6.2-2.2,0,0,.1-.2.2-.4.1-.1.3-.3.5-.4s.4-.2.6-.3c.2,0,.4-.1.5-.1s.4,0,.7.3.4.3.4.5,0,.3,0,.5c0,.2-.1.4-.2.8-.1.3-.3.8-.4,1.6-.2.8-.3,1.7-.5,2.8-.2,1.1-.3,2.3-.4,3.6-.1,1.3-.2,2.6-.2,4s.2,1.3.6,1.3.4-.2.8-.5c.3-.4.7-.9,1.1-1.5.9-1.4,1.6-2.8,2.2-4.4s1.2-3.2,1.7-4.8c.3-.9.5-1.5.8-2.1.2-.5.5-.9.7-1.2.2-.3.5-.5.8-.6.3-.1.7-.2,1.1-.2,1.2,0,1.8.2,1.8.7v.3c-.3,1.3-.4,2.4-.5,3.4,0,1-.1,1.9-.2,2.8,0,.9,0,1.7,0,2.4,0,.8,0,1.6,0,2.4,0,2.5.3,4.1.9,4.8-.1.1-.3.2-.5.3-.2,0-.3,0-.5,0-.4,0-.8-.2-1.1-.5-.3-.3-.5-.7-.6-1.3-.2-.5-.3-1.1-.3-1.7,0-.6,0-1.2,0-1.8s0-1.5,0-2.4c0-.9.1-1.8.2-2.7,0-.9.2-1.6.2-2.3s0-1.1,0-1.3c0-.2-.1-.4-.3-.4-1.2,3.2-2.3,5.7-3.3,7.7-1,2-1.8,3.4-2.3,4.1-.5.8-1,1.3-1.3,1.6s-.8.4-1.4.4c-.8,0-1.4-.3-1.7-.8-.4-.5-.5-1.4-.5-2.5Z"/><path d="m426.8,641.5c0,.6-.5,1.4-1.5,2.4-1,1-1.9,1.6-2.5,1.8-.9.3-1.6.4-2.2.4-1.8,0-3.2-.7-4.2-2-.9-1.2-1.4-2.7-1.4-4.6s.4-4.1,1.2-6.5c1-3,2.3-4.4,3.8-4.4s1.7.4,2.9,1.1c1.2.7,1.9,1.4,2,2,.2.8.3,1.5.3,2.3,0,2.8-.4,4.1-1.2,4.1s-.4,0-.7-.2c-.3-.2-.4-.3-.4-.5s0-.2.1-.4c0-.2.2-.3.2-.3,0-.3.1-1.1.1-2.2,0-2.8-.6-4.2-1.9-4.2s-2.5,1.3-3.4,3.8c-.7,2-1,3.8-1,5.6s.2,2.5.6,3.4c.6,1.2,1.5,1.8,2.7,1.8s1.6-.4,2.5-1.1c.9-.7,1.5-1.4,2-2.2,0-.3.2-.6.5-1.1.1-.2.3-.3.5-.3s.3.2.5.5.3.6.3.8Z"/><path d="m444.1,646.3c-.7.5-1.1.8-1.5.8s-.6-.2-1-.5c-.4-.3-.9-.7-1.4-1.2-.5-.5-1-1-1.5-1.6-.5-.6-1-1.1-1.4-1.6s-.8-1-1.1-1.3c-.3-.4-.5-.6-.5-.7-.7-.7-1.3-1.2-1.7-1.5-.4,0-.6.2-.6.6,0,.4,0,.9,0,1.3v1.5c0,.5,0,.9,0,1.1,0,.2.1.5.3,1,.1.4.2.7.2,1s0,.3-.3.4c-.2.1-.4.2-.6.2-.5,0-.9-.2-1.1-.5-.3-.3-.4-.9-.4-1.8,0-1.5,0-2.8,0-4,0-1.1,0-2.1,0-2.9,0-.8,0-1.5,0-2.1,0-.6,0-1.1,0-1.5v-.7c0-.2,0-.3,0-.5s0-.3,0-.5c0-.1,0-.3-.1-.6,0-.3-.1-.6-.1-.9s.2-.5.6-.8.7-.4,1-.4.5,0,.7.2c.3.1.4.3.4.5s0,.4-.2.9c-.2.5-.2,1.4-.2,2.5s0,1.4,0,1.9c0,.5,0,.8,0,.9s0,.2.2.2c.3-.2.6-.5,1.1-.8.4-.4.9-.8,1.5-1.3s1.1-1,1.7-1.6,1.1-1.2,1.7-1.8c.7-.8,1.2-1.3,1.7-1.7.4-.3.7-.5.8-.5.3,0,.6.1.9.4s.3.6.3,1,0,.3,0,.4c-.5.3-1.1.8-1.8,1.3-.7.6-1.5,1.2-2.4,2-2.1,1.9-3.2,3.1-3.2,3.7s.1.4.4.8c.3.4.6.8,1.1,1.4.4.5.9,1,1.4,1.6.5.5,1,1.1,1.4,1.5.8.9,1.5,1.6,2.2,2.1.7.5,1.3,1,1.8,1.2,0,0,.1.1.1.2s0,.1-.1.2Z"/><path d="m459.7,636.2c0,2.5-.4,4.6-1.1,6.2-1,2.3-2.5,3.5-4.6,3.5s-2.6-.6-3.6-1.9c-.2,0-.3.9-.3,2.3,0,3.2.2,5.5.5,6.9,0,.1.1.4.4.9.2.5.3.8.3.9,0,.4-.3.6-.8.6s-1,0-1.3-.3c-.2-.2-.4-.8-.6-1.7-.1-.8-.2-1.5-.2-2v-9.5c0-.9,0-2,.1-3.5,0-1.7.1-2.9.2-3.5,0-.7,0-1.5,0-2.6v-2.7c0-1.7.5-2.6,1.4-2.6s.7.2.7.5c0,.6,0,1.5-.2,2.7-.1,1.2-.1,2.1-.1,2.7h.1c.6-.8,1.1-1.6,1.7-2.4.7-.9,1.5-1.3,2.5-1.3,1.7,0,2.9.8,3.8,2.2.7,1.2,1,2.7,1,4.5Zm-1.9.2c0-1.3-.1-2.5-.4-3.4-.4-1.4-1.1-2.1-2.1-2.1s-1.6.6-2.5,1.8c-.9,1.1-1.5,2.2-1.8,3.3-.3.8-.5,2.1-.7,3.8-.1,1.2-.1,1.8-.1,1.7,0,0,.1.2.3.4.1.1.3.2.4.3.4.6.8,1.2,1.2,1.7.4.6,1,.9,1.8.9,1.4,0,2.4-1.1,3.1-3.4.5-1.6.7-3.3.7-5.1Z"/><path d="m475.2,641.6c0,1.1-.7,2.1-2.2,3-1.3.8-2.6,1.2-3.8,1.2-3.4,0-5-2.1-5-6.4s.3-3.9,1-6c.9-2.8,2-4.2,3.4-4.2s2.5.6,3.9,1.8c1.4,1.2,2.1,2.4,2.1,3.6s-.6,2.9-1.9,4c-1.3,1.2-2.7,1.7-4.2,1.7s-.5-.1-1-.4c-.5-.2-.8-.4-1-.4-.3,0-.5.1-.5.3,0,2.9,1,4.3,2.9,4.3s1.9-.3,2.7-1c.5-.4,1-1,1.6-1.8.5-.6.8-.9.9-.9.6,0,.9.4.9,1Zm-2.6-6.9c0-.9-.2-1.7-.8-2.5-.5-.8-1.2-1.1-2-1.1s-1.8.6-2.4,1.9c-.5,1.1-.8,2.1-.8,3.3s.2,1.3.7,1.8c.5.5,1.1.7,1.8.7s1.9-.4,2.5-1.3c.6-.8.9-1.7.9-2.8Z"/><path d="m490.9,631c-.2.1-.7.3-1.4.4-.2,0-.5,0-.8,0-.4,0-.7,0-1.1,0-.4,0-.7,0-1,0-.3,0-.4,0-.4,0,0,.1,0,.6-.1,1.5,0,.9,0,2.4,0,4.6s0,2,0,2.7c0,.7,0,1.4.2,1.9,0,.1,0,.3,0,.5,0,.2,0,.5.1.8,0,.3,0,.6.1.8,0,.2,0,.4,0,.6s-.1.4-.4.6c-.3.2-.5.3-.7.3-.5,0-.9-.5-1.2-1.5-.1-.4-.2-1.1-.3-2.2,0-1.1-.1-2.5-.1-4.3s0-3.1,0-4.1c0-.9,0-1.6.1-1.9,0,0-.3,0-.6,0-.4,0-.8,0-1.3,0-.5,0-1,0-1.4.1-.5,0-.8,0-1.1.1-.8.1-1.2-.2-1.2-.9s.2-.3.7-.5c.5-.2,1.1-.3,1.7-.5.7-.2,1.4-.3,2.2-.4.8-.1,1.5-.2,2.2-.3.3,0,.7,0,1.1,0,.4,0,.8,0,1.3,0,.5,0,.9,0,1.4,0,.5,0,.9,0,1.3,0,.7,0,1.1.3,1.1.8s-.2.7-.5.9Z"/><path d="m495.4,642.4c0-1.2,0-2.4,0-3.6,0-1.2,0-2.4,0-3.5,0-1.1,0-2.1.1-3,0-.9.1-1.6.2-2.2,0,0,.1-.2.2-.4.1-.1.3-.3.5-.4s.4-.2.6-.3c.2,0,.4-.1.5-.1s.4,0,.7.3.4.3.4.5,0,.3,0,.5c0,.2-.1.4-.2.8-.1.3-.3.8-.4,1.6-.2.8-.3,1.7-.5,2.8-.2,1.1-.3,2.3-.4,3.6-.1,1.3-.2,2.6-.2,4s.2,1.3.6,1.3.4-.2.8-.5c.3-.4.7-.9,1.1-1.5.9-1.4,1.6-2.8,2.2-4.4s1.2-3.2,1.7-4.8c.3-.9.5-1.5.8-2.1.2-.5.5-.9.7-1.2.2-.3.5-.5.8-.6.3-.1.7-.2,1.1-.2,1.2,0,1.8.2,1.8.7v.3c-.3,1.3-.4,2.4-.5,3.4,0,1-.1,1.9-.2,2.8,0,.9,0,1.7,0,2.4,0,.8,0,1.6,0,2.4,0,2.5.3,4.1.9,4.8-.1.1-.3.2-.5.3-.2,0-.3,0-.5,0-.4,0-.8-.2-1.1-.5-.3-.3-.5-.7-.6-1.3-.2-.5-.3-1.1-.3-1.7,0-.6,0-1.2,0-1.8s0-1.5,0-2.4c0-.9.1-1.8.2-2.7,0-.9.2-1.6.2-2.3s0-1.1,0-1.3c0-.2-.1-.4-.3-.4-1.2,3.2-2.3,5.7-3.3,7.7-1,2-1.8,3.4-2.3,4.1-.5.8-1,1.3-1.3,1.6s-.8.4-1.4.4c-.8,0-1.4-.3-1.7-.8-.4-.5-.5-1.4-.5-2.5Z"/><path d="m526.4,640.2c0,1-.2,1.9-.7,2.7-.4.8-1,1.5-1.7,2-.7.5-1.5,1-2.3,1.2-.8.3-1.7.4-2.5.4s-2.1-.2-3-.5-1.8-.8-2.5-1.5c-.7-.6-1.1-1.2-1.1-1.8s0-.5.3-.7c.2-.2.4-.3.7-.3.5,0,.9.2,1.1.6.4.8.9,1.5,1.4,2,.5.5,1.3.8,2.4.8s1.6-.1,2.3-.4c.7-.3,1.3-.6,1.8-1.1.5-.5.9-1,1.1-1.6.3-.6.4-1.2.4-1.9s0-1-.1-1.3c-.1-.4-.3-.7-.5-.9-.3-.2-.6-.4-1.1-.4-.5,0-1.1-.1-1.9-.1s-.3,0-.7.2c-.4.1-.8.3-1.2.4-.5.1-.9.3-1.4.4-.5.1-.8.2-1,.2-.4,0-.7,0-.9-.2-.3-.2-.4-.4-.4-.6s.2-.7.5-1,1-.6,1.9-.6c1.2,0,2-.2,2.2-.3.3,0,.7-.3,1.1-.5.4-.2.8-.5,1.2-.9.4-.3.7-.7.9-1.2.2-.4.4-.9.4-1.4s-.1-.9-.3-1.2c-.2-.3-.6-.5-1.3-.5s-1.1,0-1.6.2c-.5.1-1,.3-1.5.5-.4.2-.8.4-1.2.6-.3.2-.5.4-.7.6,0,0,.1.2.1.3,0,.2,0,.4-.3.6-.2.2-.4.4-.6.5-.2.1-.5.3-.8.4-.3,0-.5.1-.6.1-.3,0-.5,0-.7-.2-.2-.2-.3-.4-.3-.8s.3-.8.8-1.4c.5-.5,1.2-1,2-1.5.8-.5,1.6-.9,2.5-1.2.9-.3,1.6-.5,2.3-.5s1,0,1.5.3c.5.2,1,.4,1.4.7.4.3.8.6,1,1,.3.4.4.8.4,1.1s0,.7-.3,1.1c-.2.4-.4.8-.7,1.2-.3.4-.6.8-.9,1.1-.4.4-.7.7-1.1.9,1.4.2,2.3.7,3,1.4.6.7,1,1.6,1,2.7Z"/><path d="m542.6,646.4c0,.3-.3.5-.8.5s-1-.2-1.1-.8c0,0,0-.6,0-1.5s0-.5-.1-.6c-1.4,1-2.9,1.5-4.5,1.5s-2.2-.3-3.3-.9c-1.2-.7-1.8-1.6-1.8-2.6s.7-2,2.1-3c1.3-.9,2.5-1.4,3.6-1.4h3.7c.1-.1.2-.4.2-.8,0-1.7-.1-2.9-.4-3.8-.5-1.4-1.3-2.1-2.7-2.1s-1.8.6-2.6,1.8c-.7,1.1-1.1,2.2-1.1,3.1v.4c0,.2-.1.3-.3.3s-.5-.2-.8-.5c-.3-.3-.5-.6-.5-.8,0-.7.2-1.6.6-2.6.4-1.1.9-1.9,1.4-2.4.6-.7,1.4-1,2.3-1,1.4,0,2.7.5,3.9,1.3,1.3,1,1.9,2.2,1.9,3.5v12.2Zm-2-6c0-1-.8-1.5-2.3-1.5s-2.3.2-3.2.6c-1.2.5-1.8,1.4-1.8,2.5s.3,1.2.9,1.6c.5.3,1.1.5,1.9.5,1.1,0,2.1-.3,3.1-1,1-.7,1.4-1.6,1.4-2.6Z"/><path d="m558.2,631.3c0,.4,0,.8,0,1.5,0,.6-.1,1.3-.2,2,0,.7-.1,1.4-.2,2.2,0,.7,0,1.3,0,1.8,0,1,0,1.8,0,2.4,0,.6,0,1,0,1.4,0,.3,0,.5,0,.6,0,0,0,.1.1.1.2,0,.4,0,.6-.1.2,0,.4-.1.7-.1.5,0,.9,0,1.2.2.3.1.5.3.6.5.1.2.2.5.2.8,0,.3,0,.7,0,1.1,0,1.4-.1,2.4-.3,2.9-.2.5-.7.8-1.3.8s-.4,0-.5-.1-.2-.2-.2-.4,0-.3,0-.5c0-.2.1-.4.2-.7,0-.3.1-.5.2-.8,0-.3,0-.6,0-.8,0-.5,0-.8-.2-.9-.1-.1-.4-.2-1-.2s-.7.1-.9.4c-.2.2-.6.4-.9.4s-.6-.2-.8-.5-.2-.7-.3-.9c-.4.5-.9,1-1.6,1.4-.7.4-1.5.7-2.4.7s-.6,0-1-.3c-.4-.2-.7-.4-1.1-.7-.3-.3-.6-.6-.9-.9-.3-.3-.5-.6-.6-.9-.4-.9-.5-2.5-.5-4.8v-8.1s0-.1,0-.3c0-.6.4-.9,1.3-.9s1.1.4,1.1,1.2,0,1.4,0,2.4c0,1,0,2,0,3s0,1.9,0,2.6c0,.8,0,1.3,0,1.4,0,.5,0,1,.2,1.5.1.5.3,1,.5,1.4.2.4.5.8.8,1,.3.3.6.4,1,.4.5,0,1-.2,1.5-.5s.8-.8,1.2-1.5c.3-.6.6-1.3.8-2.1.2-.8.3-1.7.3-2.6v-4.9c0-.2,0-.5-.2-.9-.1-.4-.2-.7-.2-.9s0-.3.1-.5c0-.1.2-.2.4-.3.2,0,.3-.1.4-.1.1,0,.2,0,.3,0,1,0,1.5.4,1.5,1.3Z"/><path d="m565.6,642.4c0-1.2,0-2.4,0-3.6,0-1.2,0-2.4,0-3.5,0-1.1,0-2.1.1-3,0-.9.1-1.6.2-2.2,0,0,.1-.2.2-.4.1-.1.3-.3.5-.4s.4-.2.6-.3c.2,0,.4-.1.5-.1s.4,0,.7.3.4.3.4.5,0,.3,0,.5c0,.2-.1.4-.2.8-.1.3-.3.8-.4,1.6-.2.8-.3,1.7-.5,2.8-.2,1.1-.3,2.3-.4,3.6-.1,1.3-.2,2.6-.2,4s.2,1.3.6,1.3.4-.2.8-.5c.3-.4.7-.9,1.1-1.5.9-1.4,1.6-2.8,2.2-4.4s1.2-3.2,1.7-4.8c.3-.9.5-1.5.8-2.1.2-.5.5-.9.7-1.2.2-.3.5-.5.8-.6.3-.1.7-.2,1.1-.2,1.2,0,1.8.2,1.8.7v.3c-.3,1.3-.4,2.4-.5,3.4,0,1-.1,1.9-.2,2.8,0,.9,0,1.7,0,2.4,0,.8,0,1.6,0,2.4,0,2.5.3,4.1.9,4.8-.1.1-.3.2-.5.3-.2,0-.3,0-.5,0-.4,0-.8-.2-1.1-.5-.3-.3-.5-.7-.6-1.3-.2-.5-.3-1.1-.3-1.7,0-.6,0-1.2,0-1.8s0-1.5,0-2.4c0-.9.1-1.8.2-2.7,0-.9.2-1.6.2-2.3s0-1.1,0-1.3c0-.2-.1-.4-.3-.4-1.2,3.2-2.3,5.7-3.3,7.7-1,2-1.8,3.4-2.3,4.1-.5.8-1,1.3-1.3,1.6s-.8.4-1.4.4c-.8,0-1.4-.3-1.7-.8-.4-.5-.5-1.4-.5-2.5Z"/><path d="m583.7,642.4c0-1.2,0-2.4,0-3.6,0-1.2,0-2.4,0-3.5,0-1.1,0-2.1.1-3,0-.9.1-1.6.2-2.2,0,0,.1-.2.2-.4.1-.1.3-.3.5-.4s.4-.2.6-.3c.2,0,.4-.1.5-.1s.4,0,.7.3.4.3.4.5,0,.3,0,.5c0,.2-.1.4-.2.8-.1.3-.3.8-.4,1.6-.2.8-.3,1.7-.5,2.8-.2,1.1-.3,2.3-.4,3.6-.1,1.3-.2,2.6-.2,4s.2,1.3.6,1.3.4-.2.8-.5c.3-.4.7-.9,1.1-1.5.9-1.4,1.6-2.8,2.2-4.4s1.2-3.2,1.7-4.8c.3-.9.5-1.5.8-2.1.2-.5.5-.9.7-1.2.2-.3.5-.5.8-.6.3-.1.7-.2,1.1-.2,1.2,0,1.8.2,1.8.7v.3c-.3,1.3-.4,2.4-.5,3.4,0,1-.1,1.9-.2,2.8,0,.9,0,1.7,0,2.4,0,.8,0,1.6,0,2.4,0,2.5.3,4.1.9,4.8-.1.1-.3.2-.5.3-.2,0-.3,0-.5,0-.4,0-.8-.2-1.1-.5-.3-.3-.5-.7-.6-1.3-.2-.5-.3-1.1-.3-1.7,0-.6,0-1.2,0-1.8s0-1.5,0-2.4c0-.9.1-1.8.2-2.7,0-.9.2-1.6.2-2.3s0-1.1,0-1.3c0-.2-.1-.4-.3-.4-1.2,3.2-2.3,5.7-3.3,7.7-1,2-1.8,3.4-2.3,4.1-.5.8-1,1.3-1.3,1.6s-.8.4-1.4.4c-.8,0-1.4-.3-1.7-.8-.4-.5-.5-1.4-.5-2.5Z"/><path d="m614.7,631.3c0,.1,0,.3,0,.5,0,.2,0,.4,0,.4-.3.1-.5.2-.5.2,0,0-.2,0-.5-.2-.2-.1-.4-.2-.5-.2-.7-.2-2.5-.4-5.5-.4s-2.1,0-2.8.2c-.2,0-.7.2-1.3.5-.7.3-1,.4-1.1.4-.2,0-.4-.2-.6-.5s-.3-.6-.3-.8v-1c1.8-.1,3.6-.2,5.4-.3,2.2-.1,4-.2,5.5-.2s1,.1,1.6.4c.5.3.8.6.8,1.1Zm0,5.3c-7.1.4-10.8.6-11,.6-1.5,0-2.2-.4-2.2-1.1s0-.3,0-.5,0-.4,0-.4h.5c.2-.1.6-.1,1,0,.5,0,.8,0,1,0,.5,0,1.3,0,2.4-.1,1.1,0,1.9-.2,2.4-.2s.7,0,1.2,0c.5,0,.9,0,1.2,0s.8,0,1.3-.3c.6-.2,1-.3,1.3-.3s.3.1.5.4c.1.3.2.6.2.8v1Z"/><path d="m637.8,636.9c0,2.7-.9,4.9-2.8,6.8s-4.1,2.8-6.8,2.8-4.9-1-6.5-3c-1.4-1.8-2.2-4.1-2.2-7s.7-5.5,2.2-8.2c1.4-2.6,3.2-4.8,5.5-6.5,1.7-1.3,3-2,3.8-2s.7.2,1.1.5c.4.3.7.7.7,1,0,.6-.2.9-.6.9s-.3,0-.4-.3c-.2-.2-.3-.3-.5-.3-1,0-2.3.8-4,2.5-1.4,1.4-2.4,2.7-3.1,3.9-1.3,2.2-2,4-2.2,5.5.2,0,.4-.3.7-.7,2.1-2.6,4.5-3.8,7.2-3.8s4.3.7,5.7,2.2c1.4,1.5,2.1,3.4,2.1,5.8Zm-1.9-.5c0-1.8-.5-3.3-1.6-4.4-1-1.1-2.5-1.7-4.3-1.7s-2.9.7-4.8,2c-1.9,1.4-2.9,2.6-2.9,3.8v.5c0,.4-.2.6-.6.8.2,2.2.7,3.9,1.7,5.3,1.2,1.6,2.7,2.4,4.8,2.4s4.1-.9,5.6-2.6c1.4-1.7,2.1-3.6,2.1-6Z"/><path d="m664,636.2c0,2.5-.4,4.6-1.1,6.2-1,2.3-2.5,3.5-4.6,3.5s-2.6-.6-3.6-1.9c-.2,0-.3.9-.3,2.3,0,3.2.2,5.5.5,6.9,0,.1.1.4.4.9.2.5.3.8.3.9,0,.4-.2.6-.8.6s-1,0-1.3-.3c-.2-.2-.4-.8-.6-1.7-.1-.8-.2-1.5-.2-2v-9.5c0-.9,0-2,.1-3.5,0-1.7.1-2.9.2-3.5,0-.7,0-1.5,0-2.6v-2.7c0-1.7.5-2.6,1.4-2.6s.7.2.7.5c0,.6,0,1.5-.2,2.7-.1,1.2-.1,2.1-.1,2.7h.1c.6-.8,1.1-1.6,1.7-2.4.7-.9,1.5-1.3,2.5-1.3,1.7,0,2.9.8,3.8,2.2.7,1.2,1,2.7,1,4.5Zm-1.9.2c0-1.3-.1-2.5-.4-3.4-.4-1.4-1.1-2.1-2.1-2.1s-1.6.6-2.6,1.8c-.9,1.1-1.5,2.2-1.8,3.3-.3.8-.5,2.1-.7,3.8-.1,1.2-.2,1.8-.2,1.7,0,0,.1.2.3.4.1.1.3.2.4.3.4.6.8,1.2,1.2,1.7.4.6,1,.9,1.8.9,1.4,0,2.4-1.1,3.1-3.4.5-1.6.7-3.3.7-5.1Z"/><path d="m679.9,646.4c0,.3-.3.5-.8.5s-1-.2-1.1-.8c0,0,0-.6,0-1.5s0-.5-.1-.6c-1.4,1-2.9,1.5-4.5,1.5s-2.2-.3-3.3-.9c-1.2-.7-1.8-1.6-1.8-2.6s.7-2,2.1-3c1.3-.9,2.5-1.4,3.6-1.4h3.7c.1-.1.2-.4.2-.8,0-1.7-.1-2.9-.4-3.8-.5-1.4-1.3-2.1-2.7-2.1s-1.8.6-2.6,1.8c-.7,1.1-1.1,2.2-1.1,3.1v.4c0,.2-.1.3-.3.3s-.5-.2-.8-.5-.5-.6-.5-.8c0-.7.2-1.6.6-2.6.4-1.1.9-1.9,1.4-2.4.6-.7,1.4-1,2.3-1,1.4,0,2.7.5,3.9,1.3,1.3,1,1.9,2.2,2,3.5v12.2Zm-2-6c0-1-.8-1.5-2.3-1.5s-2.3.2-3.2.6c-1.2.5-1.8,1.4-1.8,2.5s.3,1.2.9,1.6c.5.3,1.1.5,1.9.5,1.1,0,2.1-.3,3.1-1,1-.7,1.4-1.6,1.4-2.6Z"/><path d="m698.1,640.2c0,1-.2,1.9-.7,2.7-.4.8-1,1.5-1.7,2s-1.5,1-2.3,1.2c-.8.3-1.7.4-2.5.4s-2.1-.2-3-.5c-.9-.3-1.8-.8-2.5-1.5-.7-.6-1.1-1.2-1.1-1.8s0-.5.3-.7.4-.3.7-.3c.5,0,.9.2,1.1.6.4.8.9,1.5,1.4,2,.5.5,1.3.8,2.4.8s1.6-.1,2.3-.4c.7-.3,1.3-.6,1.8-1.1s.9-1,1.1-1.6c.3-.6.4-1.2.4-1.9s0-1-.1-1.3c-.1-.4-.3-.7-.5-.9-.3-.2-.6-.4-1.1-.4s-1.1-.1-1.9-.1-.3,0-.7.2c-.4.1-.8.3-1.2.4-.5.1-.9.3-1.4.4-.4.1-.8.2-1,.2-.4,0-.7,0-.9-.2-.3-.2-.4-.4-.4-.6s.2-.7.5-1,1-.6,2-.6c1.2,0,1.9-.2,2.2-.3.3,0,.7-.3,1.1-.5.4-.2.8-.5,1.2-.9.4-.3.7-.7.9-1.2.2-.4.4-.9.4-1.4s-.1-.9-.3-1.2c-.2-.3-.6-.5-1.3-.5s-1.1,0-1.6.2c-.5.1-1,.3-1.5.5-.5.2-.8.4-1.2.6-.3.2-.5.4-.7.6,0,0,.2.2.2.3,0,.2,0,.4-.3.6-.2.2-.4.4-.6.5-.2.1-.5.3-.8.4s-.5.1-.6.1c-.3,0-.5,0-.7-.2-.2-.2-.3-.4-.3-.8s.3-.8.8-1.4c.5-.5,1.2-1,2-1.5.8-.5,1.6-.9,2.5-1.2.9-.3,1.6-.5,2.3-.5s1,0,1.5.3c.5.2,1,.4,1.4.7.4.3.8.6,1,1,.3.4.4.8.4,1.1s0,.7-.3,1.1c-.2.4-.4.8-.7,1.2-.3.4-.6.8-.9,1.1-.4.4-.7.7-1,.9,1.3.2,2.3.7,3,1.4.6.7,1,1.6,1,2.7Z"/><path d="m726.5,641.1c0,.9-.3,1.6-.8,2.1-.5.6-1.1,1-1.9,1.4-.7.3-1.5.6-2.3.7-.8.1-1.5.2-2.1.2-1,0-2.1-.1-3.3-.3,0,.2-.1.4-.3.5-.1.1-.4.2-.7.2s-.6,0-.7-.3c-.2-.2-.2-.5-.2-1s0-.3-.2-.3-.2-.1-.4-.2c-.1,0-.3-.1-.4-.2s-.2-.2-.2-.4,0-.3.1-.4c0,0,.2-.2.3-.2s.2-.1.3-.2.1-.1.1-.3c0-.3,0-.7,0-1.2,0-.5,0-.9,0-1.3s-.1-.5-.3-.5c-.2,0-.3-.2-.3-.4s0-.3.3-.5.3-.3.3-.5v-7.1c0-.3.2-.5.5-.8.3-.3.6-.4,1-.4s.7,0,.8.1c.1.1.2.3.2.5,0,.3,0,.7,0,1.1,0,.4,0,.8,0,1.2.3-.3.6-.7.8-1.1.2-.4.5-.8.8-1.1.3-.3.7-.6,1.1-.8.5-.2,1-.3,1.8-.3s1.2.1,1.6.3c.5.2.9.5,1.4.9.8.6,1.4,1.2,1.7,1.7.3.5.5,1.2.5,1.9s-.2,1.4-.7,2.2-1.2,1.4-2.1,1.8c-.2,0-.2.2-.2.2s0,.1.2.2c.1,0,.3,0,.5.1.4.1.7.2,1.1.4.3.2.7.3.9.5.3.2.5.5.7.7.2.3.3.6.3.9Zm-2.4,0c0-.2,0-.5-.1-.7,0-.2-.3-.4-.5-.5-.3-.1-.7-.3-1.3-.3-.5,0-1.3-.1-2.3-.1s-.5,0-.8,0-.5,0-.8,0-.6,0-.9,0c-.3,0-.7,0-1.1,0-.2,0-.4.1-.4.4,0,.6,0,1.1,0,1.8,0,.6,0,1.2,0,1.6.5.3,1,.4,1.6.6.5.1,1.1.2,1.7.2.9,0,1.7,0,2.3-.3.6-.2,1.1-.4,1.5-.7.3-.3.6-.6.8-1,.2-.4.2-.7.2-1.1Zm-.4-7.2c0-.9-.3-1.7-.9-2.1-.6-.5-1.4-.7-2.3-.7s-1.2.2-1.7.5c-.5.3-1,.8-1.3,1.3s-.7,1.1-.9,1.8c-.2.6-.4,1.3-.4,1.9,0,.2,0,.4,0,.7v.7c0,.2,0,.3.3.3,1.7,0,3.1-.2,4.1-.3,1-.2,1.7-.4,2.2-.7s.8-.7.9-1.2c.1-.5.2-1.1.2-1.8Z"/><path d="m753.2,641.5c0,.6-.5,1.4-1.5,2.4-1,1-1.9,1.6-2.5,1.8-.9.3-1.6.4-2.2.4-1.8,0-3.2-.7-4.2-2-.9-1.2-1.3-2.7-1.3-4.6s.4-4.1,1.2-6.5c1-3,2.3-4.4,3.8-4.4s1.7.4,2.9,1.1,1.9,1.4,2,2c.2.8.3,1.5.3,2.3,0,2.8-.4,4.1-1.2,4.1s-.4,0-.7-.2c-.3-.2-.4-.3-.4-.5s0-.2.2-.4c0-.2.2-.3.2-.3,0-.3.1-1.1.1-2.2,0-2.8-.6-4.2-1.9-4.2s-2.5,1.3-3.4,3.8c-.7,2-1,3.8-1,5.6s.2,2.5.6,3.4c.6,1.2,1.5,1.8,2.7,1.8s1.6-.4,2.5-1.1c.9-.7,1.5-1.4,2-2.2,0-.3.2-.6.5-1.1.1-.2.3-.3.5-.3s.3.2.5.5c.2.3.3.6.3.8Z"/><path d="m768.7,641.6c0,1.1-.7,2.1-2.2,3-1.3.8-2.6,1.2-3.8,1.2-3.4,0-5-2.1-5-6.4s.3-3.9,1-6c.9-2.8,2-4.2,3.5-4.2s2.5.6,3.9,1.8c1.4,1.2,2.1,2.4,2.1,3.6s-.6,2.9-1.9,4c-1.2,1.2-2.7,1.7-4.2,1.7s-.5-.1-1-.4c-.5-.2-.8-.4-1-.4-.3,0-.5.1-.5.3,0,2.9,1,4.3,2.9,4.3s1.9-.3,2.7-1c.5-.4,1.1-1,1.7-1.8.5-.6.8-.9.9-.9.6,0,.9.4.9,1Zm-2.6-6.9c0-.9-.3-1.7-.8-2.5-.5-.8-1.2-1.1-2-1.1s-1.8.6-2.4,1.9c-.5,1.1-.8,2.1-.8,3.3s.2,1.3.7,1.8c.5.5,1.1.7,1.8.7,1,0,1.9-.4,2.6-1.3.6-.8.9-1.7.9-2.8Z"/><path d="m786,646.3c-.7.5-1.2.8-1.5.8s-.6-.2-1-.5c-.4-.3-.9-.7-1.3-1.2-.5-.5-1-1-1.5-1.6s-1-1.1-1.4-1.6c-.4-.5-.8-1-1-1.3s-.5-.6-.5-.7c-.7-.7-1.2-1.2-1.7-1.5-.4,0-.6.2-.6.6,0,.4,0,.9,0,1.3v1.5c0,.5,0,.9,0,1.1,0,.2.1.5.3,1,.1.4.2.7.2,1s0,.3-.3.4c-.2.1-.4.2-.6.2-.5,0-.9-.2-1.1-.5-.2-.3-.4-.9-.4-1.8,0-1.5,0-2.8,0-4,0-1.1,0-2.1,0-2.9s0-1.5,0-2.1c0-.6,0-1.1,0-1.5v-.7c0-.2,0-.3,0-.5,0-.2,0-.3,0-.5,0-.1,0-.3-.1-.6,0-.3-.1-.6-.1-.9s.2-.5.6-.8.7-.4,1-.4.5,0,.7.2c.3.1.4.3.4.5s0,.4-.2.9c-.2.5-.2,1.4-.2,2.5s0,1.4,0,1.9c0,.5,0,.8,0,.9s0,.2.2.2c.3-.2.6-.5,1.1-.8.5-.4.9-.8,1.5-1.3.5-.5,1.1-1,1.7-1.6.6-.6,1.1-1.2,1.7-1.8.7-.8,1.2-1.3,1.7-1.7.4-.3.7-.5.8-.5.3,0,.6.1.9.4s.3.6.3,1,0,.3,0,.4c-.5.3-1.1.8-1.8,1.3s-1.5,1.2-2.4,2c-2.1,1.9-3.2,3.1-3.2,3.7s.1.4.4.8c.3.4.6.8,1.1,1.4.4.5.9,1,1.4,1.6.5.5,1,1.1,1.4,1.5.8.9,1.5,1.6,2.2,2.1.7.5,1.3,1,1.8,1.2,0,0,.1.1.1.2s0,.1-.1.2Z"/><path d="m801.4,630.7c-.2,1.1-.4,2.2-.6,3.3-.2,1.2-.4,2.3-.4,3.3v11.7c0,1.7-.5,3-1.5,4s-2.4,1.5-4.1,1.5-2-.2-3.1-.8c-1.3-.5-2.2-1.2-2.7-2.1-.1-.2-.2-.5-.2-.7,0-.7.4-1.1,1.1-1.1s.3,0,.5.2c.4.5.8.9,1.3,1.3.8.8,1.9,1.2,3.2,1.2s2.8-.6,3.3-1.7c.3-.7.5-2,.5-3.9s0-.8-.1-1.5c-.1-.6-.1-1.2,0-1.7-.7.7-1.2,1.1-1.5,1.2-.6.3-1.2.5-1.8.5-1.7,0-3-.7-3.9-2-.8-1.1-1.2-2.6-1.2-4.4,0-3.4,0-6.2.2-8.5,0-.8.5-1.2,1.3-1.2s1.4.2,1.3.5c-.5,1.3-.7,4.2-.7,8.7s1,5.2,3,5.2,2.2-.9,2.9-2.8c.5-1.5.8-2.9.8-4.4v-4.3c0-.4,0-1,0-1.6,0-.6.4-1,1.2-.9.9,0,1.3.4,1.3.8Z"/><path d="m817.9,631.1c-.1.1-.3.3-.4.5-.1.2-.2.5-.3.9,0,.4-.2,1-.2,1.7,0,.7,0,1.6,0,2.8s0,.2.1.3c0,0,.2,0,.3.1.1,0,.2,0,.3.1,0,0,.1.2.1.3s0,.4-.1.5c0,.1-.2.2-.3.3s-.2.2-.3.3c0,0-.1.2-.1.3,0,.4,0,.9.1,1.6,0,.7.2,1.3.2,2s.2,1.2.2,1.6c0,.5.1.6.1.6,0,.2,0,.5-.3.7-.2.2-.4.4-.6.4s-.5-.2-.7-.5c-.2-.3-.3-.7-.4-1.2s-.2-1-.2-1.6c0-.6-.1-1.1-.2-1.6s0-.9-.1-1.2c0-.3-.1-.5-.3-.5-.3,0-.8,0-1.5.2-.7.2-1.5.4-2.3.6-.8.2-1.5.5-2.1.7-.6.3-.9.5-.9.6,0,.4,0,.7,0,1.1s0,.7,0,1.1c0,.4,0,.7.2,1s.2.5.3.7c0,.3-.3.6-.6.7-.3,0-.5.1-.8.1s-.4-.3-.5-.9c-.1-.6-.2-1.4-.3-2.4s-.1-2.1-.1-3.3c0-1.2,0-2.4,0-3.5,0-2.1.1-3.7.3-4.8.2-1.1.7-1.6,1.3-1.6s.6.1.8.3c.3.2.4.5.4.7s0,.3-.1.6c-.1.2-.2.5-.3.8,0,.3-.2.6-.2,1.1s-.1,1-.2,1.5-.1,1.1-.2,1.7c0,.6,0,1.2,0,1.7s0,.6,0,1c0,.4,0,.5.2.5s.3,0,.7-.2c.4-.2.8-.3,1.2-.4,1.7-.5,2.9-.9,3.7-1.1.8-.2,1.2-.5,1.2-.8v-1.6c0-3.9.5-5.9,1.4-5.9s.5,0,.7.2c.2,0,.4.2.5.4.1.1.2.3.3.5,0,.1,0,.3,0,.3s0,.2,0,.2c0,0-.1,0-.2.1Z"/><path d="m822.1,645.4c0-.3,0-.6.3-.8.2-.2.7-.4,1.6-.4.3-.3.6-.9.8-1.5.2-.7.5-1.4.7-2.2s.4-1.7.5-2.6c.2-.9.3-1.8.4-2.6.1-.8.2-1.6.3-2.4,0-.7.1-1.3.2-1.8,0-.8.3-1.4.6-1.7.4-.3.8-.4,1.2-.4h1.1c.6,0,1.2,0,1.9,0,.7,0,1.4,0,2,0,.7,0,1.2,0,1.6,0,.5,0,.8.2.9.5.1.3.2.5.2.6l-.2.4c0,.1-.1.2-.2.3,0,0-.1.2-.2.2-.1,1.3-.3,2.5-.4,3.8s-.1,2.6-.1,4,0,1.6,0,2.4c0,.8.2,1.6.3,2.4.8,0,1.2,0,1.4.3.1.2.2.5.2,1,0,.9,0,1.6,0,2.2,0,.6,0,1-.2,1.4,0,.3-.2.6-.3.7-.1.1-.3.2-.6.2s-.3,0-.6-.1c-.3,0-.4-.2-.4-.4s0-.1,0-.3c0-.2,0-.5.1-.8,0-.3,0-.6.1-1s0-.7,0-1.1c-.1,0-.3,0-.5,0h-.6c-.5,0-1.2,0-2.2,0-1,0-2,0-3.1,0s-2.1,0-3.1.2c-1,0-1.7.1-2.1.2,0,.3,0,.6.1,1.1,0,.5.2.9.2,1.3,0,.1-.2.3-.4.4-.2.1-.4.2-.5.2-.1,0-.3,0-.4,0-.2,0-.3-.1-.5-.3,0-.2,0-.5-.1-.8,0-.3,0-.6-.1-.9,0-.3,0-.6,0-.9,0-.3,0-.5,0-.7Zm4-1.5c.5,0,1.2,0,1.9,0s1.4,0,2.1,0,1.4,0,2,0c.6,0,1.2,0,1.7,0-.2-.9-.3-1.9-.3-2.8,0-.9,0-1.9,0-3s0-2.4,0-3.4c0-1.1,0-2.2.1-3.5-1.7,0-2.9,0-3.6.2-.7.1-1.1.3-1.1.5,0,.9-.2,1.9-.3,3-.1,1.1-.3,2.3-.6,3.4-.2,1.2-.5,2.3-.8,3.3s-.6,1.9-1,2.6Z"/><path d="m852.8,630.7c-.2,1.1-.4,2.2-.6,3.3-.2,1.2-.4,2.3-.4,3.3v11.7c0,1.7-.5,3-1.5,4s-2.4,1.5-4.1,1.5-2-.2-3.1-.8c-1.3-.5-2.2-1.2-2.7-2.1-.1-.2-.2-.5-.2-.7,0-.7.4-1.1,1.1-1.1s.3,0,.5.2c.4.5.8.9,1.3,1.3.8.8,1.9,1.2,3.2,1.2s2.8-.6,3.3-1.7c.3-.7.5-2,.5-3.9s0-.8-.1-1.5c-.1-.6-.1-1.2,0-1.7-.7.7-1.2,1.1-1.5,1.2-.6.3-1.2.5-1.8.5-1.7,0-3-.7-3.9-2-.8-1.1-1.2-2.6-1.2-4.4,0-3.4,0-6.2.2-8.5,0-.8.5-1.2,1.3-1.2s1.4.2,1.3.5c-.5,1.3-.7,4.2-.7,8.7s1,5.2,3,5.2,2.2-.9,2.9-2.8c.5-1.5.8-2.9.8-4.4v-4.3c0-.4,0-1,0-1.6,0-.6.4-1,1.2-.9.9,0,1.3.4,1.3.8Z"/><path d="m870.7,631.3c0,.1,0,.3,0,.5,0,.2,0,.4,0,.4-.3.1-.5.2-.5.2,0,0-.2,0-.5-.2-.2-.1-.4-.2-.5-.2-.7-.2-2.5-.4-5.5-.4s-2.1,0-2.8.2c-.2,0-.7.2-1.3.5-.7.3-1,.4-1.1.4-.2,0-.4-.2-.6-.5-.2-.4-.3-.6-.3-.8v-1c1.8-.1,3.6-.2,5.4-.3,2.2-.1,4-.2,5.5-.2s1,.1,1.6.4c.5.3.8.6.8,1.1Zm0,5.3c-7.2.4-10.8.6-11,.6-1.5,0-2.2-.4-2.2-1.1s0-.3,0-.5c0-.2,0-.4,0-.4h.5c.2-.1.6-.1,1,0,.4,0,.8,0,1,0,.5,0,1.3,0,2.4-.1,1.1,0,1.9-.2,2.4-.2s.7,0,1.2,0c.5,0,.9,0,1.2,0s.8,0,1.3-.3,1-.3,1.3-.3.3.1.5.4c.1.3.2.6.2.8v1Z"/><path d="m893.8,636.9c0,2.7-.9,4.9-2.8,6.8-1.8,1.8-4.1,2.8-6.8,2.8s-5-1-6.5-3c-1.5-1.8-2.2-4.1-2.2-7s.7-5.5,2.2-8.2c1.4-2.6,3.2-4.8,5.5-6.5,1.7-1.3,3-2,3.8-2s.7.2,1.1.5c.4.3.7.7.7,1,0,.6-.2.9-.6.9s-.3,0-.5-.3-.3-.3-.4-.3c-1,0-2.3.8-4,2.5-1.4,1.4-2.4,2.7-3.1,3.9-1.3,2.2-2,4-2.2,5.5.2,0,.4-.3.7-.7,2.1-2.6,4.5-3.8,7.2-3.8s4.3.7,5.7,2.2c1.4,1.5,2.1,3.4,2.1,5.8Zm-1.9-.5c0-1.8-.5-3.3-1.6-4.4-1-1.1-2.5-1.7-4.3-1.7s-2.9.7-4.8,2c-1.9,1.4-2.9,2.6-2.9,3.8v.5c0,.4-.2.6-.6.8.2,2.2.7,3.9,1.7,5.3,1.1,1.6,2.7,2.4,4.8,2.4s4.1-.9,5.6-2.6c1.4-1.7,2.1-3.6,2.1-6Z"/><path d="m901.4,623.5c0,.6-.1,1.2-.2,2,0,.8-.1,1.7-.2,2.6,0,1-.1,2-.2,3.1,0,1.1,0,2.2,0,3.4,0,2.8,0,5.1.2,6.8.1,1.7.5,3,1,3.7-.5.3-.8.5-1.1.5-1.1,0-1.8-.9-2-2.6-.1-1.3-.2-2.7-.3-4.1,0-1.4,0-2.8,0-4.3s0-3.6.1-5.3c0-1.8.2-3.5.3-5.2,0-.2,0-.5,0-.8,0-.3,0-.5,0-.7,0-.5.4-.9,1.2-1,.2,0,.5,0,1.1-.2.5,0,1.2-.2,1.9-.4.7-.2,1.5-.3,2.2-.5s1.6-.3,2.3-.5c.7-.1,1.4-.3,2-.4.6,0,1-.2,1.3-.2s.4,0,.7,0c.3,0,.5.1.7.2.2,0,.4.2.6.4.2.1.2.3.2.5s-.1.5-.4.5c-.3,0-.7.2-1.3.2-.6,0-1.3.1-2.2.2s-1.9.2-3,.4c-2.5.5-4,1-4.7,1.5Z"/><path d="m925,631.3c0,.4,0,.8,0,1.5s-.1,1.3-.2,2c0,.7-.1,1.4-.2,2.2,0,.7,0,1.3,0,1.8,0,1,0,1.8,0,2.4,0,.6,0,1,0,1.4,0,.3,0,.5,0,.6,0,0,0,.1.1.1.2,0,.4,0,.6-.1.2,0,.4-.1.7-.1.5,0,.9,0,1.2.2.3.1.5.3.6.5.1.2.2.5.2.8,0,.3,0,.7,0,1.1,0,1.4-.1,2.4-.3,2.9-.2.5-.7.8-1.3.8s-.4,0-.5-.1c-.2,0-.2-.2-.2-.4s0-.3,0-.5c0-.2.1-.4.2-.7,0-.3.1-.5.2-.8,0-.3,0-.6,0-.8,0-.5,0-.8-.2-.9s-.4-.2-1-.2-.7.1-.9.4-.5.4-.9.4-.6-.2-.8-.5-.2-.7-.3-.9c-.4.5-.9,1-1.6,1.4-.7.4-1.5.7-2.4.7s-.6,0-1-.3c-.4-.2-.7-.4-1-.7-.3-.3-.6-.6-.9-.9-.3-.3-.5-.6-.6-.9-.4-.9-.5-2.5-.5-4.8v-8.1s0-.1,0-.3c0-.6.4-.9,1.3-.9s1.1.4,1.1,1.2,0,1.4,0,2.4c0,1,0,2,0,3,0,1,0,1.9,0,2.6,0,.8,0,1.3,0,1.4,0,.5,0,1,.2,1.5s.3,1,.5,1.4.5.8.8,1c.3.3.6.4,1,.4.5,0,1-.2,1.5-.5s.8-.8,1.2-1.5c.3-.6.6-1.3.8-2.1.2-.8.3-1.7.3-2.6v-4.9c0-.2,0-.5-.2-.9-.1-.4-.2-.7-.2-.9s0-.3.1-.5c0-.1.2-.2.4-.3.2,0,.3-.1.4-.1.1,0,.2,0,.3,0,1,0,1.5.4,1.5,1.3Z"/></g><g id="Layer_1"><path class="cls-3" d="m991.5,406c-51.9-234.1-92.2-293.8-122-293-62,1.7-93.1,265.8-151,263-47-2.2-60.7-177.6-102-178-52.2-.5-77.8,279.6-129,280-54.4.5-82.3-315-146-316-15.3-.2-28.1,17.7-40.3,43.1-29.3,61.4-54.3,166.8-98.7,167.9-37.3.9-69.3-72.3-89-128"/></g><g id="Layer_2"><line class="cls-2" x1="120" y1="101" x2="120" y2="517"/><line class="cls-2" x1="170" y1="101" x2="170" y2="517"/><line class="cls-2" x1="220" y1="100.7" x2="220" y2="516.7"/><line class="cls-2" x1="270" y1="100.7" x2="270" y2="516.7"/><line class="cls-2" x1="320" y1="100.9" x2="320" y2="516.8"/><line class="cls-2" x1="370" y1="100.9" x2="370" y2="516.8"/><line class="cls-2" x1="420" y1="100.6" x2="420" y2="516.6"/><line class="cls-2" x1="470" y1="101.4" x2="470" y2="517.3"/><line class="cls-2" x1="520" y1="100.9" x2="520" y2="516.9"/><line class="cls-2" x1="570" y1="100.9" x2="570" y2="516.9"/><line class="cls-2" x1="620" y1="100.6" x2="620" y2="516.6"/><line class="cls-2" x1="670" y1="100.6" x2="670" y2="516.6"/><line class="cls-2" x1="720" y1="100.8" x2="720" y2="516.8"/><line class="cls-2" x1="770" y1="100.8" x2="770" y2="516.8"/><line class="cls-2" x1="820" y1="100.5" x2="820" y2="516.5"/><line class="cls-2" x1="870" y1="100.5" x2="870" y2="516.5"/><line class="cls-2" x1="920" y1="100.9" x2="920" y2="516.8"/><line class="cls-2" x1="970" y1="100.6" x2="970" y2="516.6"/></g><g id="Layer_3"><g id="Layer_9"><line class="cls-2" x1="70" y1="461.5" x2="78.1" y2="461.5"/><line class="cls-2" x1="69.8" y1="406.1" x2="77.9" y2="406.1"/><line class="cls-2" x1="69.8" y1="350.6" x2="77.9" y2="350.6"/><line class="cls-2" x1="69.6" y1="295.2" x2="77.7" y2="295.2"/><line class="cls-2" x1="69.9" y1="239.8" x2="77.9" y2="239.8"/><line class="cls-2" x1="69.7" y1="184.4" x2="77.8" y2="184.4"/><line class="cls-2" x1="69.6" y1="128.9" x2="77.7" y2="128.9"/></g><g id="Layer_10"><line class="cls-5" x1="73.9" y1="86.1" x2="73.9" y2="524.1"/><polygon points="66.5 91.7 73.9 88.5 81.3 91.7 73.9 74.1 66.5 91.7"/><line class="cls-1" x1="1030" y1="518.4" x2="70" y2="516.5"/><line class="cls-5" x1="1018.1" y1="518.4" x2="70" y2="516.5"/><polygon points="1012.5 511 1015.6 518.4 1012.4 525.8 1030 518.4 1012.5 511"/></g><g id="Layer_12"><path d="m356,546.6h4.6v-16.5l-5.5,2.7v-2.8l5.5-2.6h3v19.3h4.5v2.5h-12.1v-2.5Z"/><path d="m384,548.2c-.7.4-1.5.7-2.2.9-.8.2-1.6.3-2.4.3-2.5,0-4.5-.8-6-2.3s-2.1-3.6-2.1-6.3.7-4.8,2.1-6.3,3.4-2.3,6-2.3,1.6.1,2.3.3,1.5.5,2.3,1v2.8c-.7-.6-1.4-1.1-2.1-1.4s-1.5-.4-2.4-.4c-1.7,0-3,.5-3.9,1.6s-1.4,2.7-1.4,4.7.5,3.6,1.4,4.7c.9,1.1,2.2,1.6,3.9,1.6s1.8-.1,2.5-.4c.7-.3,1.4-.7,2.1-1.3v2.8Z"/><path d="m659.6,546.9h10v2.5h-13.3v-2.5c1.8-1.9,3.4-3.6,4.8-5.1s2.3-2.5,2.8-3.1c1-1.2,1.6-2.2,2-2.9.3-.7.5-1.5.5-2.3,0-1.2-.4-2.2-1.1-2.9s-1.7-1-3-1-1.8.2-2.8.5-2,.8-3.1,1.5v-3c1-.5,2-.8,3-1.1s1.9-.4,2.9-.4c2.1,0,3.9.6,5.2,1.7s2,2.6,2,4.5-.2,1.9-.7,2.8-1.1,2-2.1,3.1c-.5.6-1.3,1.5-2.4,2.6s-2.6,2.8-4.8,5Z"/><path d="m685.9,548.5c-.7.4-1.5.7-2.2.9-.8.2-1.5.3-2.4.3-2.5,0-4.5-.8-6-2.3s-2.1-3.6-2.1-6.3.7-4.8,2.1-6.3,3.4-2.3,6-2.3,1.6.1,2.3.3,1.5.5,2.3,1v2.8c-.7-.6-1.4-1.1-2.1-1.4s-1.5-.4-2.4-.4c-1.7,0-3,.5-3.9,1.6s-1.4,2.7-1.4,4.7.5,3.6,1.4,4.7c.9,1.1,2.2,1.6,3.9,1.6s1.8-.1,2.5-.4c.7-.3,1.4-.7,2.1-1.3v2.8Z"/><path d="m962.6,533.6c1.4.4,2.5,1.1,3.3,2,.8,1,1.1,2.2,1.1,3.6s-.7,3.6-2,4.7c-1.4,1.1-3.2,1.7-5.6,1.7s-2,0-3.1-.3-2.1-.5-3.1-.8v-2.9c1,.5,2,.9,2.9,1.2s1.9.4,2.9.4c1.6,0,2.9-.4,3.7-1.1s1.3-1.8,1.3-3.2-.4-2.3-1.3-3c-.9-.7-2-1.1-3.5-1.1h-2.3v-2.4h2.3c1.4,0,2.4-.3,3.2-.9s1.1-1.4,1.1-2.5-.4-2-1.1-2.6c-.7-.6-1.7-.9-3-.9s-1.8,0-2.7.3-1.9.5-2.9.9v-2.7c1.2-.3,2.2-.5,3.2-.7.9-.2,1.7-.2,2.5-.2,2.1,0,3.8.5,5.1,1.6,1.3,1.1,1.9,2.5,1.9,4.3s-.3,2.2-1,3-1.6,1.4-2.9,1.7Z"/><path d="m983.8,544.5c-.7.4-1.5.7-2.2.9-.8.2-1.6.3-2.4.3-2.5,0-4.5-.8-6-2.3s-2.1-3.6-2.1-6.3.7-4.8,2.1-6.3,3.4-2.3,6-2.3,1.6.1,2.3.3,1.5.5,2.3,1v2.8c-.7-.6-1.4-1.1-2.1-1.4-.7-.3-1.5-.4-2.4-.4-1.7,0-3,.5-3.9,1.6s-1.4,2.7-1.4,4.7.5,3.6,1.4,4.7c.9,1.1,2.2,1.6,3.9,1.6s1.8-.1,2.5-.4c.7-.3,1.4-.7,2.1-1.3v2.8Z"/></g></g></svg>