<?xml version="1.0" encoding="UTF-8"?><svg xmlns="http://www.w3.org/2000/svg" width="1030" height="658.3" viewBox="0 0 1030 658.3"><defs><style>.cls-1,.cls-2,.cls-3{fill:#00a99d;}.cls-2,.cls-4,.cls-5,.cls-3,.cls-6{stroke:#000;stroke-miterlimit:10;}.cls-2,.cls-6{stroke-width:2px;}.cls-4{stroke-width:5px;}.cls-4,.cls-6{fill:none;}.cls-5{fill:red;}.cls-5,.cls-3{stroke-width:.5px;}.cls-3{opacity:.6;}</style></defs><g id="Layer_1"><path class="cls-4" d="m991.5,406c-51.9-234.1-92.2-293.8-122-293-62,1.7-93.1,265.8-151,263-47-2.2-60.7-177.6-102-178-52.2-.5-77.8,279.6-129,280-54.4.5-82.3-315-146-316-15.3-.2-28.1,17.7-40.3,43.1-29.3,61.4-54.3,166.8-98.7,167.9-37.3.9-69.3-72.3-89-128"/></g><g id="Layer_2"><line class="cls-2" x1="120" y1="101" x2="120" y2="517"/><line class="cls-2" x1="170" y1="101" x2="170" y2="517"/><line class="cls-2" x1="220" y1="100.7" x2="220" y2="516.7"/><line class="cls-2" x1="270" y1="100.7" x2="270" y2="516.7"/><line class="cls-2" x1="320" y1="100.9" x2="320" y2="516.8"/><line class="cls-2" x1="370" y1="100.9" x2="370" y2="516.8"/><line class="cls-2" x1="420" y1="100.6" x2="420" y2="516.6"/><line class="cls-2" x1="470" y1="101.4" x2="470" y2="517.3"/><line class="cls-2" x1="520" y1="100.9" x2="520" y2="516.9"/><line class="cls-2" x1="570" y1="100.9" x2="570" y2="516.9"/><line class="cls-2" x1="620" y1="100.6" x2="620" y2="516.6"/><line class="cls-2" x1="670" y1="100.6" x2="670" y2="516.6"/><line class="cls-2" x1="720" y1="100.8" x2="720" y2="516.8"/><line class="cls-2" x1="770" y1="100.8" x2="770" y2="516.8"/><line class="cls-2" x1="820" y1="100.5" x2="820" y2="516.5"/><line class="cls-2" x1="870" y1="100.5" x2="870" y2="516.5"/><line class="cls-2" x1="920" y1="100.9" x2="920" y2="516.8"/><line class="cls-2" x1="970" y1="100.6" x2="970" y2="516.6"/></g><g id="Layer_4"><rect class="cls-3" x="120" y="310.5" width="50" height="206"/><circle class="cls-5" cx="119.5" cy="262" r="4"/><circle class="cls-5" cx="169.5" cy="356" r="4"/></g><g id="Layer_3"><g id="Layer_9"><line class="cls-2" x1="70" y1="461.5" x2="78.1" y2="461.5"/><line class="cls-2" x1="69.8" y1="406.1" x2="77.9" y2="406.1"/><line class="cls-2" x1="69.8" y1="350.6" x2="77.9" y2="350.6"/><line class="cls-2" x1="69.6" y1="295.2" x2="77.7" y2="295.2"/><line class="cls-2" x1="69.9" y1="239.8" x2="77.9" y2="239.8"/><line class="cls-2" x1="69.7" y1="184.4" x2="77.8" y2="184.4"/><line class="cls-2" x1="69.6" y1="128.9" x2="77.7" y2="128.9"/></g><g id="Layer_10"><line class="cls-6" x1="73.9" y1="86.1" x2="73.9" y2="524.1"/><polygon points="66.5 91.7 73.9 88.5 81.3 91.7 73.9 74.1 66.5 91.7"/><line class="cls-1" x1="1030" y1="518.4" x2="70" y2="516.5"/><line class="cls-6" x1="1018.1" y1="518.4" x2="70" y2="516.5"/><polygon points="1012.5 511 1015.6 518.4 1012.4 525.8 1030 518.4 1012.5 511"/></g><g id="Layer_12"><path d="m356,546.6h4.6v-16.5l-5.5,2.7v-2.8l5.5-2.6h3v19.3h4.5v2.5h-12.1v-2.5Z"/><path d="m384,548.2c-.7.4-1.5.7-2.2.9-.8.2-1.6.3-2.4.3-2.5,0-4.5-.8-6-2.3s-2.1-3.6-2.1-6.3.7-4.8,2.1-6.3,3.4-2.3,6-2.3,1.6.1,2.3.3,1.5.5,2.3,1v2.8c-.7-.6-1.4-1.1-2.1-1.4s-1.5-.4-2.4-.4c-1.7,0-3,.5-3.9,1.6s-1.4,2.7-1.4,4.7.5,3.6,1.4,4.7c.9,1.1,2.2,1.6,3.9,1.6s1.8-.1,2.5-.4c.7-.3,1.4-.7,2.1-1.3v2.8Z"/><path d="m659.6,546.9h10v2.5h-13.3v-2.5c1.8-1.9,3.4-3.6,4.8-5.1s2.3-2.5,2.8-3.1c1-1.2,1.6-2.2,2-2.9.3-.7.5-1.5.5-2.3,0-1.2-.4-2.2-1.1-2.9s-1.7-1-3-1-1.8.2-2.8.5-2,.8-3.1,1.5v-3c1-.5,2-.8,3-1.1s1.9-.4,2.9-.4c2.1,0,3.9.6,5.2,1.7s2,2.6,2,4.5-.2,1.9-.7,2.8-1.1,2-2.1,3.1c-.5.6-1.3,1.5-2.4,2.6s-2.6,2.8-4.8,5Z"/><path d="m685.9,548.5c-.7.4-1.5.7-2.2.9-.8.2-1.5.3-2.4.3-2.5,0-4.5-.8-6-2.3s-2.1-3.6-2.1-6.3.7-4.8,2.1-6.3,3.4-2.3,6-2.3,1.6.1,2.3.3,1.5.5,2.3,1v2.8c-.7-.6-1.4-1.1-2.1-1.4s-1.5-.4-2.4-.4c-1.7,0-3,.5-3.9,1.6s-1.4,2.7-1.4,4.7.5,3.6,1.4,4.7c.9,1.1,2.2,1.6,3.9,1.6s1.8-.1,2.5-.4c.7-.3,1.4-.7,2.1-1.3v2.8Z"/><path d="m962.6,533.6c1.4.4,2.5,1.1,3.3,2,.8,1,1.1,2.2,1.1,3.6s-.7,3.6-2,4.7c-1.4,1.1-3.2,1.7-5.6,1.7s-2,0-3.1-.3-2.1-.5-3.1-.8v-2.9c1,.5,2,.9,2.9,1.2s1.9.4,2.9.4c1.6,0,2.9-.4,3.7-1.1s1.3-1.8,1.3-3.2-.4-2.3-1.3-3c-.9-.7-2-1.1-3.5-1.1h-2.3v-2.4h2.3c1.4,0,2.4-.3,3.2-.9s1.1-1.4,1.1-2.5-.4-2-1.1-2.6c-.7-.6-1.7-.9-3-.9s-1.8,0-2.7.3-1.9.5-2.9.9v-2.7c1.2-.3,2.2-.5,3.2-.7.9-.2,1.7-.2,2.5-.2,2.1,0,3.8.5,5.1,1.6,1.3,1.1,1.9,2.5,1.9,4.3s-.3,2.2-1,3-1.6,1.4-2.9,1.7Z"/><path d="m983.8,544.5c-.7.4-1.5.7-2.2.9-.8.2-1.6.3-2.4.3-2.5,0-4.5-.8-6-2.3s-2.1-3.6-2.1-6.3.7-4.8,2.1-6.3,3.4-2.3,6-2.3,1.6.1,2.3.3,1.5.5,2.3,1v2.8c-.7-.6-1.4-1.1-2.1-1.4-.7-.3-1.5-.4-2.4-.4-1.7,0-3,.5-3.9,1.6s-1.4,2.7-1.4,4.7.5,3.6,1.4,4.7c.9,1.1,2.2,1.6,3.9,1.6s1.8-.1,2.5-.4c.7-.3,1.4-.7,2.1-1.3v2.8Z"/></g></g></svg>