<svg
  xmlns="http://www.w3.org/2000/svg"
  xmlns:xlink="http://www.w3.org/1999/xlink"
  viewBox="0 0 596 842"
  width="596"
  height="842"
  preserveAspectRatio="xMidYMid meet"
  style="
    width: 100%;
    height: 100%;
    transform: translate3d(0px, 0px, 0px);
    content-visibility: visible;
  "
>
  <defs>
    <clipPath id="__lottie_element_6">
      <rect width="596" height="842" x="0" y="0"></rect>
    </clipPath>
  </defs>
  <g clip-path="url(#__lottie_element_6)">
    <g
      transform="matrix(1.7000000476837158,0,0,1.7000000476837158,-208.60000610351562,-294.70001220703125)"
      opacity="1"
      style="display: block"
    >
      <g
        opacity="1"
        transform="matrix(1,0,0,1,262.32000732421875,447.239990234375)"
      >
        <path
          stroke-linecap="round"
          stroke-linejoin="miter"
          fill-opacity="0"
          stroke-miterlimit="4"
          stroke="rgb(97,97,97)"
          stroke-opacity="1"
          stroke-width="13"
          d="M0 0"
        ></path>
      </g>
      <g
        opacity="1"
        transform="matrix(1,0,0,1,305.3399963378906,401.5799865722656)"
      >
        <path
          stroke-linecap="round"
          stroke-linejoin="miter"
          fill-opacity="0"
          stroke-miterlimit="4"
          stroke="rgb(251,131,3)"
          stroke-opacity="1"
          stroke-width="13"
          d=" M-5.638000011444092,5.638000011444092 C19.57200050354004,-19.57200050354004 46.97999954223633,-46.979000091552734 46.97999954223633,-46.979000091552734"
        ></path>
      </g>
      <g opacity="1" transform="matrix(1,0,0,1,329.25,378.2409973144531)">
        <path
          stroke-linecap="round"
          stroke-linejoin="miter"
          fill-opacity="0"
          stroke-miterlimit="4"
          stroke="rgb(251,131,3)"
          stroke-opacity="1"
          stroke-width="13"
          d=" M-23.187999725341797,-24.66200065612793 C-16.650999069213867,-24.670000076293945 20.937999725341797,-24.716999053955078 20.937999725341797,-24.716999053955078 C22.709999084472656,-24.7189998626709 24.149999618530273,-23.283000946044922 24.149999618530273,-21.509000778198242 C24.149999618530273,-21.509000778198242 24.149999618530273,24.7189998626709 24.149999618530273,24.7189998626709"
        ></path>
      </g>
      <g
        opacity="1"
        transform="matrix(1,0,0,1,333.3599853515625,374.2799987792969)"
      >
        <path
          stroke-linecap="round"
          stroke-linejoin="miter"
          fill-opacity="0"
          stroke-miterlimit="4"
          stroke="rgb(97,97,97)"
          stroke-opacity="1"
          stroke-width="13"
          d=" M-50.7599983215332,2.5199999809265137 C-50.7599983215332,2.5199999809265137 -50.7599983215332,-44.7599983215332 -50.7599983215332,-44.7599983215332 C-50.7599983215332,-48.47100067138672 -47.750999450683594,-51.47999954223633 -44.040000915527344,-51.47999954223633 C-44.040000915527344,-51.47999954223633 44.040000915527344,-51.47999954223633 44.040000915527344,-51.47999954223633 C47.750999450683594,-51.47999954223633 50.7599983215332,-48.47100067138672 50.7599983215332,-44.7599983215332 C50.7599983215332,-44.7599983215332 50.7599983215332,44.7599983215332 50.7599983215332,44.7599983215332 C50.7599983215332,48.47100067138672 47.750999450683594,51.47999954223633 44.040000915527344,51.47999954223633 C44.040000915527344,51.47999954223633 -2.5199999809265137,51.47999954223633 -2.5199999809265137,51.47999954223633"
        ></path>
      </g>
    </g>
  </g>
</svg>
